<svg width="128" height="122" viewBox="0 0 128 122" fill="none" xmlns="http://www.w3.org/2000/svg">
<path d="M74.1268 7.03074L74.9568 5.78803L75.7716 4.562L77.6061 1.81104C77.8307 1.47267 77.7397 1.01746 77.4043 0.791374C77.0629 0.565288 76.6077 0.65633 76.3816 0.996218L72.7506 6.44201C70.0922 5.41172 67.1288 4.83361 63.9985 4.83361C60.8712 4.83361 57.9078 5.41172 55.2494 6.44201L54.4149 5.18564L51.6199 0.9947C51.3953 0.65633 50.9386 0.565288 50.5987 0.789857C50.2619 1.01443 50.1708 1.47115 50.3954 1.80952L53.8762 7.02922C47.6323 9.93648 43.4095 15.4445 43.4095 21.7491H84.5936C84.5936 15.446 80.3708 9.93799 74.1268 7.03074ZM55.1766 15.8663C53.9551 15.8663 52.9688 14.8785 52.9688 13.6601C52.9688 12.4416 53.9551 11.4554 55.1766 11.4554C56.395 11.4554 57.3813 12.4416 57.3813 13.6601C57.3813 14.8785 56.395 15.8663 55.1766 15.8663ZM72.8249 15.8663C71.6065 15.8663 70.6202 14.8785 70.6202 13.6601C70.6202 12.4416 71.6065 11.4554 72.8249 11.4554C74.0464 11.4554 75.0327 12.4416 75.0327 13.6601C75.0327 14.8785 74.0464 15.8663 72.8249 15.8663Z" fill="#4D4D4D"/>
<path d="M43.4095 24.6928V57.0534C43.4095 59.6223 45.4974 61.7117 48.0662 61.7117H51.4287C51.3164 62.1001 51.2527 62.5113 51.2527 62.9362V72.2543C51.2527 74.6896 53.2298 76.6667 55.6667 76.6667C58.1036 76.6667 60.0792 74.6896 60.0792 72.2543V62.9362C60.0792 62.5129 60.0139 62.1001 59.9047 61.7117H68.0984C67.9861 62.1001 67.9239 62.5113 67.9239 62.9362V72.2543C67.9239 74.6896 69.901 76.6667 72.3363 76.6667C74.7717 76.6667 76.7488 74.6896 76.7488 72.2543V62.9362C76.7488 62.5129 76.6866 62.1001 76.5743 61.7117H79.9353C82.5042 61.7117 84.5936 59.6223 84.5936 57.0534V24.6928H43.4095Z" fill="#4D4D4D"/>
<path d="M36.0533 24.6928C33.6165 24.6928 31.6409 26.6668 31.6409 29.1068V47.9811C31.6409 50.4165 33.6165 52.3936 36.0533 52.3936C38.4887 52.3936 40.4658 50.4165 40.4658 47.9811V29.1052C40.4658 26.6668 38.4902 24.6928 36.0533 24.6928Z" fill="#4D4D4D"/>
<path d="M91.9497 24.6928C89.5113 24.6928 87.5372 26.6668 87.5372 29.1068V47.9811C87.5372 50.4165 89.5113 52.3936 91.9497 52.3936C94.385 52.3936 96.3591 50.4165 96.3591 47.9811V29.1052C96.3591 26.6668 94.385 24.6928 91.9497 24.6928Z" fill="#4D4D4D"/>
<path d="M6.22034 106.98C5.35077 106.98 4.5299 106.785 3.75773 106.395C2.99251 106.006 2.27251 105.463 1.59773 104.768L3.13164 102.608C3.76469 103.192 4.35599 103.616 4.90556 103.881C5.45512 104.138 5.98034 104.267 6.48121 104.267C6.72469 104.267 6.98208 104.246 7.25338 104.204C7.53164 104.155 7.80643 104.089 8.07773 104.006C8.34904 103.922 8.60643 103.825 8.8499 103.714C9.10034 103.595 9.31599 103.47 9.49686 103.338L6.16817 95.3033L8.64121 94.2702C8.75947 94.5763 8.89164 94.9033 9.03773 95.2511C9.18382 95.5989 9.34034 95.9746 9.5073 96.3781L12.1264 102.691C12.2238 102.928 12.3247 103.147 12.429 103.348C12.5403 103.543 12.6656 103.714 12.8047 103.86C12.9508 103.999 13.1143 104.11 13.2951 104.194C13.4829 104.27 13.6986 104.308 13.9421 104.308H14.1821V106.98H13.9421C13.5038 106.98 13.1247 106.945 12.8047 106.875C12.4916 106.813 12.2169 106.726 11.9803 106.615C11.7438 106.496 11.5351 106.361 11.3543 106.208C11.1734 106.048 10.9995 105.877 10.8325 105.696C10.4986 105.947 10.1577 106.155 9.80991 106.322C9.46208 106.489 9.09686 106.622 8.71425 106.719C8.33164 106.816 7.93512 106.882 7.52469 106.917C7.11425 106.959 6.67947 106.98 6.22034 106.98ZM13.7679 104.308H15.9905C16.3174 104.308 16.6687 104.291 17.0444 104.256C17.427 104.215 17.7783 104.135 18.0983 104.016C18.4253 103.891 18.6931 103.714 18.9018 103.484C19.1174 103.255 19.2253 102.948 19.2253 102.566C19.2253 102.385 19.187 102.131 19.1105 101.804C19.034 101.477 18.9331 101.115 18.8079 100.719C18.6826 100.322 18.5331 99.912 18.3592 99.4876C18.1922 99.0633 18.0148 98.6667 17.827 98.2981L20.2374 97.1085C20.4113 97.505 20.5853 97.9259 20.7592 98.3711C20.9331 98.8163 21.0861 99.2754 21.2183 99.7485C21.3574 100.215 21.4687 100.684 21.5522 101.157C21.6357 101.63 21.6774 102.093 21.6774 102.545C21.6774 103.352 21.5279 104.037 21.2287 104.601C20.9296 105.164 20.5192 105.623 19.9974 105.978C19.4826 106.326 18.8774 106.58 18.1818 106.74C17.4931 106.9 16.7557 106.98 15.9696 106.98H13.7679V104.308ZM17.6496 110.068L15.8757 111.842L14.0809 110.058L15.8548 108.274L17.6496 110.068ZM21.594 110.079L19.82 111.863L18.0253 110.068L19.7992 108.295L21.594 110.079ZM28.124 100.197C27.9431 100.197 27.7483 100.274 27.5396 100.427C27.3309 100.58 27.1396 100.778 26.9657 101.022C26.7918 101.258 26.6457 101.522 26.5274 101.815C26.4161 102.107 26.3605 102.392 26.3605 102.67C26.3605 102.962 26.4266 103.206 26.5587 103.401C26.6979 103.588 26.8718 103.742 27.0805 103.86C27.2961 103.978 27.5361 104.068 27.8005 104.131C28.0718 104.187 28.3396 104.228 28.604 104.256C28.7501 104.263 28.9101 104.27 29.084 104.277C29.2579 104.284 29.4353 104.291 29.6161 104.298C29.804 104.298 29.9883 104.302 30.1692 104.308C30.3501 104.308 30.5205 104.308 30.6805 104.308C30.6596 104.051 30.6074 103.773 30.524 103.474C30.4474 103.168 30.3466 102.862 30.2214 102.555C30.0961 102.249 29.9535 101.957 29.7935 101.679C29.6335 101.394 29.4596 101.143 29.2718 100.928C29.0909 100.705 28.9031 100.528 28.7083 100.395C28.5135 100.263 28.3188 100.197 28.124 100.197ZM23.3866 111.675C24.4092 111.474 25.3309 111.202 26.1518 110.862C26.9796 110.528 27.6961 110.152 28.3014 109.735C28.9066 109.317 29.397 108.872 29.7727 108.399C30.1553 107.926 30.4092 107.453 30.5344 106.98C29.9709 106.98 29.4214 106.962 28.8857 106.928C28.3501 106.893 27.8422 106.823 27.3622 106.719C26.8892 106.622 26.4509 106.482 26.0474 106.302C25.6509 106.114 25.3066 105.87 25.0144 105.571C24.7292 105.265 24.5066 104.896 24.3466 104.465C24.1866 104.034 24.1066 103.519 24.1066 102.921C24.1066 102.538 24.1483 102.138 24.2318 101.721C24.3153 101.303 24.4335 100.896 24.5866 100.5C24.7466 100.096 24.9414 99.7172 25.1709 99.3624C25.4005 99.0007 25.6648 98.6841 25.964 98.4128C26.2631 98.1346 26.5935 97.9154 26.9553 97.7554C27.317 97.5954 27.7066 97.5154 28.124 97.5154C29.2022 97.5154 30.1866 97.9954 31.077 98.9554C31.397 99.3102 31.6822 99.7137 31.9327 100.166C32.1901 100.611 32.4057 101.091 32.5796 101.606C32.7605 102.114 32.8961 102.646 32.9866 103.202C33.084 103.759 33.1327 104.322 33.1327 104.893C33.1327 105.783 33.0179 106.615 32.7883 107.387C32.5657 108.166 32.2492 108.882 31.8387 109.536C31.4353 110.19 30.9518 110.778 30.3883 111.3C29.8248 111.828 29.2057 112.291 28.5309 112.688C27.8561 113.084 27.1361 113.415 26.3709 113.679C25.6057 113.95 24.8196 114.152 24.0127 114.284L23.3866 111.675ZM39.7705 100.041C39.9096 100.479 40.0522 100.938 40.1983 101.418C40.3514 101.891 40.487 102.371 40.6053 102.858C40.7305 103.345 40.8314 103.832 40.9079 104.319C40.9844 104.799 41.0227 105.268 41.0227 105.728C41.0227 106.354 40.9253 106.962 40.7305 107.554C40.5427 108.152 40.2783 108.726 39.9374 109.275C39.6035 109.832 39.2035 110.361 38.7374 110.862C38.2783 111.362 37.7774 111.835 37.2348 112.281C36.6922 112.726 36.1183 113.14 35.5131 113.522C34.9079 113.905 34.2957 114.249 33.6766 114.555L32.487 112.166C32.9809 111.922 33.4679 111.651 33.9479 111.352C34.4279 111.06 34.8835 110.747 35.3148 110.413C35.7531 110.079 36.1566 109.728 36.5253 109.359C36.9009 108.99 37.2209 108.608 37.4853 108.211C37.7566 107.815 37.9688 107.408 38.1218 106.99C38.2748 106.573 38.3514 106.152 38.3514 105.728C38.3514 105.331 38.3061 104.914 38.2157 104.475C38.1253 104.037 38.014 103.606 37.8818 103.182C37.7566 102.75 37.6244 102.336 37.4853 101.94C37.3531 101.543 37.2418 101.192 37.1514 100.886L39.7705 100.041ZM47.0953 106.98C46.2258 106.98 45.4049 106.785 44.6327 106.395C43.8675 106.006 43.1475 105.463 42.4727 104.768L44.0066 102.608C44.6397 103.192 45.231 103.616 45.7806 103.881C46.3301 104.138 46.8553 104.267 47.3562 104.267C47.5997 104.267 47.8571 104.246 48.1284 104.204C48.4066 104.155 48.6814 104.089 48.9527 104.006C49.224 103.922 49.4814 103.825 49.7249 103.714C49.9753 103.595 50.191 103.47 50.3719 103.338L47.0432 95.3033L49.5162 94.2702C49.6345 94.5763 49.7666 94.9033 49.9127 95.2511C50.0588 95.5989 50.2153 95.9746 50.3823 96.3781L53.0014 102.691C53.0988 102.928 53.1997 103.147 53.304 103.348C53.4153 103.543 53.5406 103.714 53.6797 103.86C53.8258 103.999 53.9893 104.11 54.1701 104.194C54.3579 104.27 54.5736 104.308 54.8171 104.308H55.0571V106.98H54.8171C54.3788 106.98 53.9997 106.945 53.6797 106.875C53.3666 106.813 53.0919 106.726 52.8553 106.615C52.6188 106.496 52.4101 106.361 52.2293 106.208C52.0484 106.048 51.8745 105.877 51.7075 105.696C51.3736 105.947 51.0327 106.155 50.6849 106.322C50.3371 106.489 49.9719 106.622 49.5893 106.719C49.2066 106.816 48.8101 106.882 48.3997 106.917C47.9893 106.959 47.5545 106.98 47.0953 106.98ZM54.6429 104.308H56.3229C56.6498 104.308 56.9837 104.291 57.3246 104.256C57.6724 104.215 57.9855 104.135 58.2637 104.016C58.542 103.891 58.7681 103.714 58.942 103.484C59.1229 103.255 59.2133 102.948 59.2133 102.566C59.2133 102.385 59.175 102.131 59.0985 101.804C59.022 101.477 58.9211 101.115 58.7959 100.719C58.6707 100.322 58.5211 99.912 58.3472 99.4876C58.1803 99.0633 58.0029 98.6667 57.815 98.2981L60.2255 97.1085C60.3994 97.505 60.5733 97.9259 60.7472 98.3711C60.9211 98.8163 61.0742 99.2754 61.2063 99.7485C61.3455 100.215 61.4568 100.684 61.5403 101.157C61.6237 101.63 61.6655 102.093 61.6655 102.545C61.6655 103.324 61.5333 103.995 61.269 104.559C61.0046 105.115 60.6359 105.575 60.1629 105.936C59.6898 106.291 59.1229 106.552 58.462 106.719C57.8081 106.893 57.0881 106.98 56.302 106.98H54.6429V104.308ZM59.975 93.5711L57.9716 95.5746L55.9785 93.5711L57.9716 91.5781L59.975 93.5711ZM66.4889 90.3781C66.6628 91.7067 66.7845 92.9763 66.8541 94.1867C66.9237 95.3902 66.9654 96.5694 66.9793 97.7241C66.9932 98.705 66.9967 99.6128 66.9897 100.448C66.9897 101.282 66.9828 102.062 66.9689 102.785C66.955 103.502 66.9341 104.173 66.9063 104.799C66.8784 105.418 66.8506 105.999 66.8228 106.542L64.0889 106.959C64.235 104.663 64.308 102.635 64.308 100.875C64.308 100.166 64.2976 99.5015 64.2767 98.8824C64.221 97.4563 64.1584 96.1172 64.0889 94.865C64.0193 93.6059 63.9254 92.4024 63.8071 91.2546L66.4889 90.3781Z" fill="#4D4D4D"/>
<path d="M78.0593 105.519C77.6906 105.519 77.3185 105.495 76.9428 105.446C76.5741 105.397 76.2193 105.317 75.8785 105.206C75.5376 105.095 75.2176 104.955 74.9185 104.788C74.6263 104.615 74.3689 104.406 74.1463 104.162C73.9306 103.919 73.7602 103.637 73.635 103.317C73.5098 102.997 73.4472 102.635 73.4472 102.232C73.4472 101.801 73.5237 101.39 73.6767 101.001C73.8298 100.611 74.035 100.246 74.2924 99.905C74.5498 99.5641 74.8489 99.2476 75.1898 98.9554C75.5306 98.6633 75.8889 98.3989 76.2646 98.1624C76.6402 97.9189 77.0193 97.7033 77.4019 97.5154C77.7915 97.3207 78.1602 97.1537 78.508 97.0146L78.3724 95.4285L81.0124 94.865C81.0193 94.9276 81.0332 95.0667 81.0541 95.2824C81.075 95.4911 81.0993 95.7415 81.1272 96.0337C81.1619 96.3259 81.1967 96.6389 81.2315 96.9728C81.2663 97.2998 81.2976 97.6094 81.3254 97.9015C81.3602 98.1867 81.388 98.4372 81.4089 98.6528C81.4298 98.8615 81.4437 98.9902 81.4506 99.0389C81.555 99.9294 81.6489 100.656 81.7324 101.22C81.8228 101.783 81.8993 102.232 81.9619 102.566C82.0246 102.893 82.0767 103.126 82.1185 103.265C82.1672 103.397 82.2019 103.484 82.2228 103.526C82.2924 103.679 82.3724 103.808 82.4628 103.912C82.5532 104.009 82.6576 104.089 82.7759 104.152C82.8941 104.208 83.0332 104.249 83.1932 104.277C83.3532 104.298 83.5411 104.308 83.7567 104.308H83.9654V106.98H83.7567C83.388 106.973 83.0402 106.959 82.7132 106.938C82.3932 106.924 82.0837 106.865 81.7846 106.761C81.4924 106.663 81.2141 106.507 80.9498 106.291C80.6854 106.075 80.435 105.762 80.1985 105.352C79.8019 105.408 79.4298 105.449 79.0819 105.477C78.7341 105.505 78.3932 105.519 78.0593 105.519ZM79.2698 102.775C79.235 102.587 79.2002 102.364 79.1654 102.107C79.1306 101.849 79.0959 101.571 79.0611 101.272C79.0263 100.966 78.988 100.649 78.9463 100.322C78.9115 99.9954 78.8732 99.6685 78.8315 99.3415C78.6506 99.4181 78.4489 99.5154 78.2263 99.6337C78.0037 99.752 77.7741 99.8841 77.5376 100.03C77.3011 100.176 77.068 100.336 76.8385 100.51C76.6159 100.677 76.4176 100.851 76.2437 101.032C76.0698 101.206 75.9272 101.383 75.8159 101.564C75.7115 101.745 75.6593 101.919 75.6593 102.086C75.6593 102.239 75.7359 102.368 75.8889 102.472C76.0419 102.569 76.2332 102.649 76.4628 102.712C76.6993 102.768 76.9532 102.809 77.2246 102.837C77.4959 102.858 77.7532 102.868 77.9967 102.868C78.2193 102.868 78.4419 102.862 78.6646 102.848C78.8872 102.827 79.0889 102.802 79.2698 102.775ZM83.5413 104.308H85.6596C86.5152 104.308 87.3778 104.225 88.2474 104.058C89.117 103.884 89.9726 103.662 90.8143 103.39C91.6561 103.112 92.4735 102.802 93.2665 102.462C94.0596 102.114 94.8074 101.766 95.51 101.418C95.2248 101.383 94.9257 101.314 94.6126 101.209C94.3065 101.098 93.99 100.973 93.663 100.834C93.3361 100.688 93.0022 100.535 92.6613 100.375C92.3204 100.215 91.9796 100.072 91.6387 99.9467C91.2978 99.8146 90.9535 99.7067 90.6057 99.6233C90.2648 99.5328 89.9309 99.4876 89.6039 99.4876C89.3465 99.4876 89.0996 99.5363 88.863 99.6337C88.6335 99.7241 88.4143 99.8424 88.2057 99.9885C88.0039 100.128 87.8196 100.281 87.6526 100.448C87.4926 100.615 87.3535 100.771 87.2352 100.917C87.1239 101.056 87.037 101.175 86.9743 101.272L86.87 101.418L84.783 100.281C85.0265 99.8215 85.3326 99.3833 85.7013 98.9659C86.077 98.5415 86.4839 98.1694 86.9222 97.8494C87.3604 97.5224 87.8091 97.265 88.2683 97.0772C88.7343 96.8824 89.1796 96.785 89.6039 96.785C89.9587 96.785 90.3135 96.8267 90.6683 96.9102C91.03 96.9867 91.3917 97.0911 91.7535 97.2233C92.1222 97.3554 92.4909 97.505 92.8596 97.672C93.2352 97.8389 93.6178 98.0094 94.0074 98.1833C94.4109 98.3781 94.8526 98.5728 95.3326 98.7676C95.8126 98.9554 96.3065 99.1259 96.8143 99.2789C97.3222 99.425 97.83 99.5467 98.3378 99.6441C98.8526 99.7346 99.343 99.7798 99.8091 99.7798L99.3604 102.326C99.0961 102.437 98.8422 102.559 98.5987 102.691C98.3552 102.816 98.1048 102.938 97.8474 103.056C97.9865 103.348 98.1952 103.578 98.4735 103.745C98.7517 103.912 99.0439 104.037 99.35 104.121C99.663 104.204 99.9622 104.256 100.247 104.277C100.54 104.298 100.769 104.308 100.936 104.308H101.353V106.98H100.936C99.5726 106.98 98.4178 106.743 97.4717 106.27C96.5257 105.797 95.8439 105.126 95.4265 104.256C94.7239 104.604 93.997 104.942 93.2457 105.268C92.4943 105.595 91.7152 105.888 90.9083 106.145C90.1013 106.395 89.2596 106.597 88.383 106.75C87.5135 106.903 86.6057 106.98 85.6596 106.98H83.5413V104.308ZM91.4613 93.425L89.4578 95.4285L87.4648 93.425L89.4578 91.432L91.4613 93.425ZM101.37 104.308C101.725 104.308 102.059 104.239 102.372 104.1C102.692 103.954 102.995 103.696 103.28 103.328C103.572 102.952 103.843 102.441 104.094 101.794C104.351 101.147 104.595 100.319 104.824 99.3102L107.381 100.03C107.214 100.608 107.064 101.164 106.932 101.7C106.8 102.228 106.727 102.684 106.713 103.067C106.713 103.102 106.713 103.133 106.713 103.161C106.713 103.286 106.723 103.418 106.744 103.557C106.772 103.696 106.817 103.825 106.88 103.943C106.942 104.062 107.026 104.155 107.13 104.225C107.228 104.288 107.335 104.319 107.454 104.319C107.468 104.319 107.481 104.319 107.495 104.319C107.753 104.312 107.996 104.218 108.226 104.037C108.455 103.856 108.668 103.623 108.862 103.338C109.064 103.053 109.245 102.729 109.405 102.368C109.572 102.006 109.718 101.641 109.843 101.272C109.975 100.896 110.087 100.531 110.177 100.176C110.268 99.8215 110.337 99.5085 110.386 99.2372L112.848 99.7381C112.758 100.155 112.685 100.542 112.629 100.896C112.574 101.244 112.539 101.595 112.525 101.95C112.518 102.041 112.515 102.131 112.515 102.222C112.515 102.395 112.525 102.601 112.546 102.837C112.574 103.067 112.633 103.293 112.723 103.515C112.814 103.738 112.939 103.922 113.099 104.068C113.266 104.208 113.481 104.277 113.746 104.277C114.045 104.277 114.285 104.162 114.466 103.933C114.654 103.696 114.796 103.397 114.894 103.035C114.991 102.674 115.054 102.274 115.081 101.835C115.116 101.39 115.134 100.959 115.134 100.542C115.134 100.409 115.13 100.305 115.123 100.228C115.123 100.145 115.123 100.068 115.123 99.9989C115.123 99.9294 115.12 99.8528 115.113 99.7694C115.113 99.6789 115.113 99.5572 115.113 99.4041L117.753 99.1954C117.774 99.425 117.795 99.6511 117.815 99.8737C117.836 100.089 117.857 100.315 117.878 100.552C117.899 100.782 117.923 101.028 117.951 101.293C117.986 101.55 118.024 101.832 118.066 102.138C118.115 102.5 118.215 102.816 118.368 103.088C118.528 103.359 118.713 103.585 118.921 103.766C119.13 103.947 119.353 104.082 119.589 104.173C119.833 104.263 120.062 104.308 120.278 104.308H120.664V106.98H120.33C119.989 106.98 119.652 106.945 119.318 106.875C118.991 106.806 118.678 106.698 118.379 106.552C118.08 106.406 117.798 106.222 117.534 105.999C117.276 105.769 117.05 105.498 116.855 105.185C116.521 105.728 116.083 106.162 115.541 106.489C114.998 106.816 114.4 106.98 113.746 106.98C113.092 106.98 112.497 106.823 111.961 106.51C111.433 106.197 111.012 105.78 110.699 105.258C110.497 105.515 110.278 105.752 110.041 105.968C109.812 106.176 109.561 106.361 109.29 106.521C109.026 106.674 108.744 106.792 108.445 106.875C108.146 106.966 107.833 107.011 107.506 107.011C107.193 107.011 106.89 106.969 106.598 106.886C106.306 106.809 106.035 106.695 105.784 106.542C105.534 106.388 105.308 106.204 105.106 105.988C104.904 105.766 104.737 105.519 104.605 105.248C104.257 105.86 103.829 106.302 103.321 106.573C102.814 106.844 102.167 106.98 101.381 106.98H100.932V104.308H101.37ZM120.244 104.308H121.924C122.251 104.308 122.585 104.291 122.926 104.256C123.274 104.215 123.587 104.135 123.865 104.016C124.144 103.891 124.37 103.714 124.544 103.484C124.724 103.255 124.815 102.948 124.815 102.566C124.815 102.385 124.777 102.131 124.7 101.804C124.624 101.477 124.523 101.115 124.397 100.719C124.272 100.322 124.123 99.912 123.949 99.4876C123.782 99.0633 123.604 98.6667 123.417 98.2981L125.827 97.1085C126.001 97.505 126.175 97.9259 126.349 98.3711C126.523 98.8163 126.676 99.2754 126.808 99.7485C126.947 100.215 127.058 100.684 127.142 101.157C127.225 101.63 127.267 102.093 127.267 102.545C127.267 103.324 127.135 103.995 126.871 104.559C126.606 105.115 126.237 105.575 125.764 105.936C125.291 106.291 124.724 106.552 124.064 106.719C123.41 106.893 122.69 106.98 121.904 106.98H120.244V104.308ZM125.577 93.5711L123.573 95.5746L121.58 93.5711L123.573 91.5781L125.577 93.5711Z" fill="#4D4D4D"/>
</svg>
