<svg width="48" height="49" viewBox="0 0 48 49" fill="none" xmlns="http://www.w3.org/2000/svg">
<path d="M20.2488 13.5166L22.7646 14.0845C19.5439 14.4647 16.7721 16.3082 15.1209 18.9302L15.694 16.3934C15.8042 15.9054 16.0094 15.4439 16.2979 15.0352C16.5864 14.6266 16.9526 14.2787 17.3756 14.0116C17.7985 13.7445 18.2699 13.5633 18.7629 13.4783C19.2559 13.3934 19.7608 13.4064 20.2488 13.5166Z" fill="#808080"/>
<path d="M13.0167 28.2513L13.5846 25.7354C13.9647 28.9562 15.8083 31.7273 18.4303 33.3791L15.8934 32.806C15.4055 32.6958 14.944 32.4906 14.5353 32.2021C14.1266 31.9136 13.7788 31.5474 13.5117 31.1245C13.2445 30.7015 13.0633 30.2301 12.9784 29.7371C12.8935 29.2441 12.9065 28.7392 13.0167 28.2513Z" fill="#808080"/>
<path d="M29.5699 15.6208L32.1067 16.194C33.0921 16.4164 33.9488 17.0212 34.4883 17.8753C35.0277 18.7293 35.2059 19.7627 34.9835 20.7481L34.4156 23.2639C34.0354 20.0438 32.1918 17.272 29.5699 15.6208Z" fill="#808080"/>
<path d="M27.7514 35.4833L25.2355 34.9154C28.4563 34.5353 31.2281 32.6917 32.8793 30.0698L32.3061 32.6066C32.196 33.0945 31.9908 33.556 31.7023 33.9647C31.4137 34.3734 31.0476 34.7212 30.6246 34.9883C30.2016 35.2555 29.7302 35.4367 29.2372 35.5216C28.7442 35.6065 28.2393 35.5935 27.7514 35.4833Z" fill="#808080"/>
<path fill-rule="evenodd" clip-rule="evenodd" d="M14.6714 24.5C14.6714 19.3476 18.8477 15.1713 24.0001 15.1713C29.1524 15.1713 33.3288 19.3476 33.3288 24.5C33.3288 29.6523 29.1524 33.8286 24.0001 33.8286C18.8477 33.8286 14.6714 29.6523 14.6714 24.5ZM23.317 18.7696C22.8796 18.3322 22.2864 18.0865 21.6679 18.0865C21.0494 18.0865 20.4562 18.3322 20.0188 18.7696C19.5814 19.207 19.3357 19.8002 19.3357 20.4187C19.3357 21.0372 19.5814 21.6304 20.0188 22.0678C20.4562 22.5051 21.0494 22.7508 21.6679 22.7508C22.2864 22.7508 22.8796 22.5051 23.317 22.0678C23.7544 21.6304 24.0001 21.0372 24.0001 20.4187C24.0001 19.8002 23.7544 19.207 23.317 18.7696ZM18.2697 28.4812C18.707 28.9186 19.3002 29.1643 19.9188 29.1643C20.5373 29.1643 21.1305 28.9186 21.5679 28.4812C22.0052 28.0439 22.2509 27.4507 22.2509 26.8321C22.2509 26.2136 22.0052 25.6204 21.5679 25.183C21.1305 24.7457 20.5373 24.5 19.9188 24.5C19.3002 24.5 18.707 24.7457 18.2697 25.183C17.8323 25.6204 17.5866 26.2136 17.5866 26.8321C17.5866 27.4507 17.8323 28.0439 18.2697 28.4812ZM22.915 24.0458C22.858 24.1903 22.8305 24.3447 22.834 24.5C22.8409 24.8046 22.9668 25.0945 23.1847 25.3075C23.4027 25.5205 23.6953 25.6398 24.0001 25.6397C24.3048 25.6396 24.5974 25.5202 24.8153 25.3071C25.0331 25.094 25.1588 24.8041 25.1656 24.4994C25.169 24.3441 25.1414 24.1897 25.0843 24.0452C25.0273 23.9008 24.9419 23.7691 24.8333 23.6581C24.7247 23.5471 24.595 23.4589 24.4518 23.3987C24.3086 23.3385 24.1548 23.3075 23.9995 23.3075C23.8442 23.3076 23.6904 23.3386 23.5473 23.3989C23.4041 23.4592 23.2744 23.5475 23.1659 23.6585C23.0573 23.7696 22.972 23.9013 22.915 24.0458ZM24.6832 30.2303C25.1205 30.6677 25.7137 30.9134 26.3323 30.9134C26.9508 30.9134 27.544 30.6677 27.9814 30.2303C28.4187 29.793 28.6644 29.1998 28.6644 28.5813C28.6644 27.9627 28.4187 27.3695 27.9814 26.9322C27.544 26.4948 26.9508 26.2491 26.3323 26.2491C25.7137 26.2491 25.1205 26.4948 24.6832 26.9322C24.2458 27.3695 24.0001 27.9627 24.0001 28.5813C24.0001 29.1998 24.2458 29.793 24.6832 30.2303ZM26.4323 23.8169C26.8697 24.2543 27.4629 24.5 28.0814 24.5C28.6999 24.5 29.2931 24.2543 29.7305 23.8169C30.1679 23.3795 30.4136 22.7863 30.4136 22.1678C30.4136 21.5493 30.1679 20.9561 29.7305 20.5187C29.2931 20.0813 28.6999 19.8356 28.0814 19.8356C27.4629 19.8356 26.8697 20.0813 26.4323 20.5187C25.9949 20.9561 25.7492 21.5493 25.7492 22.1678C25.7492 22.7863 25.9949 23.3795 26.4323 23.8169Z" fill="#808080"/>
<path fill-rule="evenodd" clip-rule="evenodd" d="M24 48.5C37.2548 48.5 48 37.7548 48 24.5C48 11.2452 37.2548 0.5 24 0.5C10.7452 0.5 0 11.2452 0 24.5C0 37.7548 10.7452 48.5 24 48.5ZM46.1538 24.5C46.1538 36.7352 36.2352 46.6538 24 46.6538C11.7648 46.6538 1.84615 36.7352 1.84615 24.5C1.84615 12.2648 11.7648 2.34615 24 2.34615C36.2352 2.34615 46.1538 12.2648 46.1538 24.5Z" fill="#808080"/>
</svg>
