<svg width="320" height="78" viewBox="0 0 320 78" fill="none" xmlns="http://www.w3.org/2000/svg">
<path d="M48.9896 45.8131C49.6213 45.8131 49.9372 46.1019 49.9372 46.6795V58.0295C49.9372 58.6071 49.6213 58.8959 48.9896 58.8959H45.0098C42.2934 58.8959 39.8297 58.376 37.6187 57.3363C35.4709 56.2966 33.7021 54.8526 32.3123 53.0043C29.0274 55.1992 25.2371 56.2966 20.9414 56.2966C17.1511 56.2966 13.6451 55.4591 10.4233 53.7841C7.26474 52.0512 4.73788 49.7408 2.84273 46.8528C0.947575 43.907 0 40.7302 0 37.3223C0 33.9722 0.947575 30.9398 2.84273 28.225C4.73788 25.4525 7.26474 23.2865 10.4233 21.727C13.6451 20.1097 17.1511 19.301 20.9414 19.301H27.1954V13.756H40.651V41.741C40.651 42.8962 41.0616 43.8781 41.8828 44.6868C42.704 45.4377 43.7464 45.8131 45.0098 45.8131H48.9896ZM27.1954 31.7773H20.9414C19.1094 31.7773 17.5617 32.2972 16.2983 33.3368C15.098 34.3765 14.4979 35.705 14.4979 37.3223C14.4979 38.9974 15.098 40.4125 16.2983 41.5677C17.5617 42.6652 19.1094 43.2139 20.9414 43.2139C22.7102 43.2139 24.1947 42.6652 25.395 41.5677C26.5953 40.4125 27.1954 38.9974 27.1954 37.3223V31.7773Z" fill="#808080"/>
<path d="M48.9511 58.8959C48.3194 58.8959 48.0036 58.6071 48.0036 58.0295V46.6795C48.0036 46.1019 48.3194 45.8131 48.9511 45.8131H68.6607C73.5881 45.8131 77.6942 44.4269 80.9792 41.6544L90.1707 34.03L76.9994 28.225C75.7359 27.763 74.7883 27.5319 74.1566 27.5319C73.3354 27.5319 72.5142 27.7052 71.6929 28.0518C70.8717 28.3983 70.2084 28.8604 69.703 29.438L60.9853 38.2754L51.5096 30.651L60.2273 20.9472C62.0593 19.0411 64.1755 17.626 66.576 16.7018C69.0397 15.7199 71.535 15.2289 74.0619 15.2289C75.8307 15.2289 77.3152 15.4311 78.5155 15.8354C79.7789 16.182 81.0424 16.6441 82.3058 17.2217L102.679 25.8857C103.247 26.059 103.753 26.1457 104.195 26.1457H114.334V38.2754H103.437L101.731 39.6616V41.741C101.731 42.8962 102.142 43.8781 102.963 44.6868C103.847 45.4377 104.921 45.8131 106.185 45.8131H117.082C117.714 45.8131 118.029 46.1019 118.029 46.6795V58.0295C118.029 58.6071 117.714 58.8959 117.082 58.8959H106.185C102.458 58.8959 99.3305 57.9428 96.8037 56.0367C94.34 54.1306 92.6659 51.618 91.7815 48.499L88.465 51.3581C85.5591 53.8418 82.211 55.719 78.4207 56.9898C74.6304 58.2605 70.7138 58.8959 66.6708 58.8959H48.9511ZM65.2925 66.2603H77.5162V77.3503H65.2925V66.2603ZM82.3489 66.2603H94.4778V77.3503H82.3489V66.2603ZM48.1672 66.41H60.2962V77.5H48.1672V66.41Z" fill="#808080"/>
<path d="M117.058 58.8959C116.426 58.8959 116.111 58.6071 116.111 58.0295V46.6795C116.111 46.1019 116.426 45.8131 117.058 45.8131H121.038C122.301 45.8131 123.344 45.4377 124.165 44.6868C125.049 43.8781 125.492 42.8962 125.492 41.741V0.5H139.042V41.741C139.042 42.8962 139.452 43.8781 140.274 44.6868C141.095 45.4377 142.137 45.8131 143.401 45.8131H147.475C148.107 45.8131 148.423 46.1019 148.423 46.6795V58.0295C148.423 58.6071 148.107 58.8959 147.475 58.8959H143.401C141 58.8959 138.852 58.4627 136.957 57.5963C135.062 56.7299 133.483 55.5458 132.219 54.044C131.019 55.5458 129.44 56.7299 127.481 57.5963C125.586 58.4627 123.438 58.8959 121.038 58.8959H117.058Z" fill="#808080"/>
<path d="M146.555 46.6795C146.555 46.1019 146.871 45.8131 147.503 45.8131H153.662C154.925 45.8131 155.968 45.4377 156.789 44.6868C157.61 43.8781 158.021 42.8962 158.021 41.741V26.5789H171.666V41.741C171.666 42.8962 172.076 43.8781 172.898 44.6868C173.719 45.4377 174.761 45.8131 176.025 45.8131H182.184C182.816 45.8131 183.131 46.1019 183.131 46.6795V58.0295C183.131 58.6071 182.816 58.8959 182.184 58.8959H176.025C171.35 58.8959 167.623 57.4807 164.843 54.6505C161.937 57.4807 158.21 58.8959 153.662 58.8959H147.503C146.871 58.8959 146.555 58.6071 146.555 58.0295V46.6795ZM137.382 66.347H149.511V77.437H137.382V66.347ZM154.439 66.347H166.662V77.437H154.439V66.347Z" fill="#808080"/>
<path d="M182.204 58.8959C181.572 58.8959 181.256 58.6071 181.256 58.0295V46.6795C181.256 46.1019 181.572 45.8131 182.204 45.8131H194.996C195.628 45.8131 195.944 46.1019 195.944 46.6795V58.0295C195.944 58.6071 195.628 58.8959 194.996 58.8959H182.204Z" fill="#808080"/>
<path d="M194.974 58.8959C194.342 58.8959 194.026 58.6071 194.026 58.0295V46.6795C194.026 46.1019 194.342 45.8131 194.974 45.8131H200.091C201.291 45.8131 202.302 45.4088 203.123 44.6001C204.007 43.7915 204.45 42.8384 204.45 41.741V23.9796H218V42.5208C218 45.4666 217.21 48.2102 215.631 50.7516C214.052 53.2353 211.904 55.2281 209.188 56.7298C206.471 58.1739 203.471 58.8959 200.186 58.8959H194.974ZM182.106 66.2603H194.329V77.3503H182.106V66.2603Z" fill="#808080"/>
<path fill-rule="evenodd" clip-rule="evenodd" d="M281 77.5C289.45 77.5 320 60.6703 320 39.4662L319.851 6.08931C319.835 2.62295 316.877 -0.000559866 313.64 0.581003L289.988 4.83045C288.587 5.0822 287.339 5.91455 286.517 7.13859C285.241 9.0392 283.628 11.4287 283.363 11.8206C283.338 11.8578 283.313 11.895 283.286 11.9309C282.389 13.1347 281 13.1347 281 13.1347C281 13.1347 279.663 13.1347 278.766 11.9985C278.703 11.9187 278.647 11.8337 278.592 11.7475C278.195 11.125 276.426 8.37953 274.934 6.48713C274.259 5.63021 273.288 5.12346 272.247 4.93542L248.215 0.593479C244.967 0.00657418 242 2.64817 242 6.12742V39.4662C242 60.6703 272.55 77.5 281 77.5ZM272.055 31.6164C272.545 31.6164 272.941 32.0354 272.941 32.5522C272.941 34.0635 273.742 35.5154 275.195 36.625C276.646 37.7338 278.696 38.4485 281 38.4485C283.304 38.4485 285.354 37.7338 286.805 36.625C288.258 35.5154 289.059 34.0635 289.059 32.5522C289.059 32.0354 289.455 31.6164 289.945 31.6164C290.434 31.6164 290.831 32.0354 290.831 32.5522C290.831 34.8141 289.629 36.7782 287.845 38.1413C286.059 39.5052 283.636 40.32 281 40.32C278.364 40.32 275.941 39.5052 274.155 38.1413C272.371 36.7782 271.169 34.8141 271.169 32.5522C271.169 32.0354 271.566 31.6164 272.055 31.6164ZM288.872 6.6622C287.44 6.67269 286.584 9.01265 286.584 9.01265L314.536 3.97849C315.577 3.97849 316.42 4.82664 316.42 5.87288V39.2315C316.42 48.747 309.484 57.3621 301.588 63.5987C297.64 66.7168 293.452 69.2401 289.772 70.9839C286.092 72.7273 282.919 73.6919 281 73.6919C279.081 73.6919 275.907 72.7273 272.228 70.9839C268.548 69.2401 264.36 66.7168 260.412 63.5987C252.515 57.3621 245.58 48.747 245.58 39.2315V5.87288C245.58 4.82664 246.423 3.97849 247.464 3.97849L275.099 9.01265C275.099 9.01265 274.381 6.6622 272.95 6.6622C262.608 4.69624 247.464 2.08411 247.464 2.08411C245.383 2.08411 243.696 3.7804 243.696 5.87288V39.2315C243.696 49.6511 251.23 58.7557 259.248 65.0885C263.31 68.2964 267.619 70.8943 271.425 72.6975C275.148 74.4615 278.64 75.5863 281 75.5863C283.359 75.5863 286.852 74.4615 290.575 72.6975C294.381 70.8943 298.69 68.2964 302.752 65.0885C310.77 58.7557 318.304 49.6511 318.304 39.2315V5.87288C318.304 3.7804 316.617 2.08411 314.536 2.08411C314.536 2.08411 299.337 4.69624 288.872 6.6622ZM251.326 48.8404C251.326 48.8404 251.133 48.4328 251.661 48.194C252.188 47.9552 252.38 48.3624 252.38 48.3624L252.382 48.3652C252.422 48.4528 252.469 48.538 252.515 48.6227L252.527 48.6456L252.548 48.6829C252.664 48.8981 252.844 49.2157 253.09 49.6189C253.583 50.4253 254.345 51.5732 255.415 52.9265C257.556 55.6334 260.926 59.1593 265.837 62.4195C269.829 65.0696 272.916 66.7213 274.997 67.7083C276.038 68.2018 276.828 68.5291 277.353 68.732C277.616 68.8335 277.813 68.9038 277.942 68.9482C278.007 68.9704 278.055 68.9862 278.086 68.9961L278.107 69.0028L278.119 69.0067L278.127 69.0091C278.127 69.0091 278.679 69.2309 278.495 69.7586C278.312 70.2863 277.759 70.0643 277.759 70.0643L277.753 70.0627L277.741 70.0588C277.731 70.0556 277.716 70.051 277.697 70.0449C277.659 70.0327 277.604 70.0146 277.533 69.99C277.389 69.9407 277.179 69.8654 276.902 69.7586C276.349 69.5452 275.533 69.2064 274.467 68.7007C272.333 67.6893 269.199 66.0103 265.163 63.3313C260.137 59.9949 256.684 56.3837 254.485 53.6026C253.385 52.2119 252.599 51.0281 252.086 50.1888C251.829 49.7691 251.641 49.4354 251.516 49.2049C251.453 49.0897 251.407 49.0002 251.375 48.9387C251.359 48.9079 251.347 48.8841 251.339 48.8676L251.33 48.8482L251.327 48.8427L251.326 48.8404ZM249.201 45.0878C249.021 44.7209 249.156 44.269 249.504 44.0784C249.851 43.8879 250.279 44.0308 250.46 44.3977L251.207 45.9171C251.388 46.284 251.253 46.7359 250.905 46.9264C250.557 47.117 250.129 46.9741 249.949 46.6072L249.201 45.0878ZM278.87 10.266C279.711 11.6113 281.58 11.6113 282.421 10.266L285.838 4.79927C286.771 3.30616 285.757 1.31668 284.062 1.31667L277.229 1.31667C275.534 1.31667 274.52 3.30616 275.453 4.79926L278.87 10.266Z" fill="#808080"/>
</svg>
