<svg width="204" height="133" viewBox="0 0 204 133" fill="none" xmlns="http://www.w3.org/2000/svg">
<rect x="0.5" y="1.16675" width="203" height="131" rx="7.5" fill="#27AE60" stroke="#B3B3B3"/>
<path d="M40.1915 80.0702C40.5421 80.0702 40.7174 80.2427 40.7174 80.5878V87.3682C40.7174 87.7133 40.5421 87.8858 40.1915 87.8858H37.9825C36.4748 87.8858 35.1073 87.5753 33.8801 86.9542C32.688 86.3331 31.7062 85.4704 30.9348 84.3662C29.1115 85.6774 27.0077 86.3331 24.6234 86.3331C22.5197 86.3331 20.5736 85.8327 18.7854 84.832C17.0323 83.7968 15.6297 82.4166 14.5778 80.6913C13.5259 78.9315 13 77.0336 13 74.9977C13 72.9964 13.5259 71.1848 14.5778 69.563C15.6297 67.9067 17.0323 66.6127 18.7854 65.6811C20.5736 64.7149 22.5197 64.2318 24.6234 64.2318H28.0947V60.9192H35.5632V77.6375C35.5632 78.3276 35.7911 78.9142 36.2469 79.3973C36.7027 79.8459 37.2812 80.0702 37.9825 80.0702H40.1915ZM28.0947 71.6851H24.6234C23.6066 71.6851 22.7476 71.9957 22.0463 72.6168C21.3801 73.2379 21.047 74.0316 21.047 74.9977C21.047 75.9984 21.3801 76.8438 22.0463 77.534C22.7476 78.1896 23.6066 78.5174 24.6234 78.5174C25.6052 78.5174 26.4292 78.1896 27.0954 77.534C27.7616 76.8438 28.0947 75.9984 28.0947 74.9977V71.6851Z" fill="white"/>
<path d="M40.1701 87.8858C39.8195 87.8858 39.6442 87.7133 39.6442 87.3682V80.5878C39.6442 80.2427 39.8195 80.0702 40.1701 80.0702H51.1098C53.8448 80.0702 56.1239 79.242 57.9472 77.5857L63.0488 73.0309L55.7382 69.563C55.0369 69.287 54.511 69.1489 54.1603 69.1489C53.7045 69.1489 53.2487 69.2525 52.7929 69.4595C52.337 69.6665 51.9689 69.9426 51.6884 70.2876L46.8497 75.5671L41.5902 71.0123L46.4289 65.2152C47.4457 64.0765 48.6203 63.2311 49.9527 62.679C51.3202 62.0924 52.7052 61.7991 54.1077 61.7991C55.0895 61.7991 55.9135 61.9199 56.5797 62.1614C57.281 62.3685 57.9822 62.6445 58.6835 62.9896L69.9914 68.1655C70.3069 68.269 70.5874 68.3208 70.8329 68.3208H76.4605V75.5671H70.4121L69.4654 76.3953V77.6375C69.4654 78.3276 69.6933 78.9142 70.1491 79.3973C70.64 79.8459 71.2361 80.0702 71.9374 80.0702H77.9858C78.3364 80.0702 78.5117 80.2427 78.5117 80.5878V87.3682C78.5117 87.7133 78.3364 87.8858 77.9858 87.8858H71.9374C69.8686 87.8858 68.133 87.3165 66.7305 86.1778C65.363 85.0391 64.4338 83.5381 63.943 81.6747L62.1021 83.3828C60.4892 84.8665 58.6309 85.988 56.5271 86.7471C54.4233 87.5063 52.2494 87.8858 50.0053 87.8858H40.1701ZM49.2403 92.2854H56.0251V98.9106H49.2403V92.2854ZM58.7074 92.2854H65.4395V98.9106H58.7074V92.2854ZM39.735 92.3748H46.4672V99H39.735V92.3748Z" fill="white"/>
<path d="M77.9726 87.8858C77.622 87.8858 77.4467 87.7133 77.4467 87.3682V80.5878C77.4467 80.2427 77.622 80.0702 77.9726 80.0702H80.1816C80.8829 80.0702 81.4614 79.8459 81.9172 79.3973C82.4081 78.9142 82.6535 78.3276 82.6535 77.6375V53H90.1746V77.6375C90.1746 78.3276 90.4025 78.9142 90.8583 79.3973C91.3142 79.8459 91.8927 80.0702 92.594 80.0702H94.8555C95.2062 80.0702 95.3815 80.2427 95.3815 80.5878V87.3682C95.3815 87.7133 95.2062 87.8858 94.8555 87.8858H92.594C91.2616 87.8858 90.0694 87.627 89.0175 87.1095C87.9656 86.5919 87.089 85.8845 86.3878 84.9873C85.7216 85.8845 84.845 86.5919 83.758 87.1095C82.7061 87.627 81.514 87.8858 80.1816 87.8858H77.9726Z" fill="white"/>
<path d="M94.3448 80.5878C94.3448 80.2427 94.5201 80.0702 94.8707 80.0702H98.2894C98.9907 80.0702 99.5692 79.8459 100.025 79.3973C100.481 78.9142 100.709 78.3276 100.709 77.6375V68.5796H108.282V77.6375C108.282 78.3276 108.51 78.9142 108.966 79.3973C109.422 79.8459 110 80.0702 110.702 80.0702H114.12C114.471 80.0702 114.646 80.2427 114.646 80.5878V87.3682C114.646 87.7133 114.471 87.8858 114.12 87.8858H110.702C108.107 87.8858 106.038 87.0404 104.496 85.3496C102.883 87.0404 100.814 87.8858 98.2894 87.8858H94.8707C94.5201 87.8858 94.3448 87.7133 94.3448 87.3682V80.5878ZM89.2535 92.3372H95.9857V98.9624H89.2535V92.3372ZM98.7206 92.3372H105.505V98.9624H98.7206V92.3372Z" fill="white"/>
<path d="M114.132 87.8858C113.781 87.8858 113.606 87.7133 113.606 87.3682V80.5878C113.606 80.2427 113.781 80.0702 114.132 80.0702H121.232C121.582 80.0702 121.758 80.2427 121.758 80.5878V87.3682C121.758 87.7133 121.582 87.8858 121.232 87.8858H114.132Z" fill="white"/>
<path d="M121.219 87.8858C120.869 87.8858 120.694 87.7133 120.694 87.3682V80.5878C120.694 80.2427 120.869 80.0702 121.219 80.0702H124.06C124.726 80.0702 125.287 79.8286 125.743 79.3455C126.234 78.8625 126.479 78.2931 126.479 77.6375V67.0268H134V78.1033C134 79.8631 133.562 81.5022 132.685 83.0205C131.809 84.5042 130.616 85.6947 129.109 86.5919C127.601 87.4545 125.935 87.8858 124.112 87.8858H121.219ZM114.077 92.2854H120.862V98.9106H114.077V92.2854Z" fill="white"/>
<path fill-rule="evenodd" clip-rule="evenodd" d="M169 99C173.983 99 192 88.9459 192 76.2785L191.912 56.3391C191.903 54.2683 190.158 52.701 188.249 53.0484L174.301 55.587C173.474 55.7374 172.739 56.2347 172.254 56.9659C171.501 58.1013 170.55 59.5288 170.394 59.763C170.379 59.7852 170.364 59.8074 170.348 59.8288C169.819 60.548 169 60.548 169 60.548C169 60.548 168.212 60.548 167.683 59.8693C167.645 59.8216 167.613 59.7708 167.58 59.7193C167.346 59.3474 166.302 57.7073 165.423 56.5767C165.025 56.0648 164.452 55.7621 163.838 55.6497L149.665 53.0558C147.75 52.7052 146 54.2833 146 56.3618V76.2785C146 88.9459 164.017 99 169 99ZM163.725 71.589C164.013 71.589 164.247 71.8393 164.247 72.148C164.247 73.0509 164.72 73.9183 165.576 74.5812C166.432 75.2436 167.641 75.6705 169 75.6705C170.359 75.6705 171.568 75.2436 172.424 74.5812C173.281 73.9183 173.753 73.0509 173.753 72.148C173.753 71.8393 173.987 71.589 174.275 71.589C174.564 71.589 174.798 71.8393 174.798 72.148C174.798 73.4993 174.089 74.6727 173.037 75.487C171.983 76.3018 170.555 76.7885 169 76.7885C167.445 76.7885 166.017 76.3018 164.963 75.487C163.911 74.6727 163.202 73.4993 163.202 72.148C163.202 71.8393 163.436 71.589 163.725 71.589ZM173.642 56.6813C172.798 56.6876 172.293 58.0855 172.293 58.0855L188.778 55.0781C189.391 55.0781 189.889 55.5847 189.889 56.2098V76.1383C189.889 81.8229 185.799 86.9696 181.142 90.6953C178.813 92.5581 176.344 94.0655 174.173 95.1072C172.003 96.1488 170.132 96.7251 169 96.7251C167.868 96.7251 165.997 96.1488 163.827 95.1073C161.656 94.0655 159.187 92.5581 156.858 90.6953C152.201 86.9696 148.111 81.8229 148.111 76.1383V56.2098C148.111 55.5847 148.609 55.0781 149.222 55.0781L165.52 58.0855C165.52 58.0855 165.096 56.6813 164.252 56.6813C158.153 55.5068 149.222 53.9463 149.222 53.9463C147.995 53.9463 147 54.9597 147 56.2098V76.1383C147 82.363 151.443 87.8021 156.172 91.5853C158.567 93.5017 161.109 95.0537 163.353 96.131C165.549 97.1848 167.608 97.8568 169 97.8568C170.391 97.8568 172.451 97.1848 174.647 96.131C176.891 95.0537 179.433 93.5017 181.828 91.5853C186.557 87.8021 191 82.363 191 76.1383V56.2098C191 54.9597 190.005 53.9463 188.778 53.9463C188.778 53.9463 179.814 55.5068 173.642 56.6813ZM151.5 81.8787C151.5 81.8787 151.386 81.6352 151.697 81.4925C152.008 81.3498 152.122 81.5931 152.122 81.5931L152.123 81.5948C152.146 81.6471 152.174 81.698 152.201 81.7486L152.208 81.7623L152.22 81.7846C152.289 81.9131 152.395 82.1029 152.54 82.3438C152.831 82.8255 153.28 83.5112 153.912 84.3197C155.174 85.9368 157.161 88.0432 160.058 89.9909C162.412 91.574 164.232 92.5608 165.46 93.1504C166.074 93.4452 166.539 93.6408 166.849 93.762C167.004 93.8226 167.121 93.8646 167.197 93.8911C167.235 93.9044 167.263 93.9138 167.281 93.9198L167.294 93.9237L167.301 93.9261L167.306 93.9275C167.306 93.9275 167.631 94.06 167.523 94.3753C167.415 94.6905 167.089 94.5579 167.089 94.5579L167.085 94.5569L167.078 94.5546C167.072 94.5527 167.063 94.5499 167.052 94.5463C167.03 94.539 166.998 94.5282 166.955 94.5135C166.871 94.4841 166.746 94.439 166.583 94.3753C166.257 94.2478 165.776 94.0454 165.147 93.7433C163.889 93.139 162.04 92.136 159.66 90.5356C156.696 88.5424 154.66 86.385 153.363 84.7236C152.714 83.8928 152.251 83.1856 151.948 82.6842C151.797 82.4335 151.686 82.2341 151.612 82.0964C151.575 82.0276 151.547 81.9741 151.529 81.9374C151.52 81.919 151.513 81.9048 151.508 81.8949L151.502 81.8834L151.5 81.8801L151.5 81.8787ZM150.247 79.6369C150.141 79.4177 150.22 79.1477 150.425 79.0339C150.63 78.92 150.883 79.0054 150.989 79.2246L151.43 80.1323C151.536 80.3515 151.457 80.6214 151.252 80.7353C151.047 80.8491 150.794 80.7637 150.688 80.5446L150.247 79.6369ZM167.744 58.8343C168.24 59.6379 169.342 59.6379 169.838 58.8343L171.853 55.5684C172.403 54.6764 171.805 53.4879 170.806 53.4879L166.776 53.4879C165.777 53.4879 165.178 54.6764 165.729 55.5684L167.744 58.8343Z" fill="white"/>
<path d="M92.6335 30.5826C92.7262 30.8748 92.8213 31.1809 92.9187 31.5009C93.0207 31.8162 93.1111 32.1362 93.19 32.4609C93.2735 32.7855 93.3407 33.1101 93.3917 33.4348C93.4427 33.7548 93.4682 34.0678 93.4682 34.3739C93.4682 34.7913 93.4033 35.1971 93.2735 35.5913C93.1482 35.9901 92.972 36.3728 92.7448 36.7391C92.5221 37.1101 92.2555 37.4626 91.9448 37.7965C91.6387 38.1304 91.3048 38.4458 90.943 38.7426C90.5813 39.0394 90.1987 39.3154 89.7952 39.5704C89.3917 39.8255 88.9836 40.0551 88.5708 40.2591L87.7778 38.6661C88.1071 38.5038 88.4317 38.3229 88.7517 38.1235C89.0717 37.9287 89.3755 37.72 89.663 37.4974C89.9552 37.2748 90.2242 37.0406 90.47 36.7948C90.7204 36.549 90.9337 36.2939 91.11 36.0296C91.2908 35.7652 91.4323 35.4939 91.5343 35.2157C91.6363 34.9374 91.6874 34.6568 91.6874 34.3739C91.6874 34.1096 91.6572 33.8313 91.5969 33.5391C91.5366 33.247 91.4624 32.9594 91.3743 32.6765C91.2908 32.389 91.2027 32.113 91.11 31.8487C91.0219 31.5843 90.9477 31.3501 90.8874 31.1461L92.6335 30.5826ZM92.8491 27.6191L91.5135 28.9548L90.1848 27.6191L91.5135 26.2904L92.8491 27.6191ZM96.6332 24.1409C96.7491 25.0267 96.8303 25.873 96.8767 26.68C96.9231 27.4823 96.9509 28.2684 96.9602 29.0383C96.9694 29.6922 96.9718 30.2974 96.9671 30.8539C96.9671 31.4104 96.9625 31.9299 96.9532 32.4122C96.9439 32.8899 96.93 33.3374 96.9115 33.7548C96.8929 34.1675 96.8744 34.5548 96.8558 34.9165L95.0332 35.1948C95.1306 33.6643 95.1793 32.3125 95.1793 31.1391C95.1793 30.6661 95.1723 30.2232 95.1584 29.8104C95.1213 28.8597 95.0796 27.967 95.0332 27.1322C94.9868 26.2928 94.9242 25.4904 94.8454 24.7252L96.6332 24.1409ZM103.09 40.2939L102.825 33.6435C102.825 33.611 102.828 33.5391 102.832 33.4278C102.837 33.3119 102.858 33.1797 102.895 33.0313C102.937 32.8829 103.001 32.7275 103.09 32.5652C103.178 32.4029 103.305 32.2591 103.472 32.1339C103.532 32.0736 103.616 32.0203 103.723 31.9739C103.829 31.9275 103.945 31.8928 104.07 31.8696C104.196 31.8464 104.323 31.8348 104.453 31.8348C104.583 31.8301 104.701 31.8417 104.808 31.8696C104.891 31.647 104.986 31.4197 105.093 31.1878C105.204 30.9513 105.327 30.7241 105.462 30.5061C105.601 30.2881 105.752 30.0841 105.914 29.8939C106.081 29.6991 106.262 29.5299 106.457 29.3861C106.651 29.2423 106.86 29.131 107.083 29.0522C107.291 28.978 107.516 28.9409 107.757 28.9409C107.771 28.9409 107.785 28.9409 107.799 28.9409C108.23 28.9409 108.592 29.022 108.884 29.1843C109.181 29.342 109.427 29.5577 109.622 29.8313C109.821 30.1003 109.979 30.4157 110.095 30.7774C110.211 31.1391 110.308 31.5241 110.387 31.9322C110.433 32.1687 110.477 32.3797 110.519 32.5652C110.561 32.7461 110.607 32.9014 110.658 33.0313C110.714 33.1612 110.772 33.2609 110.832 33.3304C110.897 33.3954 110.974 33.4278 111.062 33.4278H111.277V35.2087H111.013C110.758 35.2041 110.531 35.1345 110.331 35C110.137 34.8609 109.956 34.6777 109.789 34.4504C109.738 34.4968 109.677 34.5478 109.608 34.6035C109.543 34.6591 109.473 34.7148 109.399 34.7704C109.325 34.8214 109.248 34.8655 109.17 34.9026C109.091 34.9397 109.014 34.9652 108.94 34.9791C108.903 34.9838 108.861 34.9861 108.815 34.9861C108.717 34.9861 108.583 34.9722 108.411 34.9443C108.24 34.9119 108.024 34.8609 107.764 34.7913C107.505 34.7171 107.226 34.6313 106.93 34.5339C106.633 34.4365 106.338 34.3391 106.046 34.2417C105.754 34.1397 105.473 34.0423 105.204 33.9496C104.935 33.8522 104.699 33.771 104.495 33.7061L104.85 40.0157L103.09 40.2939ZM106.589 31.6817C106.528 31.7977 106.473 31.9136 106.422 32.0296C106.375 32.1455 106.329 32.2568 106.283 32.3635C106.436 32.4284 106.633 32.5096 106.874 32.607C107.115 32.7043 107.375 32.8017 107.653 32.8991C107.931 32.9965 108.212 33.0846 108.495 33.1635C108.782 33.2377 109.044 33.2841 109.281 33.3026C109.235 33.1078 109.188 32.9061 109.142 32.6974C109.095 32.4887 109.044 32.287 108.989 32.0922C108.933 31.8974 108.868 31.7142 108.794 31.5426C108.72 31.3664 108.632 31.2157 108.53 31.0904C108.432 30.9652 108.319 30.8701 108.189 30.8052C108.082 30.7496 107.961 30.7217 107.827 30.7217C107.799 30.7217 107.769 30.7241 107.737 30.7287C107.676 30.7333 107.597 30.7542 107.5 30.7913C107.407 30.8284 107.308 30.8841 107.201 30.9583C107.094 31.0325 106.985 31.1299 106.874 31.2504C106.767 31.3664 106.672 31.5101 106.589 31.6817ZM117.207 33.4278V35.2087H117.068C116.618 35.2087 116.237 35.1368 115.927 34.993C115.616 34.8493 115.352 34.6638 115.134 34.4365C114.981 34.6313 114.753 34.782 114.452 34.8887C114.155 34.9907 113.824 35.0649 113.457 35.1113C113.091 35.1623 112.713 35.1901 112.323 35.1948C111.938 35.2041 111.584 35.2087 111.259 35.2087H111.001V33.4278H111.259C111.801 33.4278 112.258 33.3977 112.629 33.3374C113 33.2725 113.299 33.1797 113.527 33.0591C113.759 32.9386 113.926 32.7878 114.028 32.607C114.13 32.4214 114.181 32.2081 114.181 31.967C114.181 31.8093 114.15 31.6006 114.09 31.3409C114.03 31.0765 113.939 30.738 113.819 30.3252L115.53 29.8452C115.59 30.0493 115.637 30.2301 115.669 30.3878C115.706 30.5409 115.734 30.6962 115.753 30.8539C115.776 31.007 115.795 31.1739 115.808 31.3548C115.827 31.531 115.846 31.742 115.864 31.9878C115.878 32.1362 115.913 32.2962 115.968 32.4678C116.024 32.6348 116.101 32.7901 116.198 32.9339C116.3 33.073 116.423 33.1913 116.567 33.2887C116.71 33.3814 116.877 33.4278 117.068 33.4278H117.207ZM113.589 37.2678L112.407 38.4504L111.21 37.2609L112.393 36.0713L113.589 37.2678ZM116.219 37.2748L115.036 38.4643L113.84 37.2678L115.022 36.0852L116.219 37.2748ZM116.923 33.4278H117.062C117.364 33.4278 117.663 33.4278 117.96 33.4278C118.261 33.4278 118.516 33.4162 118.725 33.393C118.632 33.3328 118.53 33.247 118.419 33.1357C118.308 33.0197 118.203 32.8852 118.106 32.7322C118.013 32.5745 117.932 32.3983 117.863 32.2035C117.798 32.0041 117.763 31.7861 117.758 31.5496C117.754 31.4893 117.751 31.429 117.751 31.3687C117.751 31.1786 117.777 30.9675 117.828 30.7357C117.883 30.4991 117.971 30.258 118.092 30.0122C118.217 29.7664 118.368 29.5368 118.544 29.3235C118.72 29.1055 118.915 28.9177 119.129 28.76C119.342 28.5977 119.571 28.4725 119.817 28.3843C120.035 28.3055 120.26 28.2661 120.492 28.2661C120.52 28.2661 120.545 28.2661 120.569 28.2661C120.944 28.28 121.292 28.3774 121.612 28.5583C121.937 28.7345 122.217 28.9641 122.454 29.247C122.69 29.5299 122.876 29.8522 123.01 30.2139C123.145 30.571 123.212 30.9374 123.212 31.313C123.212 31.6748 123.145 32.0249 123.01 32.3635C122.88 32.6974 122.711 33.0104 122.503 33.3026C122.725 33.3397 122.966 33.3699 123.226 33.393C123.49 33.4162 123.741 33.4278 123.977 33.4278H124.165V35.2087H124.026C123.669 35.2087 123.323 35.2017 122.989 35.1878C122.66 35.1786 122.349 35.153 122.057 35.1113C121.765 35.0696 121.491 35.0116 121.236 34.9374C120.986 34.8586 120.763 34.7519 120.569 34.6174C120.429 34.7194 120.23 34.8075 119.97 34.8817C119.715 34.9559 119.428 35.0162 119.108 35.0626C118.788 35.1136 118.449 35.1507 118.092 35.1739C117.74 35.1971 117.396 35.2087 117.062 35.2087H116.923V33.4278ZM120.548 30.0261C120.427 30.0493 120.288 30.098 120.13 30.1722C119.977 30.2417 119.831 30.3414 119.692 30.4713C119.558 30.5965 119.442 30.7519 119.344 30.9374C119.251 31.1229 119.205 31.3432 119.205 31.5983C119.205 31.6817 119.245 31.7907 119.323 31.9252C119.402 32.0551 119.507 32.1872 119.636 32.3217C119.766 32.4516 119.915 32.5745 120.082 32.6904C120.249 32.8017 120.42 32.8806 120.596 32.927C120.736 32.8574 120.87 32.767 121 32.6557C121.134 32.5443 121.253 32.4238 121.355 32.2939C121.457 32.1594 121.538 32.0226 121.598 31.8835C121.663 31.7397 121.696 31.6029 121.696 31.473C121.696 31.2922 121.656 31.1206 121.577 30.9583C121.503 30.7913 121.408 30.6429 121.292 30.513C121.176 30.3832 121.051 30.2765 120.916 30.193C120.787 30.1049 120.664 30.0493 120.548 30.0261ZM120.374 26.04L119.191 27.2226L117.995 26.033L119.177 24.8435L120.374 26.04ZM123.003 26.047L121.821 27.2365L120.624 26.04L121.807 24.8574L123.003 26.047ZM130.097 33.4278V35.2087H129.958C129.508 35.2087 129.128 35.1368 128.817 34.993C128.507 34.8493 128.242 34.6638 128.024 34.4365C127.871 34.6313 127.644 34.782 127.343 34.8887C127.046 34.9907 126.714 35.0649 126.348 35.1113C125.981 35.1623 125.603 35.1901 125.214 35.1948C124.829 35.2041 124.474 35.2087 124.15 35.2087H123.892V33.4278H124.15C124.692 33.4278 125.149 33.3977 125.52 33.3374C125.891 33.2725 126.19 33.1797 126.417 33.0591C126.649 32.9386 126.816 32.7878 126.918 32.607C127.02 32.4214 127.071 32.2081 127.071 31.967C127.071 31.8093 127.041 31.6006 126.981 31.3409C126.921 31.0765 126.83 30.738 126.71 30.3252L128.421 29.8452C128.481 30.0493 128.527 30.2301 128.56 30.3878C128.597 30.5409 128.625 30.6962 128.643 30.8539C128.667 31.007 128.685 31.1739 128.699 31.3548C128.718 31.531 128.736 31.742 128.755 31.9878C128.769 32.1362 128.803 32.2962 128.859 32.4678C128.915 32.6348 128.991 32.7901 129.089 32.9339C129.191 33.073 129.314 33.1913 129.457 33.2887C129.601 33.3814 129.768 33.4278 129.958 33.4278H130.097ZM127.009 27.2643L125.826 28.447L124.63 27.2574L125.812 26.0678L127.009 27.2643ZM129.638 27.2713L128.456 28.4609L127.259 27.2643L128.442 26.0817L129.638 27.2713ZM130.106 33.4278C130.343 33.4278 130.565 33.3814 130.774 33.2887C130.987 33.1913 131.189 33.0197 131.379 32.7739C131.574 32.5235 131.755 32.1826 131.922 31.7513C132.093 31.32 132.256 30.7681 132.409 30.0957L134.113 30.5757C134.002 30.9606 133.902 31.3316 133.814 31.6887C133.726 32.0412 133.677 32.3449 133.668 32.6C133.668 32.6232 133.668 32.6441 133.668 32.6626C133.668 32.7461 133.675 32.8342 133.689 32.927C133.707 33.0197 133.737 33.1055 133.779 33.1843C133.821 33.2632 133.877 33.3258 133.946 33.3722C134.011 33.4139 134.083 33.4348 134.162 33.4348C134.171 33.4348 134.18 33.4348 134.19 33.4348C134.361 33.4301 134.524 33.3675 134.677 33.247C134.83 33.1264 134.971 32.971 135.101 32.7809C135.235 32.5907 135.356 32.3751 135.463 32.1339C135.574 31.8928 135.671 31.6493 135.755 31.4035C135.843 31.153 135.917 30.9096 135.977 30.673C136.038 30.4365 136.084 30.2278 136.117 30.047L137.758 30.3809C137.698 30.6591 137.649 30.9165 137.612 31.153C137.575 31.3849 137.552 31.6191 137.543 31.8557C137.538 31.9159 137.536 31.9762 137.536 32.0365C137.536 32.1525 137.543 32.2893 137.557 32.447C137.575 32.6 137.615 32.7507 137.675 32.8991C137.735 33.0475 137.819 33.1704 137.925 33.2678C138.037 33.3606 138.18 33.407 138.357 33.407C138.556 33.407 138.716 33.3304 138.837 33.1774C138.962 33.0197 139.057 32.8203 139.122 32.5791C139.187 32.338 139.228 32.0713 139.247 31.7791C139.27 31.4823 139.282 31.1948 139.282 30.9165C139.282 30.8284 139.28 30.7588 139.275 30.7078C139.275 30.6522 139.275 30.6012 139.275 30.5548C139.275 30.5084 139.273 30.4574 139.268 30.4017C139.268 30.3414 139.268 30.2603 139.268 30.1583L141.028 30.0191C141.042 30.1722 141.056 30.3229 141.07 30.4713C141.084 30.6151 141.097 30.7658 141.111 30.9235C141.125 31.0765 141.142 31.2412 141.16 31.4174C141.183 31.589 141.209 31.7768 141.237 31.9809C141.269 32.222 141.336 32.433 141.438 32.6139C141.545 32.7948 141.668 32.9455 141.807 33.0661C141.946 33.1867 142.095 33.2771 142.252 33.3374C142.415 33.3977 142.568 33.4278 142.711 33.4278H142.969V35.2087H142.746C142.519 35.2087 142.294 35.1855 142.071 35.1391C141.853 35.0928 141.645 35.0209 141.445 34.9235C141.246 34.8261 141.058 34.7032 140.882 34.5548C140.71 34.4017 140.56 34.2209 140.43 34.0122C140.207 34.3739 139.915 34.6638 139.553 34.8817C139.191 35.0997 138.793 35.2087 138.357 35.2087C137.921 35.2087 137.524 35.1043 137.167 34.8957C136.815 34.687 136.534 34.4087 136.325 34.0609C136.191 34.2325 136.045 34.3901 135.887 34.5339C135.734 34.673 135.567 34.7959 135.386 34.9026C135.21 35.0046 135.022 35.0835 134.823 35.1391C134.623 35.1994 134.415 35.2296 134.197 35.2296C133.988 35.2296 133.786 35.2017 133.591 35.1461C133.397 35.0951 133.216 35.0186 133.049 34.9165C132.882 34.8145 132.731 34.6916 132.597 34.5478C132.462 34.3994 132.351 34.2348 132.263 34.0539C132.031 34.462 131.746 34.7565 131.407 34.9374C131.068 35.1183 130.637 35.2087 130.113 35.2087H129.814V33.4278H130.106ZM142.828 33.4278C143.167 33.4278 143.461 33.3652 143.712 33.24C143.962 33.1101 144.182 32.9432 144.372 32.7391C144.567 32.5351 144.737 32.3055 144.88 32.0504C145.029 31.7954 145.168 31.5403 145.298 31.2852C145.428 31.0162 145.569 30.7496 145.722 30.4852C145.875 30.2209 146.049 29.9843 146.244 29.7757C146.439 29.5623 146.661 29.3907 146.912 29.2609C147.162 29.1264 147.452 29.0591 147.781 29.0591C148.078 29.0591 148.349 29.1055 148.595 29.1983C148.846 29.2864 149.068 29.4116 149.263 29.5739C149.462 29.7316 149.636 29.9171 149.785 30.1304C149.933 30.3391 150.056 30.5664 150.153 30.8122C150.251 31.0533 150.323 31.3038 150.369 31.5635C150.42 31.8232 150.446 32.0806 150.446 32.3357C150.446 32.5722 150.425 32.8017 150.383 33.0243C150.346 33.247 150.288 33.4626 150.209 33.6713C150.121 33.8939 150.005 34.0957 149.861 34.2765C149.722 34.4574 149.562 34.6128 149.381 34.7426C149.2 34.8678 149.006 34.9652 148.797 35.0348C148.588 35.1043 148.37 35.1391 148.143 35.1391C147.948 35.1391 147.742 35.1136 147.524 35.0626C147.31 35.0162 147.092 34.9513 146.87 34.8678C146.772 34.8261 146.663 34.7774 146.543 34.7217C146.422 34.6614 146.299 34.5965 146.174 34.527C146.049 34.4574 145.924 34.3855 145.799 34.3113C145.678 34.2325 145.564 34.1559 145.458 34.0817C145.091 34.4435 144.697 34.7217 144.275 34.9165C143.858 35.1113 143.375 35.2087 142.828 35.2087H142.689V33.4278H142.828ZM146.501 32.6139C146.626 32.6974 146.782 32.7901 146.967 32.8922C147.157 32.9942 147.355 33.087 147.559 33.1704C147.763 33.2539 147.964 33.3165 148.164 33.3583C148.275 33.3861 148.377 33.4 148.47 33.4C148.544 33.4 148.611 33.3907 148.672 33.3722C148.718 33.3629 148.767 33.3351 148.818 33.2887C148.873 33.2377 148.922 33.1704 148.964 33.087C149.01 33.0035 149.047 32.9061 149.075 32.7948C149.094 32.702 149.103 32.6 149.103 32.4887C149.103 32.4655 149.103 32.4423 149.103 32.4191C149.103 32.2104 149.066 32.0017 148.992 31.793C148.922 31.5797 148.825 31.3919 148.699 31.2296C148.574 31.0672 148.426 30.942 148.254 30.8539C148.138 30.7983 148.013 30.7704 147.879 30.7704C147.814 30.7704 147.746 30.7774 147.677 30.7913C147.612 30.8052 147.547 30.8423 147.482 30.9026C147.422 30.9583 147.348 31.0557 147.259 31.1948C147.171 31.3293 147.067 31.5125 146.946 31.7443C146.826 31.9716 146.677 32.2614 146.501 32.6139ZM156.971 32.4748C157.147 32.5861 157.358 32.6997 157.604 32.8157C157.854 32.9316 158.112 33.0359 158.376 33.1287C158.645 33.2214 158.907 33.298 159.162 33.3583C159.422 33.4186 159.649 33.4487 159.844 33.4487C159.923 33.4487 160.02 33.4464 160.136 33.4417C160.252 33.4371 160.375 33.4278 160.505 33.4139C160.635 33.3954 160.764 33.3699 160.894 33.3374C161.024 33.3003 161.14 33.2516 161.242 33.1913C161.349 33.1264 161.435 33.0475 161.5 32.9548C161.564 32.8574 161.599 32.7391 161.604 32.6C161.604 32.5907 161.604 32.5838 161.604 32.5791C161.604 32.3936 161.551 32.1849 161.444 31.953C161.342 31.7165 161.2 31.4707 161.02 31.2157C160.839 30.9559 160.63 30.6962 160.393 30.4365C160.157 30.1768 159.911 29.9287 159.656 29.6922C159.401 29.451 159.144 29.2307 158.884 29.0313C158.629 28.8272 158.39 28.6557 158.167 28.5165L159.204 26.9791C159.631 27.2713 160.05 27.6006 160.463 27.967C160.88 28.3333 161.263 28.7252 161.611 29.1426C161.963 29.5554 162.267 29.9867 162.522 30.4365C162.782 30.8864 162.967 31.3409 163.079 31.8C163.139 32.0643 163.169 32.3171 163.169 32.5583C163.169 32.7901 163.125 33.0684 163.037 33.393C162.953 33.7177 162.761 34.0377 162.46 34.353C162.158 34.6638 161.775 34.9026 161.312 35.0696C160.913 35.2133 160.475 35.2852 159.997 35.2852C159.918 35.2852 159.837 35.2829 159.753 35.2783C159.447 35.2783 159.137 35.2481 158.821 35.1878C158.506 35.1322 158.195 35.0533 157.889 34.9513C157.588 34.8493 157.295 34.7333 157.013 34.6035C156.734 34.469 156.475 34.3275 156.233 34.1791L156.971 32.4748ZM164.07 38.3391C164.752 38.2046 165.366 38.0238 165.914 37.7965C166.466 37.5739 166.943 37.3235 167.347 37.0452C167.75 36.767 168.077 36.4701 168.328 36.1548C168.583 35.8394 168.752 35.5241 168.835 35.2087C168.46 35.2087 168.093 35.1971 167.736 35.1739C167.379 35.1507 167.041 35.1043 166.721 35.0348C166.405 34.9699 166.113 34.8771 165.844 34.7565C165.58 34.6313 165.35 34.469 165.155 34.2696C164.965 34.0655 164.817 33.8197 164.71 33.5322C164.604 33.2446 164.55 32.9014 164.55 32.5026C164.55 32.2475 164.578 31.9809 164.634 31.7026C164.689 31.4243 164.768 31.153 164.87 30.8887C164.977 30.6197 165.107 30.367 165.26 30.1304C165.413 29.8893 165.589 29.6783 165.788 29.4974C165.988 29.3119 166.208 29.1658 166.449 29.0591C166.691 28.9525 166.95 28.8991 167.228 28.8991C167.947 28.8991 168.604 29.2191 169.197 29.8591C169.392 30.0771 169.568 30.3206 169.726 30.5896C169.884 30.8586 170.02 31.1461 170.136 31.4522C170.252 31.7583 170.345 32.0783 170.415 32.4122C170.489 32.7414 170.535 33.08 170.554 33.4278H171.02V35.2087H170.408C170.25 35.8951 169.983 36.5119 169.608 37.0591C169.232 37.611 168.78 38.091 168.251 38.4991C167.727 38.9072 167.143 39.2435 166.498 39.5078C165.853 39.7722 165.183 39.9623 164.488 40.0783L164.07 38.3391ZM167.228 30.687C167.108 30.687 166.978 30.738 166.839 30.84C166.7 30.942 166.572 31.0742 166.456 31.2365C166.34 31.3942 166.243 31.5704 166.164 31.7652C166.09 31.96 166.053 32.1501 166.053 32.3357C166.053 32.5304 166.097 32.6928 166.185 32.8226C166.278 32.9525 166.394 33.0568 166.533 33.1357C166.677 33.2145 166.837 33.2748 167.013 33.3165C167.194 33.3536 167.372 33.3791 167.548 33.393C167.646 33.4023 167.753 33.4093 167.868 33.4139C167.984 33.4139 168.103 33.4162 168.223 33.4209C168.348 33.4255 168.471 33.4278 168.592 33.4278C168.713 33.4278 168.826 33.4278 168.933 33.4278C168.919 33.2562 168.884 33.0707 168.828 32.8713C168.777 32.6672 168.71 32.4632 168.627 32.2591C168.543 32.0551 168.448 31.8603 168.342 31.6748C168.235 31.4846 168.119 31.3177 167.994 31.1739C167.873 31.0255 167.748 30.9072 167.618 30.8191C167.488 30.731 167.358 30.687 167.228 30.687ZM170.736 33.4278H171.244C171.411 33.4278 171.566 33.4139 171.71 33.3861C171.854 33.3583 171.981 33.3003 172.092 33.2122C172.204 33.1194 172.294 32.9919 172.364 32.8296C172.433 32.6672 172.477 32.4493 172.496 32.1757C172.496 32.069 172.498 31.8835 172.503 31.6191C172.512 31.3501 172.519 31.0325 172.524 30.6661C172.528 30.2951 172.533 29.8893 172.538 29.4487C172.542 29.0081 172.545 28.5583 172.545 28.0991C172.545 27.742 172.542 27.3919 172.538 27.0487C172.538 26.7009 172.533 26.367 172.524 26.047C172.519 25.727 172.507 25.4255 172.489 25.1426C172.475 24.8597 172.454 24.6023 172.426 24.3704L174.2 24.1409C174.233 24.3913 174.258 24.6742 174.277 24.9896C174.295 25.3049 174.309 25.6412 174.318 25.9983C174.332 26.3507 174.339 26.7217 174.339 27.1113C174.344 27.4962 174.346 27.8858 174.346 28.28C174.346 29.1565 174.337 29.9194 174.318 30.5687C174.305 31.218 174.298 31.793 174.298 32.2939C174.298 32.6464 174.388 32.9246 174.569 33.1287C174.75 33.3281 175.019 33.4278 175.376 33.4278H175.529V35.2087H175.376C175.348 35.2087 175.323 35.2087 175.299 35.2087C175.118 35.2087 174.94 35.1925 174.764 35.16C174.592 35.1322 174.425 35.0881 174.263 35.0278C174.105 34.9722 173.959 34.9049 173.825 34.8261C173.69 34.7472 173.572 34.6661 173.47 34.5826C173.335 34.7125 173.187 34.8191 173.025 34.9026C172.867 34.9814 172.705 35.0441 172.538 35.0904C172.371 35.1368 172.206 35.167 172.044 35.1809C171.881 35.1994 171.735 35.2087 171.605 35.2087H170.736V33.4278ZM175.251 33.4278H176.371C176.589 33.4278 176.812 33.4162 177.039 33.393C177.271 33.3652 177.48 33.3119 177.665 33.233C177.851 33.1496 178.002 33.0313 178.118 32.8783C178.238 32.7252 178.298 32.5212 178.298 32.2661C178.298 32.1455 178.273 31.9762 178.222 31.7583C178.171 31.5403 178.104 31.2991 178.02 31.0348C177.937 30.7704 177.837 30.4968 177.721 30.2139C177.61 29.931 177.491 29.6667 177.366 29.4209L178.973 28.6278C179.089 28.8922 179.205 29.1728 179.321 29.4696C179.437 29.7664 179.539 30.0725 179.627 30.3878C179.72 30.6986 179.794 31.0116 179.85 31.327C179.905 31.6423 179.933 31.9507 179.933 32.2522C179.933 32.7716 179.845 33.2191 179.669 33.5948C179.493 33.9658 179.247 34.2719 178.931 34.513C178.616 34.7496 178.238 34.9235 177.798 35.0348C177.362 35.1507 176.882 35.2087 176.358 35.2087H175.251V33.4278ZM178.806 26.2696L177.471 27.6052L176.142 26.2696L177.471 24.9409L178.806 26.2696ZM183.149 24.1409C183.265 25.0267 183.346 25.873 183.392 26.68C183.439 27.4823 183.467 28.2684 183.476 29.0383C183.485 29.6922 183.487 30.2974 183.483 30.8539C183.483 31.4104 183.478 31.9299 183.469 32.4122C183.46 32.8899 183.446 33.3374 183.427 33.7548C183.409 34.1675 183.39 34.5548 183.371 34.9165L181.549 35.1948C181.646 33.6643 181.695 32.3125 181.695 31.1391C181.695 30.6661 181.688 30.2232 181.674 29.8104C181.637 28.8597 181.595 27.967 181.549 27.1322C181.502 26.2928 181.44 25.4904 181.361 24.7252L183.149 24.1409ZM185.346 32.4748C185.522 32.5861 185.733 32.6997 185.979 32.8157C186.229 32.9316 186.487 33.0359 186.751 33.1287C187.02 33.2214 187.282 33.298 187.537 33.3583C187.797 33.4186 188.024 33.4487 188.219 33.4487C188.298 33.4487 188.395 33.4464 188.511 33.4417C188.627 33.4371 188.75 33.4278 188.88 33.4139C189.01 33.3954 189.139 33.3699 189.269 33.3374C189.399 33.3003 189.515 33.2516 189.617 33.1913C189.724 33.1264 189.81 33.0475 189.875 32.9548C189.939 32.8574 189.974 32.7391 189.979 32.6C189.979 32.5907 189.979 32.5838 189.979 32.5791C189.979 32.3936 189.926 32.1849 189.819 31.953C189.717 31.7165 189.575 31.4707 189.395 31.2157C189.214 30.9559 189.005 30.6962 188.768 30.4365C188.532 30.1768 188.286 29.9287 188.031 29.6922C187.776 29.451 187.519 29.2307 187.259 29.0313C187.004 28.8272 186.765 28.6557 186.542 28.5165L187.579 26.9791C188.006 27.2713 188.425 27.6006 188.838 27.967C189.255 28.3333 189.638 28.7252 189.986 29.1426C190.338 29.5554 190.642 29.9867 190.897 30.4365C191.157 30.8864 191.342 31.3409 191.454 31.8C191.514 32.0643 191.544 32.3171 191.544 32.5583C191.544 32.7901 191.5 33.0684 191.412 33.393C191.328 33.7177 191.136 34.0377 190.835 34.353C190.533 34.6638 190.15 34.9026 189.687 35.0696C189.288 35.2133 188.85 35.2852 188.372 35.2852C188.293 35.2852 188.212 35.2829 188.128 35.2783C187.822 35.2783 187.512 35.2481 187.196 35.1878C186.881 35.1322 186.57 35.0533 186.264 34.9513C185.963 34.8493 185.67 34.7333 185.388 34.6035C185.109 34.469 184.85 34.3275 184.608 34.1791L185.346 32.4748Z" fill="white"/>
</svg>
