<svg width="73" height="28" viewBox="0 0 73 28" fill="none" xmlns="http://www.w3.org/2000/svg">
<path d="M16.6801 16.4775C16.8887 16.4775 16.993 16.5825 16.993 16.7926V20.9198C16.993 21.1298 16.8887 21.2349 16.6801 21.2349H15.3656C14.4685 21.2349 13.6548 21.0458 12.9245 20.6678C12.2152 20.2897 11.631 19.7646 11.172 19.0925C10.087 19.8906 8.83518 20.2897 7.41643 20.2897C6.16459 20.2897 5.00663 19.9851 3.94257 19.376C2.89936 18.7459 2.0648 17.9058 1.43888 16.8556C0.812961 15.7844 0.5 14.6292 0.5 13.3899C0.5 12.1717 0.812961 11.069 1.43888 10.0818C2.0648 9.07365 2.89936 8.28601 3.94257 7.7189C5.00663 7.1308 6.16459 6.83674 7.41643 6.83674H9.48197V4.82038H13.926V14.9967C13.926 15.4168 14.0616 15.7739 14.3329 16.0679C14.6041 16.341 14.9483 16.4775 15.3656 16.4775H16.6801ZM9.48197 11.3736H7.41643C6.81137 11.3736 6.3002 11.5626 5.88292 11.9407C5.48651 12.3187 5.2883 12.8018 5.2883 13.3899C5.2883 13.999 5.48651 14.5136 5.88292 14.9337C6.3002 15.3328 6.81137 15.5323 7.41643 15.5323C8.00062 15.5323 8.49093 15.3328 8.88734 14.9337C9.28376 14.5136 9.48197 13.999 9.48197 13.3899V11.3736Z" fill="#27AE60"/>
<path d="M16.6673 21.2349C16.4587 21.2349 16.3544 21.1298 16.3544 20.9198V16.7926C16.3544 16.5825 16.4587 16.4775 16.6673 16.4775H23.1769C24.8043 16.4775 26.1605 15.9734 27.2454 14.9652L30.2811 12.1927L25.931 10.0818C25.5137 9.9138 25.2007 9.82979 24.9921 9.82979C24.7209 9.82979 24.4496 9.8928 24.1784 10.0188C23.9072 10.1448 23.6881 10.3129 23.5212 10.5229L20.6419 13.7365L17.5123 10.964L20.3916 7.43535C20.9966 6.74223 21.6956 6.22763 22.4884 5.89157C23.3021 5.53451 24.1262 5.35597 24.9608 5.35597C25.545 5.35597 26.0353 5.42949 26.4317 5.57651C26.849 5.70254 27.2663 5.87057 27.6836 6.08061L34.4122 9.23118C34.6 9.29419 34.7669 9.3257 34.913 9.3257H38.2616V13.7365H34.6626L34.0993 14.2406V14.9967C34.0993 15.4168 34.2349 15.7739 34.5061 16.0679C34.7982 16.341 35.1529 16.4775 35.5702 16.4775H39.1692C39.3779 16.4775 39.4822 16.5825 39.4822 16.7926V20.9198C39.4822 21.1298 39.3779 21.2349 39.1692 21.2349H35.5702C34.3392 21.2349 33.3064 20.8883 32.4719 20.1952C31.6582 19.502 31.1053 18.5884 30.8132 17.4542L29.7178 18.4939C28.7581 19.397 27.6523 20.0796 26.4004 20.5417C25.1486 21.0038 23.855 21.2349 22.5197 21.2349H16.6673ZM22.0645 23.9128H26.1017V27.9456H22.0645V23.9128ZM27.6978 23.9128H31.7037V27.9456H27.6978V23.9128ZM16.4084 23.9673H20.4143V28H16.4084V23.9673Z" fill="#27AE60"/>
<path d="M39.1614 21.2349C38.9528 21.2349 38.8484 21.1298 38.8484 20.9198V16.7926C38.8484 16.5825 38.9528 16.4775 39.1614 16.4775H40.4758C40.8931 16.4775 41.2374 16.341 41.5086 16.0679C41.8007 15.7739 41.9467 15.4168 41.9467 14.9967V0H46.4221V14.9967C46.4221 15.4168 46.5577 15.7739 46.8289 16.0679C47.1002 16.341 47.4444 16.4775 47.8617 16.4775H49.2074C49.4161 16.4775 49.5204 16.5825 49.5204 16.7926V20.9198C49.5204 21.1298 49.4161 21.2349 49.2074 21.2349H47.8617C47.0689 21.2349 46.3595 21.0773 45.7336 20.7623C45.1076 20.4472 44.586 20.0166 44.1688 19.4705C43.7723 20.0166 43.2507 20.4472 42.604 20.7623C41.978 21.0773 41.2687 21.2349 40.4758 21.2349H39.1614Z" fill="#27AE60"/>
<path d="M48.9035 16.7926C48.9035 16.5825 49.0078 16.4775 49.2165 16.4775H51.2507C51.668 16.4775 52.0123 16.341 52.2835 16.0679C52.5547 15.7739 52.6903 15.4168 52.6903 14.9967V9.48322H57.197V14.9967C57.197 15.4168 57.3326 15.7739 57.6038 16.0679C57.875 16.341 58.2193 16.4775 58.6366 16.4775H60.6708C60.8795 16.4775 60.9838 16.5825 60.9838 16.7926V20.9198C60.9838 21.1298 60.8795 21.2349 60.6708 21.2349H58.6366C57.0926 21.2349 55.8617 20.7203 54.9436 19.6911C53.9839 20.7203 52.7529 21.2349 51.2507 21.2349H49.2165C49.0078 21.2349 48.9035 21.1298 48.9035 20.9198V16.7926ZM45.874 23.9444H49.8799V27.9771H45.874V23.9444ZM51.5073 23.9444H55.5445V27.9771H51.5073V23.9444Z" fill="#27AE60"/>
<path d="M60.6774 21.2349C60.4688 21.2349 60.3645 21.1298 60.3645 20.9198V16.7926C60.3645 16.5825 60.4688 16.4775 60.6774 16.4775H64.9024C65.111 16.4775 65.2154 16.5825 65.2154 16.7926V20.9198C65.2154 21.1298 65.111 21.2349 64.9024 21.2349H60.6774Z" fill="#27AE60"/>
<path d="M64.8951 21.2349C64.6864 21.2349 64.5821 21.1298 64.5821 20.9198V16.7926C64.5821 16.5825 64.6864 16.4775 64.8951 16.4775H66.5851C66.9815 16.4775 67.3153 16.3305 67.5865 16.0364C67.8786 15.7424 68.0247 15.3958 68.0247 14.9967V8.53805H72.5V15.2803C72.5 16.3515 72.2392 17.3492 71.7176 18.2733C71.196 19.1765 70.4866 19.9011 69.5895 20.4472C68.6923 20.9723 67.7013 21.2349 66.6163 21.2349H64.8951ZM60.645 23.9128H64.6822V27.9456H60.645V23.9128Z" fill="#27AE60"/>
</svg>
