<svg width="61" height="61" viewBox="0 0 61 61" fill="none" xmlns="http://www.w3.org/2000/svg">
<circle cx="30.5" cy="30.1667" r="29" stroke="#A54F02" stroke-width="2"/>
<path d="M18.125 18.3621C21.5469 14.9402 25.6719 13.2292 30.5 13.2292C35.3281 13.2292 39.4297 14.9402 42.8047 18.3621C46.2266 21.7371 47.9375 25.8386 47.9375 30.6667C47.9375 35.4949 46.2266 39.6199 42.8047 43.0417C39.4297 46.4167 35.3281 48.1042 30.5 48.1042C25.6719 48.1042 21.5469 46.4167 18.125 43.0417C14.75 39.6199 13.0625 35.4949 13.0625 30.6667C13.0625 25.8386 14.75 21.7371 18.125 18.3621ZM39.9219 31.2996C40.1094 31.1121 40.2031 30.9011 40.2031 30.6667C40.2031 30.4324 40.1094 30.2214 39.9219 30.0339L31.9062 21.948C31.6719 21.6667 31.3672 21.5964 30.9922 21.7371C30.6641 21.8777 30.5 22.1355 30.5 22.5105V27.573H22.3438C22.1094 27.573 21.8984 27.6667 21.7109 27.8542C21.5703 27.9949 21.5 28.1824 21.5 28.4167V32.9167C21.5 33.1511 21.5703 33.3621 21.7109 33.5496C21.8984 33.6902 22.1094 33.7605 22.3438 33.7605H30.5V38.823C30.5 39.198 30.6641 39.4558 30.9922 39.5964C31.3672 39.7371 31.6719 39.6667 31.9062 39.3855L39.9219 31.2996Z" fill="#A54F02"/>
</svg>
