<svg width="24" height="22" viewBox="0 0 24 22" fill="none" xmlns="http://www.w3.org/2000/svg">
<path d="M21.75 0.5C22.375 0.5 22.9062 0.71875 23.3438 1.15625C23.7812 1.59375 24 2.125 24 2.75V14C24 16.0625 23.2656 17.8281 21.7969 19.2969C20.3281 20.7656 18.5625 21.5 16.5 21.5H16.125C15.8125 21.5 15.5469 21.3906 15.3281 21.1719C15.1094 20.9531 15 20.6875 15 20.375V18.125C15 17.8125 15.1094 17.5469 15.3281 17.3281C15.5469 17.1094 15.8125 17 16.125 17H16.5C17.3125 17 18.0156 16.7031 18.6094 16.1094C19.2031 15.5156 19.5 14.8125 19.5 14V11H15.75C15.125 11 14.5938 10.7812 14.1562 10.3438C13.7188 9.90625 13.5 9.375 13.5 8.75V2.75C13.5 2.125 13.7188 1.59375 14.1562 1.15625C14.5938 0.71875 15.125 0.5 15.75 0.5H21.75ZM8.25 0.5C8.875 0.5 9.40625 0.71875 9.84375 1.15625C10.2812 1.59375 10.5 2.125 10.5 2.75V14C10.5 16.0625 9.76562 17.8281 8.29688 19.2969C6.82812 20.7656 5.0625 21.5 3 21.5H2.625C2.3125 21.5 2.04688 21.3906 1.82812 21.1719C1.60938 20.9531 1.5 20.6875 1.5 20.375V18.125C1.5 17.8125 1.60938 17.5469 1.82812 17.3281C2.04688 17.1094 2.3125 17 2.625 17H3C3.8125 17 4.51562 16.7031 5.10938 16.1094C5.70312 15.5156 6 14.8125 6 14V11H2.25C1.625 11 1.09375 10.7812 0.65625 10.3438C0.21875 9.90625 0 9.375 0 8.75V2.75C0 2.125 0.21875 1.59375 0.65625 1.15625C1.09375 0.71875 1.625 0.5 2.25 0.5H8.25Z" fill="#663101"/>
</svg>
