<svg width="61" height="61" viewBox="0 0 61 61" fill="none" xmlns="http://www.w3.org/2000/svg">
<circle cx="30.5" cy="30.1667" r="29" stroke="#A54F02" stroke-width="2"/>
<path d="M18.125 18.3621C21.5469 14.9402 25.6719 13.2292 30.5 13.2292C35.3281 13.2292 39.4297 14.9402 42.8047 18.3621C46.2266 21.7371 47.9375 25.8386 47.9375 30.6667C47.9375 35.4949 46.2266 39.6199 42.8047 43.0417C39.4297 46.4167 35.3281 48.1042 30.5 48.1042C25.6719 48.1042 21.5469 46.4167 18.125 43.0417C14.75 39.6199 13.0625 35.4949 13.0625 30.6667C13.0625 25.8386 14.75 21.7371 18.125 18.3621ZM39.5 32.9167V28.4167C39.5 28.1824 39.4062 27.9949 39.2188 27.8542C39.0781 27.6667 38.8906 27.573 38.6562 27.573H30.5V22.5105C30.5 22.1355 30.3125 21.8777 29.9375 21.7371C29.6094 21.5964 29.3281 21.6667 29.0938 21.948L21.0781 30.1042C20.8906 30.2449 20.7969 30.4324 20.7969 30.6667C20.7969 30.9011 20.8906 31.1121 21.0781 31.2996L29.0938 39.3855C29.3281 39.6667 29.6094 39.7371 29.9375 39.5964C30.3125 39.4558 30.5 39.198 30.5 38.823V33.7605H38.6562C38.8906 33.7605 39.0781 33.6902 39.2188 33.5496C39.4062 33.3621 39.5 33.1511 39.5 32.9167Z" fill="#A54F02"/>
</svg>
