<svg width="62" height="17" viewBox="0 0 62 17" fill="none" xmlns="http://www.w3.org/2000/svg">
<path d="M8.09375 0.5625C8.28125 0.1875 8.58333 0 9 0C9.41667 0 9.71875 0.1875 9.90625 0.5625L11.9375 4.6875L16.5 5.375C16.9167 5.41667 17.1875 5.63542 17.3125 6.03125C17.4375 6.42708 17.3542 6.77083 17.0625 7.0625L13.75 10.2812L14.5312 14.8438C14.5938 15.2396 14.4583 15.5521 14.125 15.7812C13.7917 16.0312 13.4479 16.0625 13.0938 15.875L9 13.75L4.90625 15.875C4.55208 16.0833 4.20833 16.0625 3.875 15.8125C3.54167 15.5625 3.40625 15.2396 3.46875 14.8438L4.25 10.2812L0.9375 7.0625C0.645833 6.77083 0.5625 6.42708 0.6875 6.03125C0.8125 5.63542 1.08333 5.41667 1.5 5.375L6.0625 4.6875L8.09375 0.5625Z" fill="#F2C94C"/>
<path d="M38.5 5.375C38.9167 5.41667 39.1875 5.63542 39.3125 6.03125C39.4375 6.42708 39.3542 6.77083 39.0625 7.0625L35.75 10.2812L36.5312 14.8438C36.5938 15.2396 36.4583 15.5521 36.125 15.7812C35.7917 16.0312 35.4479 16.0625 35.0938 15.875L31 13.75L26.9062 15.875C26.5521 16.0833 26.2083 16.0625 25.875 15.8125C25.5417 15.5625 25.4062 15.2396 25.4688 14.8438L26.25 10.2812L22.9375 7.0625C22.6458 6.77083 22.5625 6.42708 22.6875 6.03125C22.8125 5.63542 23.0833 5.41667 23.5 5.375L28.0625 4.6875L30.0938 0.5625C30.2812 0.1875 30.5833 0 31 0C31.4167 0 31.7188 0.1875 31.9062 0.5625L33.9375 4.6875L38.5 5.375ZM34.1562 9.75L37.2812 6.6875L32.9375 6.0625L31 2.125L29.0625 6.0625L24.7188 6.6875L27.8438 9.75L27.125 14.0938L31 12.0312L34.875 14.0938L34.1562 9.75Z" fill="#F2C94C"/>
<path d="M60.5 5.375C60.9167 5.41667 61.1875 5.63542 61.3125 6.03125C61.4375 6.42708 61.3542 6.77083 61.0625 7.0625L57.75 10.2812L58.5312 14.8438C58.5938 15.2396 58.4583 15.5521 58.125 15.7812C57.7917 16.0312 57.4479 16.0625 57.0938 15.875L53 13.75L48.9062 15.875C48.5521 16.0833 48.2083 16.0625 47.875 15.8125C47.5417 15.5625 47.4062 15.2396 47.4688 14.8438L48.25 10.2812L44.9375 7.0625C44.6458 6.77083 44.5625 6.42708 44.6875 6.03125C44.8125 5.63542 45.0833 5.41667 45.5 5.375L50.0625 4.6875L52.0938 0.5625C52.2812 0.1875 52.5833 0 53 0C53.4167 0 53.7188 0.1875 53.9062 0.5625L55.9375 4.6875L60.5 5.375ZM56.1562 9.75L59.2812 6.6875L54.9375 6.0625L53 2.125L51.0625 6.0625L46.7188 6.6875L49.8438 9.75L49.125 14.0938L53 12.0312L56.875 14.0938L56.1562 9.75Z" fill="#F2C94C"/>
</svg>
