<svg width="98" height="122" viewBox="0 0 98 122" fill="none" xmlns="http://www.w3.org/2000/svg">
<path d="M63.7007 7.85509C62.9761 10.0916 61.8038 12.1644 60.3907 13.8884V13.8916C58.965 15.6255 57.0606 17.1585 54.9419 18.1749C52.9975 19.1078 50.866 19.6101 48.745 19.4438L48.0959 19.393L48.0104 18.7429C47.7348 16.6466 48.053 14.5244 48.7232 12.5605C49.5031 10.2751 50.7663 8.18989 52.1218 6.6098C53.5246 4.95723 55.4054 3.51916 57.42 2.47736C59.4413 1.43199 61.6122 0.778316 63.5881 0.697355L64.3349 0.666748L64.4168 1.4172C64.6561 3.61199 64.3651 5.80436 63.7007 7.85509Z" fill="#4D4D4D"/>
<path d="M77.4334 27.5718C76.7174 28.0173 69.7965 32.3243 69.8823 41.0057C69.9729 51.4715 78.7964 55.0996 79.2835 55.2998H79.2866L80 55.5968L79.7629 56.3093C79.7488 56.3516 79.7648 56.3067 79.7443 56.3729C79.5191 57.0984 77.9929 62.0159 74.5451 67.0829C72.9806 69.3813 71.3867 71.6762 69.5047 73.4464C67.5561 75.2792 65.3307 76.5164 62.5815 76.5677C59.9903 76.6167 58.2938 75.8784 56.5304 75.111C54.8488 74.3793 53.1001 73.6182 50.3635 73.6182C47.4887 73.6182 45.6511 74.4055 43.8811 75.164C42.2149 75.8778 40.6035 76.5683 38.282 76.6614H38.2789C35.5982 76.7615 33.2737 75.4473 31.2079 73.5008C29.2315 71.6385 27.4999 69.1999 25.9219 66.9045C22.3599 61.7318 19.2621 54.2054 18.305 46.5523C17.5178 40.2573 18.1758 33.8626 21.2019 28.5813C22.8913 25.6264 25.2523 23.215 28.0127 21.5323C30.7605 19.8573 33.9044 18.9042 37.1768 18.8548C40.0418 18.8025 42.7432 19.8807 45.1069 20.8241C46.7798 21.4917 48.2703 22.0866 49.3876 22.0866C50.3748 22.0866 51.8299 21.5096 53.5261 20.837C56.3909 19.7011 59.8958 18.3115 63.6017 18.6821C65.1581 18.7502 68.3998 19.1252 71.7136 20.9313C73.8245 22.0819 75.9657 23.8094 77.7259 26.4001L78.1899 27.0833L77.4967 27.5336C77.4596 27.5577 77.4956 27.5331 77.4334 27.5718Z" fill="#4D4D4D"/>
<path d="M5.31508 106.667H2.46639V93.9885H5.31508V106.667ZM2.28899 90.6911C2.28899 90.2528 2.42813 89.8911 2.70639 89.6059C2.98465 89.3137 3.38117 89.1676 3.89595 89.1676C4.41073 89.1676 4.80726 89.3137 5.08552 89.6059C5.37073 89.8911 5.51334 90.2528 5.51334 90.6911C5.51334 91.1224 5.37073 91.4807 5.08552 91.7659C4.80726 92.0511 4.41073 92.1937 3.89595 92.1937C3.38117 92.1937 2.98465 92.0511 2.70639 91.7659C2.42813 91.4807 2.28899 91.1224 2.28899 90.6911ZM22.2949 98.5798C22.2949 100.249 22.0062 101.717 21.4288 102.983C20.8514 104.242 20.0236 105.209 18.9453 105.884C17.874 106.559 16.6392 106.896 15.241 106.896C13.8566 106.896 12.6218 106.559 11.5366 105.884C10.4584 105.209 9.62357 104.249 9.03227 103.004C8.44792 101.752 8.15227 100.308 8.14531 98.6737V97.7137C8.14531 96.0511 8.43749 94.5833 9.02183 93.3102C9.61314 92.0372 10.4444 91.0633 11.5157 90.3885C12.594 89.7067 13.8288 89.3659 15.2201 89.3659C16.6114 89.3659 17.8427 89.6998 18.914 90.3676C19.9923 91.0354 20.8236 91.9989 21.4079 93.2581C21.9923 94.5102 22.2879 95.9676 22.2949 97.6302V98.5798ZM19.3314 97.6928C19.3314 95.8007 18.9731 94.3502 18.2566 93.3415C17.5471 92.3328 16.5349 91.8285 15.2201 91.8285C13.9401 91.8285 12.9384 92.3328 12.2149 93.3415C11.4914 94.3433 11.1227 95.7624 11.1088 97.5989V98.5798C11.1088 100.458 11.474 101.908 12.2044 102.931C12.9349 103.954 13.9471 104.465 15.241 104.465C16.5557 104.465 17.5644 103.964 18.2671 102.962C18.9766 101.961 19.3314 100.5 19.3314 98.5798V97.6928ZM34.1695 102.274C34.1695 101.522 33.9052 100.945 33.3765 100.542C32.8478 100.131 31.8948 99.7207 30.5174 99.3102C29.1469 98.8928 28.0548 98.4302 27.2408 97.9224C25.6895 96.9485 24.9139 95.6754 24.9139 94.1033C24.9139 92.7259 25.4739 91.592 26.5939 90.7015C27.7139 89.8111 29.1678 89.3659 30.9556 89.3659C32.1452 89.3659 33.2026 89.585 34.1278 90.0233C35.06 90.4615 35.7904 91.0876 36.3191 91.9015C36.8548 92.7085 37.1226 93.6024 37.1226 94.5833H34.1695C34.1695 93.6928 33.8878 92.9972 33.3243 92.4963C32.7678 91.9885 31.9713 91.7346 30.9348 91.7346C29.9678 91.7346 29.2165 91.9433 28.6808 92.3607C28.1452 92.7711 27.8774 93.3485 27.8774 94.0928C27.8774 94.7189 28.1661 95.2407 28.7435 95.6581C29.3208 96.0754 30.2739 96.4824 31.6026 96.8789C32.9313 97.2685 33.9956 97.7172 34.7956 98.225C35.6026 98.7259 36.1939 99.3033 36.5695 99.9572C36.9452 100.611 37.133 101.376 37.133 102.253C37.133 103.672 36.5869 104.802 35.4948 105.644C34.4095 106.479 32.9313 106.896 31.06 106.896C29.8287 106.896 28.6948 106.67 27.6582 106.218C26.6217 105.759 25.8148 105.129 25.2374 104.329C24.6669 103.522 24.3817 102.583 24.3817 101.512H27.3452C27.3452 102.479 27.6652 103.23 28.3052 103.766C28.9452 104.295 29.8635 104.559 31.06 104.559C32.0895 104.559 32.8652 104.35 33.3869 103.933C33.9087 103.515 34.1695 102.962 34.1695 102.274Z" fill="#4D4D4D"/>
<path d="M48.0593 105.519C47.6906 105.519 47.3185 105.495 46.9428 105.446C46.5741 105.397 46.2193 105.317 45.8785 105.206C45.5376 105.095 45.2176 104.955 44.9185 104.788C44.6263 104.615 44.3689 104.406 44.1463 104.162C43.9306 103.919 43.7602 103.637 43.635 103.317C43.5098 102.997 43.4472 102.635 43.4472 102.232C43.4472 101.801 43.5237 101.39 43.6767 101.001C43.8298 100.611 44.035 100.246 44.2924 99.905C44.5498 99.5641 44.8489 99.2476 45.1898 98.9554C45.5306 98.6633 45.8889 98.3989 46.2646 98.1624C46.6402 97.9189 47.0193 97.7033 47.4019 97.5154C47.7915 97.3207 48.1602 97.1537 48.508 97.0146L48.3724 95.4285L51.0124 94.865C51.0193 94.9276 51.0332 95.0667 51.0541 95.2824C51.075 95.4911 51.0993 95.7415 51.1272 96.0337C51.1619 96.3259 51.1967 96.6389 51.2315 96.9728C51.2663 97.2998 51.2976 97.6094 51.3254 97.9015C51.3602 98.1867 51.388 98.4372 51.4089 98.6528C51.4298 98.8615 51.4437 98.9902 51.4506 99.0389C51.555 99.9294 51.6489 100.656 51.7324 101.22C51.8228 101.783 51.8993 102.232 51.9619 102.566C52.0246 102.893 52.0767 103.126 52.1185 103.265C52.1672 103.397 52.2019 103.484 52.2228 103.526C52.2924 103.679 52.3724 103.808 52.4628 103.912C52.5532 104.009 52.6576 104.089 52.7759 104.152C52.8941 104.208 53.0332 104.249 53.1932 104.277C53.3532 104.298 53.5411 104.308 53.7567 104.308H53.9654V106.98H53.7567C53.388 106.973 53.0402 106.959 52.7132 106.938C52.3932 106.924 52.0837 106.865 51.7846 106.761C51.4924 106.663 51.2141 106.507 50.9498 106.291C50.6854 106.075 50.435 105.762 50.1985 105.352C49.8019 105.408 49.4298 105.449 49.0819 105.477C48.7341 105.505 48.3932 105.519 48.0593 105.519ZM49.2698 102.775C49.235 102.587 49.2002 102.364 49.1654 102.107C49.1306 101.849 49.0959 101.571 49.0611 101.272C49.0263 100.966 48.988 100.649 48.9463 100.322C48.9115 99.9954 48.8732 99.6685 48.8315 99.3415C48.6506 99.4181 48.4489 99.5154 48.2263 99.6337C48.0037 99.752 47.7741 99.8841 47.5376 100.03C47.3011 100.176 47.068 100.336 46.8385 100.51C46.6159 100.677 46.4176 100.851 46.2437 101.032C46.0698 101.206 45.9272 101.383 45.8159 101.564C45.7115 101.745 45.6593 101.919 45.6593 102.086C45.6593 102.239 45.7359 102.368 45.8889 102.472C46.0419 102.569 46.2332 102.649 46.4628 102.712C46.6993 102.768 46.9532 102.809 47.2246 102.837C47.4959 102.858 47.7532 102.868 47.9967 102.868C48.2193 102.868 48.4419 102.862 48.6646 102.848C48.8872 102.827 49.0889 102.802 49.2698 102.775ZM53.5413 104.308H55.6596C56.5152 104.308 57.3778 104.225 58.2474 104.058C59.117 103.884 59.9726 103.662 60.8143 103.39C61.6561 103.112 62.4735 102.802 63.2665 102.462C64.0596 102.114 64.8074 101.766 65.51 101.418C65.2248 101.383 64.9257 101.314 64.6126 101.209C64.3065 101.098 63.99 100.973 63.663 100.834C63.3361 100.688 63.0022 100.535 62.6613 100.375C62.3204 100.215 61.9796 100.072 61.6387 99.9467C61.2978 99.8146 60.9535 99.7067 60.6057 99.6233C60.2648 99.5328 59.9309 99.4876 59.6039 99.4876C59.3465 99.4876 59.0996 99.5363 58.863 99.6337C58.6335 99.7241 58.4143 99.8424 58.2057 99.9885C58.0039 100.128 57.8196 100.281 57.6526 100.448C57.4926 100.615 57.3535 100.771 57.2352 100.917C57.1239 101.056 57.037 101.175 56.9743 101.272L56.87 101.418L54.783 100.281C55.0265 99.8215 55.3326 99.3833 55.7013 98.9659C56.077 98.5415 56.4839 98.1694 56.9222 97.8494C57.3604 97.5224 57.8091 97.265 58.2683 97.0772C58.7343 96.8824 59.1796 96.785 59.6039 96.785C59.9587 96.785 60.3135 96.8267 60.6683 96.9102C61.03 96.9867 61.3917 97.0911 61.7535 97.2233C62.1222 97.3554 62.4909 97.505 62.8596 97.672C63.2352 97.8389 63.6178 98.0094 64.0074 98.1833C64.4109 98.3781 64.8526 98.5728 65.3326 98.7676C65.8126 98.9554 66.3065 99.1259 66.8143 99.2789C67.3222 99.425 67.83 99.5467 68.3378 99.6441C68.8526 99.7346 69.343 99.7798 69.8091 99.7798L69.3604 102.326C69.0961 102.437 68.8422 102.559 68.5987 102.691C68.3552 102.816 68.1048 102.938 67.8474 103.056C67.9865 103.348 68.1952 103.578 68.4735 103.745C68.7517 103.912 69.0439 104.037 69.35 104.121C69.663 104.204 69.9622 104.256 70.2474 104.277C70.5396 104.298 70.7691 104.308 70.9361 104.308H71.3535V106.98H70.9361C69.5726 106.98 68.4178 106.743 67.4717 106.27C66.5257 105.797 65.8439 105.126 65.4265 104.256C64.7239 104.604 63.997 104.942 63.2457 105.268C62.4943 105.595 61.7152 105.888 60.9083 106.145C60.1013 106.395 59.2596 106.597 58.383 106.75C57.5135 106.903 56.6057 106.98 55.6596 106.98H53.5413V104.308ZM61.4613 93.425L59.4578 95.4285L57.4648 93.425L59.4578 91.432L61.4613 93.425ZM71.3702 104.308C71.725 104.308 72.0589 104.239 72.3719 104.1C72.6919 103.954 72.9945 103.696 73.2798 103.328C73.5719 102.952 73.8432 102.441 74.0937 101.794C74.3511 101.147 74.5945 100.319 74.8241 99.3102L77.3806 100.03C77.2137 100.608 77.0641 101.164 76.9319 101.7C76.7998 102.228 76.7267 102.684 76.7128 103.067C76.7128 103.102 76.7128 103.133 76.7128 103.161C76.7128 103.286 76.7232 103.418 76.7441 103.557C76.7719 103.696 76.8171 103.825 76.8798 103.943C76.9424 104.062 77.0258 104.155 77.1302 104.225C77.2276 104.288 77.3354 104.319 77.4537 104.319C77.4676 104.319 77.4815 104.319 77.4954 104.319C77.7528 104.312 77.9963 104.218 78.2258 104.037C78.4554 103.856 78.6676 103.623 78.8624 103.338C79.0641 103.053 79.245 102.729 79.405 102.368C79.5719 102.006 79.718 101.641 79.8432 101.272C79.9754 100.896 80.0867 100.531 80.1771 100.176C80.2676 99.8215 80.3371 99.5085 80.3858 99.2372L82.8485 99.7381C82.758 100.155 82.685 100.542 82.6293 100.896C82.5737 101.244 82.5389 101.595 82.525 101.95C82.518 102.041 82.5145 102.131 82.5145 102.222C82.5145 102.395 82.525 102.601 82.5458 102.837C82.5737 103.067 82.6328 103.293 82.7232 103.515C82.8137 103.738 82.9389 103.922 83.0989 104.068C83.2658 104.208 83.4815 104.277 83.7458 104.277C84.045 104.277 84.285 104.162 84.4658 103.933C84.6537 103.696 84.7963 103.397 84.8937 103.035C84.9911 102.674 85.0537 102.274 85.0815 101.835C85.1163 101.39 85.1337 100.959 85.1337 100.542C85.1337 100.409 85.1302 100.305 85.1232 100.228C85.1232 100.145 85.1232 100.068 85.1232 99.9989C85.1232 99.9294 85.1198 99.8528 85.1128 99.7694C85.1128 99.6789 85.1128 99.5572 85.1128 99.4041L87.7528 99.1954C87.7737 99.425 87.7945 99.6511 87.8154 99.8737C87.8363 100.089 87.8571 100.315 87.878 100.552C87.8989 100.782 87.9232 101.028 87.9511 101.293C87.9858 101.55 88.0241 101.832 88.0658 102.138C88.1145 102.5 88.2154 102.816 88.3685 103.088C88.5285 103.359 88.7128 103.585 88.9215 103.766C89.1302 103.947 89.3528 104.082 89.5893 104.173C89.8328 104.263 90.0624 104.308 90.278 104.308H90.6641V106.98H90.3302C89.9893 106.98 89.6519 106.945 89.318 106.875C88.9911 106.806 88.678 106.698 88.3789 106.552C88.0798 106.406 87.798 106.222 87.5337 105.999C87.2763 105.769 87.0502 105.498 86.8554 105.185C86.5215 105.728 86.0832 106.162 85.5406 106.489C84.998 106.816 84.3998 106.98 83.7458 106.98C83.0919 106.98 82.4971 106.823 81.9615 106.51C81.4328 106.197 81.0119 105.78 80.6989 105.258C80.4971 105.515 80.278 105.752 80.0415 105.968C79.8119 106.176 79.5615 106.361 79.2902 106.521C79.0258 106.674 78.7441 106.792 78.445 106.875C78.1458 106.966 77.8328 107.011 77.5058 107.011C77.1928 107.011 76.8902 106.969 76.598 106.886C76.3058 106.809 76.0345 106.695 75.7841 106.542C75.5337 106.388 75.3076 106.204 75.1058 105.988C74.9041 105.766 74.7371 105.519 74.605 105.248C74.2571 105.86 73.8293 106.302 73.3215 106.573C72.8137 106.844 72.1667 106.98 71.3806 106.98H70.9319V104.308H71.3702ZM90.2444 104.308H91.9244C92.2514 104.308 92.5853 104.291 92.9262 104.256C93.274 104.215 93.587 104.135 93.8653 104.016C94.1436 103.891 94.3696 103.714 94.5436 103.484C94.7244 103.255 94.8149 102.948 94.8149 102.566C94.8149 102.385 94.7766 102.131 94.7001 101.804C94.6236 101.477 94.5227 101.115 94.3975 100.719C94.2723 100.322 94.1227 99.912 93.9488 99.4876C93.7818 99.0633 93.6044 98.6667 93.4166 98.2981L95.827 97.1085C96.001 97.505 96.1749 97.9259 96.3488 98.3711C96.5227 98.8163 96.6757 99.2754 96.8079 99.7485C96.947 100.215 97.0583 100.684 97.1418 101.157C97.2253 101.63 97.267 102.093 97.267 102.545C97.267 103.324 97.1349 103.995 96.8705 104.559C96.6062 105.115 96.2375 105.575 95.7644 105.936C95.2914 106.291 94.7244 106.552 94.0636 106.719C93.4096 106.893 92.6896 106.98 91.9036 106.98H90.2444V104.308ZM95.5766 93.5711L93.5731 95.5746L91.5801 93.5711L93.5731 91.5781L95.5766 93.5711Z" fill="#4D4D4D"/>
</svg>
