<svg width="17" height="24" viewBox="0 0 17 24" fill="none" xmlns="http://www.w3.org/2000/svg">
<path d="M7.5 11.9531C7.71875 11.7344 7.98438 11.625 8.29688 11.625C8.60938 11.625 8.875 11.7344 9.09375 11.9531C9.3125 12.1719 9.42188 12.4375 9.42188 12.75C9.42188 13.0625 9.3125 13.3281 9.09375 13.5469C8.875 13.7656 8.60938 13.875 8.29688 13.875C7.98438 13.875 7.71875 13.7656 7.5 13.5469C7.28125 13.3281 7.17188 13.0625 7.17188 12.75C7.17188 12.4375 7.28125 12.1719 7.5 11.9531ZM7.54688 10.125L7.21875 4.875C7.1875 4.625 7.3125 4.5 7.59375 4.5H9C9.28125 4.5 9.40625 4.625 9.375 4.875L9.04688 10.125C9.04688 10.375 8.92188 10.5 8.67188 10.5H7.92188C7.67188 10.5 7.54688 10.375 7.54688 10.125ZM8.29688 0C10.5781 0 12.5156 0.8125 14.1094 2.4375C15.7344 4.03125 16.5469 5.96875 16.5469 8.25C16.5469 10.3125 15.8594 12.125 14.4844 13.6875C13.9219 14.3125 13.3906 15.0938 12.8906 16.0312C12.3906 16.9375 12.1094 17.5938 12.0469 18V21.5156C12.0469 21.6719 12 21.8125 11.9062 21.9375L10.7812 23.6719C10.625 23.8906 10.4062 24 10.125 24H6.46875C6.1875 24 5.96875 23.8906 5.8125 23.6719L4.6875 21.9375C4.59375 21.8125 4.54688 21.6719 4.54688 21.5156V18C4.48438 17.625 4.20312 16.9688 3.70312 16.0312C3.20312 15.0938 2.67188 14.3125 2.10938 13.6875C0.734375 12.125 0.046875 10.3125 0.046875 8.25C0.046875 6.03125 0.828125 4.10938 2.39062 2.48438C3.98438 0.828125 5.95312 0 8.29688 0ZM10.5469 21.2812V21H6.04688V21.2812L6.84375 22.5H9.75L10.5469 21.2812ZM10.5469 19.5V18H6.04688V19.5H10.5469ZM13.3594 12.7031C14.4844 11.4219 15.0469 9.9375 15.0469 8.25C15.0469 6.375 14.3906 4.78125 13.0781 3.46875C11.7656 2.15625 10.1719 1.5 8.29688 1.5C6.35938 1.5 4.75 2.17187 3.46875 3.51562C2.1875 4.82812 1.54688 6.40625 1.54688 8.25C1.54688 9.9375 2.10938 11.4219 3.23438 12.7031C4.17188 13.7969 4.95312 15.0625 5.57812 16.5H11.0156C11.6406 15.0625 12.4219 13.7969 13.3594 12.7031Z" fill="#27AE60"/>
</svg>
