<svg width="62" height="17" viewBox="0 0 62 17" fill="none" xmlns="http://www.w3.org/2000/svg">
<path d="M8.09375 0.5625C8.28125 0.1875 8.58333 0 9 0C9.41667 0 9.71875 0.1875 9.90625 0.5625L11.9375 4.6875L16.5 5.375C16.9167 5.41667 17.1875 5.63542 17.3125 6.03125C17.4375 6.42708 17.3542 6.77083 17.0625 7.0625L13.75 10.2812L14.5312 14.8438C14.5938 15.2396 14.4583 15.5521 14.125 15.7812C13.7917 16.0312 13.4479 16.0625 13.0938 15.875L9 13.75L4.90625 15.875C4.55208 16.0833 4.20833 16.0625 3.875 15.8125C3.54167 15.5625 3.40625 15.2396 3.46875 14.8438L4.25 10.2812L0.9375 7.0625C0.645833 6.77083 0.5625 6.42708 0.6875 6.03125C0.8125 5.63542 1.08333 5.41667 1.5 5.375L6.0625 4.6875L8.09375 0.5625Z" fill="#F2C94C"/>
<path d="M30.0938 0.5625C30.2188 0.3125 30.375 0.15625 30.625 0.0625C30.875 0 31.0938 0 31.3438 0.0625C31.5938 0.15625 31.7812 0.3125 31.9062 0.5625L33.9375 4.6875L38.5 5.34375C38.75 5.40625 38.9688 5.53125 39.125 5.71875C39.2812 5.9375 39.3438 6.15625 39.3438 6.40625C39.3438 6.65625 39.25 6.875 39.0625 7.0625L35.75 10.2812L36.5312 14.8438C36.5625 15.0938 36.5 15.3438 36.375 15.5625C36.25 15.7812 36.0625 15.9062 35.8125 15.9688C35.5625 16.0312 35.3125 16 35.0938 15.875L31 13.75L26.9062 15.875C26.6562 16 26.4375 16.0312 26.1875 15.9688C25.9375 15.9062 25.7188 15.7812 25.5938 15.5625C25.4688 15.3438 25.4062 15.0938 25.4688 14.8438L26.25 10.2812L22.9375 7.0625C22.75 6.875 22.625 6.65625 22.625 6.40625C22.625 6.15625 22.6875 5.9375 22.8438 5.71875C23 5.53125 23.2188 5.40625 23.5 5.34375L28.0625 4.6875L30.0938 0.5625Z" fill="#F2C94C"/>
<path d="M60.5 5.375C60.9167 5.41667 61.1875 5.63542 61.3125 6.03125C61.4375 6.42708 61.3542 6.77083 61.0625 7.0625L57.75 10.2812L58.5312 14.8438C58.5938 15.2396 58.4583 15.5521 58.125 15.7812C57.7917 16.0312 57.4479 16.0625 57.0938 15.875L53 13.75L48.9062 15.875C48.5521 16.0833 48.2083 16.0625 47.875 15.8125C47.5417 15.5625 47.4062 15.2396 47.4688 14.8438L48.25 10.2812L44.9375 7.0625C44.6458 6.77083 44.5625 6.42708 44.6875 6.03125C44.8125 5.63542 45.0833 5.41667 45.5 5.375L50.0625 4.6875L52.0938 0.5625C52.2812 0.1875 52.5833 0 53 0C53.4167 0 53.7188 0.1875 53.9062 0.5625L55.9375 4.6875L60.5 5.375ZM56.1562 9.75L59.2812 6.6875L54.9375 6.0625L53 2.125L51.0625 6.0625L46.7188 6.6875L49.8438 9.75L49.125 14.0938L53 12.0312L56.875 14.0938L56.1562 9.75Z" fill="#F2C94C"/>
</svg>
