<svg width="48" height="49" viewBox="0 0 48 49" fill="none" xmlns="http://www.w3.org/2000/svg">
<path d="M20.6254 11.2588C21.5171 10.9405 22.3907 10.7437 23.238 10.6538L20.6555 14.926L20.4448 15.2753C19.8228 16.3061 19.2045 17.3307 18.6501 18.3918C18.0294 19.5589 18.0023 20.8335 18.3352 22.0935C19.0874 24.9885 22.5364 27.4171 26.2693 25.7543C28.4787 24.7765 29.6662 22.9576 29.6508 20.5079C29.6387 18.1531 28.4442 16.4811 26.3622 15.4281C26.0045 15.247 25.6091 15.1307 25.2074 15.0125C25.0197 14.9572 24.8304 14.9016 24.6431 14.8387C24.8799 14.4521 25.5138 13.3833 26.1477 12.3145C26.4288 11.8404 26.7102 11.366 26.9567 10.9514C30.8112 12.0164 33.6243 15.3269 34.263 18.8586C34.679 21.1536 34.4558 23.4083 33.2077 25.4115C32.0657 27.2477 30.8068 29.0176 29.5522 30.7814C29.4244 30.961 29.2967 31.1406 29.1692 31.3202C28.1269 32.7783 27.0626 34.2234 25.9995 35.6668C25.4481 36.4155 24.8968 37.164 24.3493 37.9134C24.258 38.0341 24.1667 38.1549 24.0145 38.3462L23.4458 37.9596C21.9972 36.9749 20.565 36.0014 19.0932 35.0043C19.6689 34.2024 20.2413 33.4137 20.8028 32.6401C21.2209 32.064 21.633 31.4962 22.0358 30.9376C21.7285 30.8109 21.4184 30.6949 21.1105 30.5798C20.3917 30.3111 19.6848 30.0469 19.0526 29.6593C15.491 27.4951 13.5732 24.3646 13.8776 20.1571C14.1922 15.7885 16.5463 12.7183 20.6254 11.2588Z" fill="#808080"/>
<path fill-rule="evenodd" clip-rule="evenodd" d="M24 48.5C37.2548 48.5 48 37.7548 48 24.5C48 11.2452 37.2548 0.5 24 0.5C10.7452 0.5 0 11.2452 0 24.5C0 37.7548 10.7452 48.5 24 48.5ZM46.1538 24.5C46.1538 36.7352 36.2352 46.6538 24 46.6538C11.7648 46.6538 1.84615 36.7352 1.84615 24.5C1.84615 12.2648 11.7648 2.34615 24 2.34615C36.2352 2.34615 46.1538 12.2648 46.1538 24.5Z" fill="#808080"/>
</svg>
