<svg width="28" height="28" viewBox="0 0 28 28" fill="none" xmlns="http://www.w3.org/2000/svg">
<rect width="28" height="28" rx="14" fill="#2692FF"/>
<path d="M14.793 7.35156C15.0846 8.29948 15.4766 9.21094 15.9688 10.0859C16.4609 10.9427 16.9076 11.6172 17.3086 12.1094C17.7096 12.6016 18.056 13.1849 18.3477 13.8594C18.6576 14.5156 18.8125 15.1901 18.8125 15.8828C18.8125 17.2318 18.3385 18.3802 17.3906 19.3281C16.4609 20.276 15.3307 20.75 14 20.75C12.6693 20.75 11.5299 20.276 10.582 19.3281C9.65234 18.3802 9.1875 17.2318 9.1875 15.8828C9.1875 15.1901 9.33333 14.5156 9.625 13.8594C9.9349 13.2031 10.2904 12.6198 10.6914 12.1094C11.1107 11.599 11.5573 10.9154 12.0312 10.0586C12.5234 9.20182 12.9154 8.29948 13.207 7.35156C13.3164 6.95052 13.5807 6.75 14 6.75C14.4193 6.75 14.6836 6.95052 14.793 7.35156ZM11.2109 18.6992C11.9766 19.4831 12.9062 19.875 14 19.875C15.0938 19.875 16.0234 19.4831 16.7891 18.6992C17.5547 17.9154 17.9375 16.9766 17.9375 15.8828C17.9375 15.4635 17.8646 15.0443 17.7188 14.625C17.5729 14.2057 17.418 13.8685 17.2539 13.6133C17.0898 13.3398 16.8164 12.9388 16.4336 12.4102C16.2148 12.1003 16.0417 11.8633 15.9141 11.6992C15.8047 11.5169 15.6406 11.2526 15.4219 10.9062C15.2214 10.5599 15.0482 10.25 14.9023 9.97656C14.7565 9.6849 14.6016 9.33854 14.4375 8.9375C14.2734 8.53646 14.1276 8.13542 14 7.73438C13.7995 8.39062 13.5352 9.03776 13.207 9.67578C12.8971 10.3138 12.6328 10.7969 12.4141 11.125C12.2135 11.4531 11.931 11.8815 11.5664 12.4102C11.2018 12.9388 10.9284 13.3398 10.7461 13.6133C10.582 13.8867 10.4271 14.2331 10.2812 14.6523C10.1354 15.0534 10.0625 15.4635 10.0625 15.8828C10.0625 16.9766 10.4453 17.9154 11.2109 18.6992ZM14 18.125C14.1276 18.125 14.2279 18.1706 14.3008 18.2617C14.3919 18.3346 14.4375 18.4349 14.4375 18.5625C14.4375 18.6901 14.3919 18.7995 14.3008 18.8906C14.2279 18.9635 14.1276 19 14 19C13.1615 19 12.4414 18.6992 11.8398 18.0977C11.2383 17.4961 10.9375 16.776 10.9375 15.9375C10.9375 15.8099 10.974 15.7096 11.0469 15.6367C11.138 15.5456 11.2474 15.5 11.375 15.5C11.5026 15.5 11.6029 15.5456 11.6758 15.6367C11.7669 15.7096 11.8125 15.8099 11.8125 15.9375C11.8125 16.5391 12.0221 17.0586 12.4414 17.4961C12.8789 17.9154 13.3984 18.125 14 18.125Z" fill="white"/>
</svg>
