<svg width="18" height="24" viewBox="0 0 18 24" fill="none" xmlns="http://www.w3.org/2000/svg">
<path d="M6.00018 16.6406C6.43768 16.7969 6.79705 17.0781 7.0783 17.4844C7.35955 17.8594 7.50018 18.2812 7.50018 18.75C7.50018 19.375 7.28143 19.9062 6.84393 20.3438C6.40643 20.7812 5.87518 21 5.25018 21C4.62518 21 4.09393 20.7812 3.65643 20.3438C3.21893 19.9062 3.00018 19.375 3.00018 18.75C3.00018 18.2812 3.1408 17.8594 3.42205 17.4844C3.7033 17.0781 4.06268 16.7969 4.50018 16.6406V14.25C4.50018 14.0312 4.56268 13.8594 4.68768 13.7344C4.84393 13.5781 5.03143 13.5 5.25018 13.5C5.46893 13.5 5.6408 13.5781 5.7658 13.7344C5.92205 13.8594 6.00018 14.0312 6.00018 14.25V16.6406ZM12.8908 0.890625C13.4846 0.296875 14.1877 0 15.0002 0C15.8127 0 16.5158 0.296875 17.1096 0.890625C17.7033 1.48438 18.0002 2.1875 18.0002 3C18.0002 3.8125 17.7033 4.51562 17.1096 5.10938C16.5158 5.70313 15.8127 6 15.0002 6C14.1877 6 13.4846 5.70313 12.8908 5.10938C12.2971 4.51562 12.0002 3.8125 12.0002 3C12.0002 2.1875 12.2971 1.48438 12.8908 0.890625ZM13.9221 4.07812C14.2346 4.35938 14.5939 4.5 15.0002 4.5C15.4064 4.5 15.7502 4.35938 16.0314 4.07812C16.3439 3.76562 16.5002 3.40625 16.5002 3C16.5002 2.59375 16.3439 2.25 16.0314 1.96875C15.7502 1.65625 15.4064 1.5 15.0002 1.5C14.5939 1.5 14.2346 1.65625 13.9221 1.96875C13.6408 2.25 13.5002 2.59375 13.5002 3C13.5002 3.40625 13.6408 3.76562 13.9221 4.07812ZM9.00018 3.75V15.0938C10.0002 16.125 10.5002 17.3438 10.5002 18.75C10.5002 20.1875 9.98455 21.4219 8.9533 22.4531C7.92205 23.4844 6.68768 24 5.25018 24C3.81268 24 2.5783 23.4844 1.54705 22.4531C0.515802 21.4219 0.000177383 20.1875 0.000177383 18.75C0.000177383 17.3438 0.500177 16.125 1.50018 15.0938V3.75C1.50018 2.71875 1.85955 1.84375 2.5783 1.125C3.3283 0.375 4.21893 0 5.25018 0C6.28143 0 7.15643 0.375 7.87518 1.125C8.62518 1.84375 9.00018 2.71875 9.00018 3.75ZM2.5783 21.375C3.3283 22.125 4.21893 22.5 5.25018 22.5C6.28143 22.5 7.15643 22.125 7.87518 21.375C8.62518 20.6562 9.00018 19.7812 9.00018 18.75C9.00018 17.5 8.50018 16.5 7.50018 15.75V3.75C7.50018 3.125 7.28143 2.59375 6.84393 2.15625C6.40643 1.71875 5.87518 1.5 5.25018 1.5C4.62518 1.5 4.09393 1.71875 3.65643 2.15625C3.21893 2.59375 3.00018 3.125 3.00018 3.75V15.75C2.00018 16.5 1.50018 17.5 1.50018 18.75C1.50018 19.7812 1.85955 20.6562 2.5783 21.375Z" fill="#999999"/>
</svg>
