<svg width="28" height="22" viewBox="0 0 28 22" fill="none" xmlns="http://www.w3.org/2000/svg">
<path d="M6.8283 8.42188C6.60955 8.20312 6.50018 7.9375 6.50018 7.625C6.50018 7.3125 6.60955 7.04688 6.8283 6.82812C7.04705 6.60937 7.31268 6.5 7.62518 6.5C7.93768 6.5 8.2033 6.60937 8.42205 6.82812C8.6408 7.04688 8.75018 7.3125 8.75018 7.625C8.75018 7.9375 8.6408 8.20312 8.42205 8.42188C8.2033 8.64062 7.93768 8.75 7.62518 8.75C7.31268 8.75 7.04705 8.64062 6.8283 8.42188ZM14.7971 5.79688C14.5783 6.01563 14.3127 6.125 14.0002 6.125C13.6877 6.125 13.4221 6.01563 13.2033 5.79688C12.9846 5.57812 12.8752 5.3125 12.8752 5C12.8752 4.6875 12.9846 4.42188 13.2033 4.20312C13.4221 3.98437 13.6877 3.875 14.0002 3.875C14.3127 3.875 14.5783 3.98437 14.7971 4.20312C15.0158 4.42188 15.1252 4.6875 15.1252 5C15.1252 5.3125 15.0158 5.57812 14.7971 5.79688ZM27.5002 14C27.5002 16.4375 26.8908 18.7031 25.6721 20.7969C25.3908 21.2656 24.9689 21.5 24.4064 21.5H3.59393C3.03143 21.5 2.60955 21.2656 2.3283 20.7969C1.10955 18.7031 0.500177 16.4375 0.500177 14C0.500177 10.2812 1.81268 7.10938 4.43768 4.48438C7.09393 1.82812 10.2814 0.5 14.0002 0.5C17.7189 0.5 20.8908 1.82812 23.5158 4.48438C26.1721 7.10938 27.5002 10.2812 27.5002 14ZM26.0002 14C26.0002 10.6875 24.8283 7.85938 22.4846 5.51562C20.1408 3.17188 17.3127 2 14.0002 2C10.6877 2 7.85955 3.17188 5.5158 5.51562C3.17205 7.85938 2.00018 10.6875 2.00018 14C2.00018 16.1562 2.54705 18.1719 3.6408 20.0469L24.4064 20C25.4689 18.1562 26.0002 16.1562 26.0002 14ZM16.1096 13.3906C16.7033 13.9531 17.0002 14.6562 17.0002 15.5C17.0002 16.3438 16.7033 17.0625 16.1096 17.6562C15.5471 18.2188 14.8439 18.5 14.0002 18.5C13.6877 18.5 13.3908 18.4531 13.1096 18.3594C12.8283 18.2656 12.5627 18.1406 12.3127 17.9844C12.0627 17.7969 11.8439 17.5938 11.6564 17.375C11.5002 17.1562 11.3596 16.9062 11.2346 16.625C11.1096 16.3438 11.0471 16.0625 11.0471 15.7812L4.85955 14.75C4.67205 14.7188 4.5158 14.625 4.3908 14.4688C4.2658 14.2812 4.21893 14.0938 4.25018 13.9062C4.28143 13.6875 4.37518 13.5156 4.53143 13.3906C4.71893 13.2656 4.92205 13.2188 5.1408 13.25L11.2814 14.2812C11.5002 13.75 11.8596 13.3281 12.3596 13.0156C12.8596 12.6719 13.4064 12.5 14.0002 12.5C14.8439 12.5 15.5471 12.7969 16.1096 13.3906ZM15.0314 16.5781C15.3439 16.2656 15.5002 15.9062 15.5002 15.5C15.5002 15.0938 15.3439 14.75 15.0314 14.4688C14.7502 14.1562 14.4064 14 14.0002 14C13.5939 14 13.2346 14.1562 12.9221 14.4688C12.6408 14.75 12.5002 15.0938 12.5002 15.5C12.5002 15.9062 12.6408 16.2656 12.9221 16.5781C13.2346 16.8594 13.5939 17 14.0002 17C14.4064 17 14.7502 16.8594 15.0314 16.5781ZM22.2033 13.2031C22.4221 12.9844 22.6877 12.875 23.0002 12.875C23.3127 12.875 23.5783 12.9844 23.7971 13.2031C24.0158 13.4219 24.1252 13.6875 24.1252 14C24.1252 14.3125 24.0158 14.5781 23.7971 14.7969C23.5783 15.0156 23.3127 15.125 23.0002 15.125C22.6877 15.125 22.4221 15.0156 22.2033 14.7969C21.9846 14.5781 21.8752 14.3125 21.8752 14C21.8752 13.6875 21.9846 13.4219 22.2033 13.2031ZM19.5783 6.82812C19.7971 6.60937 20.0627 6.5 20.3752 6.5C20.6877 6.5 20.9533 6.60937 21.1721 6.82812C21.3908 7.04688 21.5002 7.3125 21.5002 7.625C21.5002 7.9375 21.3908 8.20312 21.1721 8.42188C20.9533 8.64062 20.6877 8.75 20.3752 8.75C20.0627 8.75 19.7971 8.64062 19.5783 8.42188C19.3596 8.20312 19.2502 7.9375 19.2502 7.625C19.2502 7.3125 19.3596 7.04688 19.5783 6.82812Z" fill="#999999"/>
</svg>
