<svg width="30" height="24" viewBox="0 0 30 24" fill="none" xmlns="http://www.w3.org/2000/svg">
<path d="M25.5002 14.25C26.7502 14.3438 27.8127 14.8594 28.6877 15.7969C29.5627 16.7344 30.0002 17.8438 30.0002 19.125C30.0002 20.4688 29.5158 21.6094 28.5471 22.5469C27.6096 23.5156 26.4689 24 25.1252 24H10.8752C9.53143 24 8.37518 23.5156 7.40643 22.5469C6.46893 21.6094 6.00018 20.4688 6.00018 19.125C6.00018 18.1562 6.2658 17.2656 6.79705 16.4531C7.35955 15.6094 8.09393 15 9.00018 14.625C9.00018 13.0625 9.54705 11.7344 10.6408 10.6406C11.7346 9.54688 13.0627 9 14.6252 9C16.4689 9 17.9533 9.73438 19.0783 11.2031C19.7658 10.7344 20.5314 10.5 21.3752 10.5C22.4377 10.5 23.3596 10.8594 24.1408 11.5781C24.9533 12.2969 25.4064 13.1875 25.5002 14.25ZM25.1252 22.5C26.0627 22.5 26.8596 22.1719 27.5158 21.5156C28.1721 20.8594 28.5002 20.0625 28.5002 19.125C28.5002 18.1875 28.1721 17.3906 27.5158 16.7344C26.8596 16.0781 26.0627 15.75 25.1252 15.75C25.0939 15.75 25.0314 15.75 24.9377 15.75L23.8596 15.8906L23.9533 14.9531C23.9846 14.7656 24.0002 14.6562 24.0002 14.625C24.0002 13.9062 23.7346 13.2969 23.2033 12.7969C22.7033 12.2656 22.0939 12 21.3752 12C20.6252 12 19.9846 12.2812 19.4533 12.8438L18.7502 13.6406L18.2346 12.7031C17.8908 12.0156 17.3908 11.4844 16.7346 11.1094C16.0783 10.7031 15.3752 10.5 14.6252 10.5C13.5002 10.5 12.5314 10.9062 11.7189 11.7188C10.9064 12.5312 10.5002 13.5 10.5002 14.625C10.5002 14.6875 10.5158 14.7812 10.5471 14.9062L10.6408 15.7031L9.98455 15.8906C9.5158 16.0156 9.0783 16.2344 8.67205 16.5469C8.29705 16.8594 8.00018 17.25 7.78143 17.7188C7.59393 18.1562 7.50018 18.625 7.50018 19.125C7.50018 20.0625 7.8283 20.8594 8.48455 21.5156C9.1408 22.1719 9.93768 22.5 10.8752 22.5H25.1252ZM4.35955 15.1406L6.23455 14.7656C5.7658 15.2656 5.37518 15.8438 5.06268 16.5L3.5158 16.8281C3.48455 16.8281 3.43768 16.8281 3.37518 16.8281C3.18768 16.8281 3.0158 16.7656 2.85955 16.6406C2.67205 16.4531 2.59393 16.2188 2.62518 15.9375L3.37518 12.375L0.328302 10.3594C0.109552 10.2031 0.000177383 10 0.000177383 9.75C0.000177383 9.46875 0.109552 9.25 0.328302 9.09375L3.37518 7.07812L2.67205 3.51562C2.60955 3.26563 2.67205 3.04688 2.85955 2.85938C3.04705 2.64062 3.2658 2.5625 3.5158 2.625L7.12518 3.32812L9.1408 0.328125C9.2658 0.109375 9.46893 0 9.75018 0C10.0314 0 10.2346 0.109375 10.3596 0.328125L12.3752 3.32812L15.9846 2.625C16.2346 2.5625 16.4533 2.625 16.6408 2.8125C16.8283 3 16.8908 3.23438 16.8283 3.51562L16.0314 7.59375C16.0314 7.59375 16.0314 7.60937 16.0314 7.64062C15.5314 7.54688 15.0627 7.5 14.6252 7.5C14.6252 7.5 14.6096 7.5 14.5783 7.5C14.5783 7.40625 14.5783 7.32812 14.5783 7.26562L15.1408 4.3125L12.1877 4.92188C11.8752 4.98437 11.6252 4.875 11.4377 4.59375L9.75018 2.0625L8.06268 4.59375C7.87518 4.875 7.62518 4.98437 7.31268 4.92188L4.35955 4.3125L4.92205 7.26562C4.98455 7.60937 4.87518 7.875 4.59393 8.0625L2.10955 9.75L4.59393 11.3906C4.87518 11.5781 4.98455 11.8438 4.92205 12.1875L4.35955 15.1406ZM9.75018 7.03125C9.00018 7.03125 8.35955 7.29688 7.8283 7.82812C7.29705 8.35938 7.03143 9 7.03143 9.75C7.03143 10.5938 7.3908 11.2969 8.10955 11.8594C7.8908 12.3594 7.73455 12.8594 7.6408 13.3594C7.0158 12.9844 6.50018 12.4844 6.09393 11.8594C5.71893 11.2031 5.53143 10.5 5.53143 9.75C5.53143 8.5625 5.93768 7.5625 6.75018 6.75C7.59393 5.9375 8.59393 5.53125 9.75018 5.53125C10.5002 5.53125 11.1877 5.71875 11.8127 6.09375C12.4689 6.46875 12.9846 6.96875 13.3596 7.59375C12.8596 7.6875 12.3596 7.84375 11.8596 8.0625C11.3283 7.375 10.6252 7.03125 9.75018 7.03125Z" fill="#999999"/>
</svg>
