<svg width="18" height="24" viewBox="0 0 18 24" fill="none" xmlns="http://www.w3.org/2000/svg">
<path d="M7.12518 12.75C7.37518 13 7.50018 13.3125 7.50018 13.6875C7.50018 14.0625 7.37518 14.375 7.12518 14.625C6.87518 14.875 6.56268 15 6.18768 15C5.81268 15 5.50018 14.875 5.25018 14.625C5.00018 14.375 4.87518 14.0625 4.87518 13.6875C4.87518 13.3125 5.00018 13 5.25018 12.75C5.50018 12.5 5.81268 12.375 6.18768 12.375C6.56268 12.375 6.87518 12.5 7.12518 12.75ZM10.8752 16.875C11.1252 16.625 11.4377 16.5 11.8127 16.5C12.1877 16.5 12.5002 16.625 12.7502 16.875C13.0002 17.125 13.1252 17.4375 13.1252 17.8125C13.1252 18.1875 13.0002 18.5 12.7502 18.75C12.5002 19 12.1877 19.125 11.8127 19.125C11.4377 19.125 11.1252 19 10.8752 18.75C10.6252 18.5 10.5002 18.1875 10.5002 17.8125C10.5002 17.4375 10.6252 17.125 10.8752 16.875ZM10.5002 1.03125C10.9377 2.375 11.5002 3.65625 12.1877 4.875C12.8752 6.09375 13.5314 7.10938 14.1564 7.92188C14.8127 8.73438 15.4377 9.54688 16.0314 10.3594C16.6252 11.1406 17.0939 11.9844 17.4377 12.8906C17.8127 13.7656 18.0002 14.6875 18.0002 15.6562C18.0002 17.9688 17.1252 19.9375 15.3752 21.5625C13.6252 23.1875 11.5002 24 9.00018 24C6.50018 24 4.37518 23.1875 2.62518 21.5625C0.875177 19.9375 0.000177383 17.9688 0.000177383 15.6562C0.000177383 14.9375 0.0939274 14.25 0.281427 13.5938C0.468927 12.9375 0.734552 12.3281 1.0783 11.7656C1.42205 11.1719 1.79705 10.5938 2.2033 10.0312C2.60955 9.46875 3.04705 8.875 3.5158 8.25C4.0158 7.59375 4.50018 6.9375 4.96893 6.28125C5.43768 5.59375 5.8908 4.79687 6.3283 3.89062C6.79705 2.98438 7.18768 2.03125 7.50018 1.03125C7.71893 0.34375 8.21893 0 9.00018 0C9.78143 0 10.2814 0.34375 10.5002 1.03125ZM3.7033 20.4844C5.17205 21.8281 6.93768 22.5 9.00018 22.5C11.0627 22.5 12.8283 21.8281 14.2971 20.4844C15.7658 19.1406 16.5002 17.5312 16.5002 15.6562C16.5002 14.6562 16.2814 13.75 15.8439 12.9375C15.4377 12.125 14.7346 11.0625 13.7346 9.75C13.0158 8.84375 12.4533 8.10938 12.0471 7.54688C11.6408 6.95312 11.1408 6.09375 10.5471 4.96875C9.9533 3.8125 9.46893 2.65625 9.09393 1.5H9.04705C9.0158 1.5 9.00018 1.5 9.00018 1.5C8.93768 1.5 8.90643 1.5 8.90643 1.5C8.53143 2.65625 8.04705 3.79688 7.4533 4.92188C6.85955 6.04688 6.35955 6.90625 5.9533 7.5C5.54705 8.0625 5.00018 8.8125 4.31268 9.75C3.62518 10.6562 3.12518 11.3438 2.81268 11.8125C2.50018 12.25 2.2033 12.8281 1.92205 13.5469C1.6408 14.2344 1.50018 14.9375 1.50018 15.6562C1.50018 17.5312 2.23455 19.1406 3.7033 20.4844ZM11.8596 12.5625C12.0471 12.7188 12.0627 12.8906 11.9064 13.0781L7.2658 19.3594C7.10955 19.5469 6.93768 19.5625 6.75018 19.4062L6.1408 18.9375C5.9533 18.7812 5.93768 18.6094 6.09393 18.4219L10.7346 12.1406C10.8908 11.9531 11.0627 11.9375 11.2502 12.0938L11.8596 12.5625Z" fill="#999999"/>
</svg>
