<svg width="22" height="24" viewBox="0 0 22 24" fill="none" xmlns="http://www.w3.org/2000/svg">
<path d="M13.7189 7.17188C13.5002 7.39063 13.2346 7.5 12.9221 7.5C12.6096 7.5 12.3439 7.39063 12.1252 7.17188C11.9064 6.95312 11.7971 6.6875 11.7971 6.375C11.7971 6.0625 11.9064 5.79688 12.1252 5.57812C12.3439 5.35937 12.6096 5.25 12.9221 5.25C13.2346 5.25 13.5002 5.35937 13.7189 5.57812C13.9377 5.79688 14.0471 6.0625 14.0471 6.375C14.0471 6.6875 13.9377 6.95312 13.7189 7.17188ZM9.96893 7.17188C9.75018 7.39063 9.48455 7.5 9.17205 7.5C8.85955 7.5 8.59393 7.39063 8.37518 7.17188C8.15643 6.95312 8.04705 6.6875 8.04705 6.375C8.04705 6.0625 8.15643 5.79688 8.37518 5.57812C8.59393 5.35937 8.85955 5.25 9.17205 5.25C9.48455 5.25 9.75018 5.35937 9.96893 5.57812C10.1877 5.79688 10.2971 6.0625 10.2971 6.375C10.2971 6.6875 10.1877 6.95312 9.96893 7.17188ZM6.87518 10.6875C5.15643 9.46875 4.29705 7.90625 4.29705 6C4.29705 4.34375 4.9533 2.9375 6.2658 1.78125C7.5783 0.59375 9.17205 0 11.0471 0C12.9221 0 14.5158 0.59375 15.8283 1.78125C17.1408 2.9375 17.7971 4.34375 17.7971 6C17.7971 7.90625 16.9377 9.46875 15.2189 10.6875L15.5002 12.0938C15.5939 12.4688 15.5471 12.7969 15.3596 13.0781C15.1721 13.3594 14.9221 13.5 14.6096 13.5H7.48455C7.29705 13.5 7.12518 13.4375 6.96893 13.3125C6.81268 13.1562 6.68768 12.9844 6.59393 12.7969C6.53143 12.5781 6.53143 12.3438 6.59393 12.0938L6.87518 10.6875ZM14.7502 2.8125C13.7189 1.9375 12.4846 1.5 11.0471 1.5C9.60955 1.5 8.37518 1.9375 7.34393 2.8125C6.31268 3.6875 5.79705 4.75 5.79705 6C5.79705 7.40625 6.43768 8.5625 7.71893 9.46875L8.56268 10.0312L8.3283 11.0156L8.1408 12H13.9533L13.7658 11.0156L13.5314 10.0312L14.3752 9.46875C15.6564 8.5625 16.2971 7.40625 16.2971 6C16.2971 4.75 15.7814 3.6875 14.7502 2.8125ZM13.1564 19.5L21.3127 22.5938C21.5314 22.6875 21.5939 22.8438 21.5002 23.0625L21.2189 23.7656C21.1564 23.9219 21.0471 24 20.8908 24C20.8283 24 20.7814 23.9844 20.7502 23.9531L11.0471 20.2969L1.34393 23.9531C1.31268 23.9844 1.2658 24 1.2033 24C1.04705 24 0.937677 23.9219 0.875177 23.7656L0.593927 23.0625C0.468927 22.8438 0.531427 22.6875 0.781427 22.5938L8.93768 19.5L0.781427 16.4062C0.562677 16.3125 0.500177 16.1562 0.593927 15.9375L0.875177 15.2344C0.937677 15.0781 1.04705 15 1.2033 15C1.2658 15 1.31268 15.0156 1.34393 15.0469L11.0471 18.7031L20.7502 15.0469C20.7814 15.0156 20.8283 15 20.8908 15C21.0471 15 21.1564 15.0781 21.2189 15.2344L21.5002 15.9375C21.6252 16.1562 21.5627 16.3125 21.3127 16.4062L13.1564 19.5Z" fill="#999999"/>
</svg>
