<svg width="28" height="24" viewBox="0 0 28 24" fill="none" xmlns="http://www.w3.org/2000/svg">
<path fill-rule="evenodd" clip-rule="evenodd" d="M26.3594 17.9492V0H28V24H0V0H1.64062V17.9492H26.3594ZM1.64062 20.2493V22.5937H26.3594V20.2493C25.9464 20.4315 25.4787 20.5352 24.9831 20.5352C24.1178 20.5352 23.3371 20.2209 22.7865 19.7191C22.2358 20.2209 21.4551 20.5352 20.5898 20.5352C19.7246 20.5352 18.9439 20.2209 18.3932 19.7191C17.8426 20.2209 17.0618 20.5352 16.1966 20.5352C15.3314 20.5352 14.5506 20.2209 14 19.7191C13.4493 20.2209 12.6686 20.5352 11.8034 20.5352C10.9382 20.5352 10.1574 20.2209 9.60679 19.7191C9.05614 20.2209 8.27537 20.5352 7.41015 20.5352C6.54494 20.5352 5.76417 20.2209 5.21352 19.7191C4.66293 20.2209 3.88215 20.5352 3.01694 20.5352C2.52131 20.5352 2.05362 20.4315 1.64062 20.2493Z" fill="#999999"/>
<path d="M20.2344 7.66764C20.3964 7.50561 20.3964 7.33344 20.2344 7.15115L19.6267 6.54351C19.4647 6.38147 19.2925 6.38147 19.1102 6.54351L14.401 11.2527V0.89247C14.401 0.649414 14.2795 0.527886 14.0365 0.527886L13.1858 0.527886C12.9427 0.527886 12.8212 0.649414 12.8212 0.892469V11.2527L8.11198 6.54351C8.03096 6.48275 7.93981 6.45237 7.83854 6.45237C7.73727 6.45237 7.65625 6.48275 7.59549 6.54351L6.98785 7.15115C6.82581 7.33344 6.82581 7.50561 6.98785 7.66764L13.3681 14.0175C13.5301 14.1998 13.6921 14.1998 13.8542 14.0175L20.2344 7.66764Z" fill="#999999"/>
</svg>
