<svg width="28" height="28" viewBox="0 0 28 28" fill="none" xmlns="http://www.w3.org/2000/svg">
<rect width="28" height="28" rx="14" fill="#FF9E48"/>
<path d="M21.875 10.25C22.112 10.25 22.3125 10.3411 22.4766 10.5234C22.6589 10.6875 22.75 10.888 22.75 11.125V16.375C22.75 16.612 22.6589 16.8216 22.4766 17.0039C22.3125 17.168 22.112 17.25 21.875 17.25H6.125C5.88802 17.25 5.67839 17.168 5.49609 17.0039C5.33203 16.8216 5.25 16.612 5.25 16.375V11.125C5.25 10.888 5.33203 10.6875 5.49609 10.5234C5.67839 10.3411 5.88802 10.25 6.125 10.25H21.875ZM21.875 16.375V11.125H19.6875V12.6562C19.6875 12.8021 19.6146 12.875 19.4688 12.875H19.0312C18.8854 12.875 18.8125 12.8021 18.8125 12.6562V11.125H17.0625V12.6562C17.0625 12.8021 16.9896 12.875 16.8438 12.875H16.4062C16.2604 12.875 16.1875 12.8021 16.1875 12.6562V11.125H14.4375V12.6562C14.4375 12.8021 14.3646 12.875 14.2188 12.875H13.7812C13.6354 12.875 13.5625 12.8021 13.5625 12.6562V11.125H11.8125V12.6562C11.8125 12.8021 11.7396 12.875 11.5938 12.875H11.1562C11.0104 12.875 10.9375 12.8021 10.9375 12.6562V11.125H9.1875V12.6562C9.1875 12.8021 9.11458 12.875 8.96875 12.875H8.53125C8.38542 12.875 8.3125 12.8021 8.3125 12.6562V11.125H6.125V16.375H21.875Z" fill="white"/>
</svg>
