<svg width="28" height="28" viewBox="0 0 28 28" fill="none" xmlns="http://www.w3.org/2000/svg">
<rect width="28" height="28" rx="14" fill="#AF52DE"/>
<path d="M20.8906 19.9297C21.0547 20.0755 21.0547 20.2305 20.8906 20.3945L20.6445 20.6406C20.4805 20.8047 20.3255 20.8047 20.1797 20.6406L16.6523 17.1406C16.5794 17.0677 16.543 16.9857 16.543 16.8945V16.6211C15.4492 17.6237 14.1641 18.125 12.6875 18.125C11.1198 18.125 9.77995 17.569 8.66797 16.457C7.55599 15.3451 7 14.0052 7 12.4375C7 10.8698 7.55599 9.52995 8.66797 8.41797C9.77995 7.30599 11.1198 6.75 12.6875 6.75C14.2552 6.75 15.5951 7.30599 16.707 8.41797C17.819 9.52995 18.375 10.8698 18.375 12.4375C18.375 13.9141 17.8737 15.1992 16.8711 16.293H17.1445C17.2357 16.293 17.3177 16.3294 17.3906 16.4023L20.8906 19.9297ZM9.26953 15.8555C10.2174 16.7852 11.3568 17.25 12.6875 17.25C14.0182 17.25 15.1484 16.7852 16.0781 15.8555C17.026 14.9076 17.5 13.7682 17.5 12.4375C17.5 11.1068 17.026 9.97656 16.0781 9.04688C15.1484 8.09896 14.0182 7.625 12.6875 7.625C11.3568 7.625 10.2174 8.09896 9.26953 9.04688C8.33984 9.97656 7.875 11.1068 7.875 12.4375C7.875 13.7682 8.33984 14.9076 9.26953 15.8555Z" fill="white"/>
</svg>
