<svg width="29" height="28" viewBox="0 0 29 28" fill="none" xmlns="http://www.w3.org/2000/svg">
<rect x="0.5" width="28" height="28" rx="14" fill="#32C770"/>
<path d="M12.75 16.457C13.0052 16.5482 13.2148 16.7122 13.3789 16.9492C13.543 17.168 13.625 17.4141 13.625 17.6875C13.625 18.0521 13.4974 18.362 13.2422 18.6172C12.987 18.8724 12.6771 19 12.3125 19C11.9479 19 11.638 18.8724 11.3828 18.6172C11.1276 18.362 11 18.0521 11 17.6875C11 17.4141 11.082 17.168 11.2461 16.9492C11.4102 16.7122 11.6198 16.5482 11.875 16.457V15.0625C11.875 14.9349 11.9115 14.8346 11.9844 14.7617C12.0755 14.6706 12.1849 14.625 12.3125 14.625C12.4401 14.625 12.5404 14.6706 12.6133 14.7617C12.7044 14.8346 12.75 14.9349 12.75 15.0625V16.457ZM16.7695 7.26953C17.1159 6.92318 17.526 6.75 18 6.75C18.474 6.75 18.8841 6.92318 19.2305 7.26953C19.5768 7.61589 19.75 8.02604 19.75 8.5C19.75 8.97396 19.5768 9.38411 19.2305 9.73047C18.8841 10.0768 18.474 10.25 18 10.25C17.526 10.25 17.1159 10.0768 16.7695 9.73047C16.4232 9.38411 16.25 8.97396 16.25 8.5C16.25 8.02604 16.4232 7.61589 16.7695 7.26953ZM17.3711 9.12891C17.5534 9.29297 17.763 9.375 18 9.375C18.237 9.375 18.4375 9.29297 18.6016 9.12891C18.7839 8.94661 18.875 8.73698 18.875 8.5C18.875 8.26302 18.7839 8.0625 18.6016 7.89844C18.4375 7.71615 18.237 7.625 18 7.625C17.763 7.625 17.5534 7.71615 17.3711 7.89844C17.207 8.0625 17.125 8.26302 17.125 8.5C17.125 8.73698 17.207 8.94661 17.3711 9.12891ZM14.5 8.9375V15.5547C15.0833 16.1562 15.375 16.8672 15.375 17.6875C15.375 18.526 15.0742 19.2461 14.4727 19.8477C13.8711 20.4492 13.151 20.75 12.3125 20.75C11.474 20.75 10.7539 20.4492 10.1523 19.8477C9.55078 19.2461 9.25 18.526 9.25 17.6875C9.25 16.8672 9.54167 16.1562 10.125 15.5547V8.9375C10.125 8.33594 10.3346 7.82552 10.7539 7.40625C11.1914 6.96875 11.7109 6.75 12.3125 6.75C12.9141 6.75 13.4245 6.96875 13.8438 7.40625C14.2812 7.82552 14.5 8.33594 14.5 8.9375ZM10.7539 19.2188C11.1914 19.6562 11.7109 19.875 12.3125 19.875C12.9141 19.875 13.4245 19.6562 13.8438 19.2188C14.2812 18.7995 14.5 18.2891 14.5 17.6875C14.5 16.9583 14.2083 16.375 13.625 15.9375V8.9375C13.625 8.57292 13.4974 8.26302 13.2422 8.00781C12.987 7.7526 12.6771 7.625 12.3125 7.625C11.9479 7.625 11.638 7.7526 11.3828 8.00781C11.1276 8.26302 11 8.57292 11 8.9375V15.9375C10.4167 16.375 10.125 16.9583 10.125 17.6875C10.125 18.2891 10.3346 18.7995 10.7539 19.2188Z" fill="white"/>
</svg>
