<svg width="29" height="28" viewBox="0 0 29 28" fill="none" xmlns="http://www.w3.org/2000/svg">
<rect x="0.5" width="28" height="28" rx="14" fill="#AF52DE"/>
<path d="M19.0938 6.75C19.276 6.75 19.431 6.8138 19.5586 6.94141C19.6862 7.06901 19.75 7.22396 19.75 7.40625V9.59375C19.75 9.77604 19.6862 9.93099 19.5586 10.0586C19.431 10.1862 19.276 10.25 19.0938 10.25H18.875V19.875C18.875 20.112 18.7839 20.3125 18.6016 20.4766C18.4375 20.6589 18.237 20.75 18 20.75H11C10.763 20.75 10.5534 20.6589 10.3711 20.4766C10.207 20.3125 10.125 20.112 10.125 19.875V10.25H9.90625C9.72396 10.25 9.56901 10.1862 9.44141 10.0586C9.3138 9.93099 9.25 9.77604 9.25 9.59375V7.40625C9.25 7.22396 9.3138 7.06901 9.44141 6.94141C9.56901 6.8138 9.72396 6.75 9.90625 6.75H19.0938ZM18 19.875V10.25H11V12H13.4062C13.5521 12 13.625 12.0729 13.625 12.2188V12.6562C13.625 12.8021 13.5521 12.875 13.4062 12.875H11V14.625H13.4062C13.5521 14.625 13.625 14.6979 13.625 14.8438V15.2812C13.625 15.4271 13.5521 15.5 13.4062 15.5H11V17.25H13.4062C13.5521 17.25 13.625 17.3229 13.625 17.4688V17.9062C13.625 18.0521 13.5521 18.125 13.4062 18.125H11V19.875H18ZM18.875 9.375V7.625H10.125V9.375H18.875Z" fill="white"/>
</svg>
