<svg width="28" height="28" viewBox="0 0 28 28" fill="none" xmlns="http://www.w3.org/2000/svg">
<rect width="28" height="28" rx="14" transform="matrix(-1 0 0 1 28 0)" fill="#FF4A26"/>
<path d="M6.31641 12C6.17057 12 6.09766 12.0729 6.09766 12.2188C6.09766 12.4922 6.125 12.8021 6.17969 13.1484C6.23438 13.4766 6.33464 13.9141 6.48047 14.4609C6.60807 14.9896 6.85417 15.5456 7.21875 16.1289C7.5651 16.694 8.0026 17.2044 8.53125 17.6602C9.78906 18.8815 11.4023 19.6198 13.3711 19.875C13.3711 19.875 13.5716 19.875 13.9727 19.875C14.3737 19.875 14.5742 19.875 14.5742 19.875C16.543 19.6198 18.1562 18.8815 19.4141 17.6602C19.9427 17.2044 20.3893 16.694 20.7539 16.1289C21.1003 15.5456 21.3464 14.9896 21.4922 14.4609C21.6198 13.9141 21.7109 13.4766 21.7656 13.1484C21.8203 12.8021 21.8477 12.4922 21.8477 12.2188C21.8477 12.0729 21.7747 12 21.6289 12C20.0794 12 18.6302 12.3828 17.2812 13.1484C16.7344 10.8333 15.7135 9.01953 14.2188 7.70703C14.1458 7.65234 14.0638 7.625 13.9727 7.625C13.8815 7.625 13.7995 7.65234 13.7266 7.70703C12.2318 9.01953 11.2109 10.8333 10.6641 13.1484C9.3151 12.3828 7.86589 12 6.31641 12ZM18.8398 17.0039C18.2383 17.6055 17.5091 18.0885 16.6523 18.4531C15.7956 18.7995 15.0482 18.9818 14.4102 19C14.4102 18.3984 14.5378 17.7969 14.793 17.1953C15.1576 16.3021 15.6862 15.5456 16.3789 14.9258C17.5638 13.7773 19.0768 13.112 20.918 12.9297C20.7174 14.5885 20.0247 15.9466 18.8398 17.0039ZM15.7773 14.2695C14.9935 14.9805 14.3919 15.8464 13.9727 16.8672C13.5534 15.8464 12.9518 14.9805 12.168 14.2695C11.9674 14.0872 11.7214 13.8867 11.4297 13.668C11.8672 11.6081 12.7148 9.94922 13.9727 8.69141C15.2305 9.94922 16.0781 11.6081 16.5156 13.668C16.224 13.8867 15.9779 14.0872 15.7773 14.2695ZM9.13281 17.0312C7.92969 15.9557 7.22786 14.5885 7.02734 12.9297C8.86849 13.112 10.3724 13.7682 11.5391 14.8984C12.25 15.5365 12.7878 16.3021 13.1523 17.1953C13.4076 17.7969 13.5352 18.3984 13.5352 19C12.8789 18.9818 12.1315 18.7904 11.293 18.4258C10.4362 18.0612 9.71615 17.5964 9.13281 17.0312Z" fill="white"/>
</svg>
