<svg width="28" height="28" viewBox="0 0 28 28" fill="none" xmlns="http://www.w3.org/2000/svg">
<rect width="28" height="28" rx="14" transform="matrix(-1 0 0 1 28 0)" fill="#FF9E48"/>
<path d="M13.2891 13.75L7.90234 19.1367C7.88411 19.1549 7.875 19.1823 7.875 19.2188C7.875 19.2552 7.88411 19.2826 7.90234 19.3008C8.08464 19.4648 8.29427 19.5469 8.53125 19.5469C8.76823 19.5469 8.96875 19.4648 9.13281 19.3008L14 14.4336L15.3398 15.7734C15.0299 16.2109 14.875 16.7031 14.875 17.25C14.875 17.9792 15.1302 18.599 15.6406 19.1094C16.151 19.6198 16.7708 19.875 17.5 19.875C18.2292 19.875 18.849 19.6198 19.3594 19.1094C19.8698 18.599 20.125 17.9792 20.125 17.25C20.125 16.5208 19.8698 15.901 19.3594 15.3906C18.849 14.8802 18.2292 14.625 17.5 14.625C16.9531 14.625 16.4609 14.7799 16.0234 15.0898L14.6836 13.75L16.0234 12.4102C16.4609 12.7201 16.9531 12.875 17.5 12.875C18.2292 12.875 18.849 12.6198 19.3594 12.1094C19.8698 11.599 20.125 10.9792 20.125 10.25C20.125 9.52083 19.8698 8.90104 19.3594 8.39062C18.849 7.88021 18.2292 7.625 17.5 7.625C16.7708 7.625 16.151 7.88021 15.6406 8.39062C15.1302 8.90104 14.875 9.52083 14.875 10.25C14.875 10.7969 15.0299 11.2891 15.3398 11.7266L14 13.0664L9.13281 8.19922C8.96875 8.03516 8.76823 7.95312 8.53125 7.95312C8.29427 7.95312 8.08464 8.03516 7.90234 8.19922C7.88411 8.21745 7.875 8.24479 7.875 8.28125C7.875 8.31771 7.88411 8.34505 7.90234 8.36328L13.2891 13.75ZM18.7305 11.4805C18.3841 11.8268 17.974 12 17.5 12C17.026 12 16.6159 11.8268 16.2695 11.4805C15.9232 11.1341 15.75 10.724 15.75 10.25C15.75 9.77604 15.9232 9.36589 16.2695 9.01953C16.6159 8.67318 17.026 8.5 17.5 8.5C17.974 8.5 18.3841 8.67318 18.7305 9.01953C19.0768 9.36589 19.25 9.77604 19.25 10.25C19.25 10.724 19.0768 11.1341 18.7305 11.4805ZM18.7305 18.4805C18.3841 18.8268 17.974 19 17.5 19C17.026 19 16.6159 18.8268 16.2695 18.4805C15.9232 18.1341 15.75 17.724 15.75 17.25C15.75 16.776 15.9232 16.3659 16.2695 16.0195C16.6159 15.6732 17.026 15.5 17.5 15.5C17.974 15.5 18.3841 15.6732 18.7305 16.0195C19.0768 16.3659 19.25 16.776 19.25 17.25C19.25 17.724 19.0768 18.1341 18.7305 18.4805Z" fill="white"/>
</svg>
