<svg width="28" height="28" viewBox="0 0 28 28" fill="none" xmlns="http://www.w3.org/2000/svg">
<rect width="28" height="28" rx="14" transform="matrix(-1 0 0 1 28 0)" fill="#32C770"/>
<path d="M9.84375 16.7852C9.71615 16.6576 9.5612 16.5938 9.37891 16.5938C9.19661 16.5938 9.04167 16.6576 8.91406 16.7852C8.78646 16.9128 8.72266 17.0677 8.72266 17.25C8.72266 17.4323 8.78646 17.5872 8.91406 17.7148C9.04167 17.8424 9.19661 17.9062 9.37891 17.9062C9.5612 17.9062 9.71615 17.8424 9.84375 17.7148C9.97135 17.5872 10.0352 17.4323 10.0352 17.25C10.0352 17.0677 9.97135 16.9128 9.84375 16.7852ZM9.67969 14.2695C9.625 14.3789 9.59766 14.4974 9.59766 14.625C9.59766 14.862 9.6888 15.0716 9.87109 15.2539C10.0352 15.418 10.2357 15.5 10.4727 15.5H11.3477V16.375C11.3477 16.5026 11.3932 16.612 11.4844 16.7031C11.5573 16.776 11.6576 16.8125 11.7852 16.8125H13.5352C13.6628 16.8125 13.7721 16.8581 13.8633 16.9492C13.9362 17.0221 13.9727 17.1224 13.9727 17.25C13.9727 17.2682 13.9727 17.2956 13.9727 17.332C13.9362 17.569 13.7812 17.6875 13.5078 17.6875H11.7852C11.6576 17.6875 11.5573 17.7331 11.4844 17.8242C11.3932 17.8971 11.3477 17.9974 11.3477 18.125V19C11.3477 19.474 11.5208 19.8841 11.8672 20.2305C12.2135 20.5768 12.6237 20.75 13.0977 20.75H14.6289C14.7747 20.75 14.8477 20.6771 14.8477 20.5312V20.0938C14.8477 19.9479 14.7747 19.875 14.6289 19.875H13.0977C12.8607 19.875 12.6602 19.7839 12.4961 19.6016C12.3138 19.4375 12.2227 19.237 12.2227 19V18.5625H13.5352C13.8997 18.5625 14.2096 18.4349 14.4648 18.1797C14.7201 17.9245 14.8477 17.6146 14.8477 17.25C14.8477 17.2318 14.8477 17.2227 14.8477 17.2227C14.8294 16.8581 14.6927 16.5573 14.4375 16.3203C14.1641 16.0651 13.8451 15.9375 13.4805 15.9375H12.2227V14.625H10.4727C10.6367 14.2604 10.8919 13.5768 11.2383 12.5742C11.7852 10.9518 12.168 9.98568 12.3867 9.67578C12.6784 9.25651 13.0247 8.90104 13.4258 8.60938C13.8268 8.29948 14.2826 8.0625 14.793 7.89844C15.2852 7.71615 15.7956 7.625 16.3242 7.625H17.2539C18.2565 7.625 19.168 7.91667 19.9883 8.5C20.8086 9.08333 21.3646 9.82161 21.6562 10.7148C21.9297 11.6081 21.8841 12.5742 21.5195 13.6133C21.2461 14.2695 20.8268 14.8529 20.2617 15.3633L20.0977 15.5273V20.5312C20.0977 20.6771 20.1706 20.75 20.3164 20.75H20.7539C20.8997 20.75 20.9727 20.6771 20.9727 20.5312V15.9102C22.1393 14.8711 22.7227 13.5677 22.7227 12C22.7227 11.9453 22.7227 11.8815 22.7227 11.8086C22.668 10.4049 22.1211 9.21094 21.082 8.22656C20.0247 7.24219 18.776 6.75 17.3359 6.75H16.3242C15.3763 6.75 14.5013 6.96875 13.6992 7.40625C12.8789 7.82552 12.2044 8.40885 11.6758 9.15625C11.4753 9.44792 11.2565 9.92188 11.0195 10.5781C10.7643 11.2161 10.5182 11.9089 10.2812 12.6562C10.026 13.4036 9.82552 13.9414 9.67969 14.2695ZM14.2461 11.3984C14.0638 11.5625 13.9727 11.763 13.9727 12C13.9727 12.237 14.0638 12.4466 14.2461 12.6289C14.4102 12.793 14.6107 12.875 14.8477 12.875C15.0846 12.875 15.2943 12.793 15.4766 12.6289C15.6406 12.4466 15.7227 12.237 15.7227 12C15.7227 11.763 15.6406 11.5625 15.4766 11.3984C15.2943 11.2161 15.0846 11.125 14.8477 11.125C14.6107 11.125 14.4102 11.2161 14.2461 11.3984ZM5.41406 14.8711C5.54167 14.9987 5.69661 15.0625 5.87891 15.0625C6.0612 15.0625 6.21615 14.9987 6.34375 14.8711C6.47135 14.7435 6.53516 14.5885 6.53516 14.4062C6.53516 14.224 6.47135 14.069 6.34375 13.9414C6.21615 13.8138 6.0612 13.75 5.87891 13.75C5.69661 13.75 5.54167 13.8138 5.41406 13.9414C5.28646 14.069 5.22266 14.224 5.22266 14.4062C5.22266 14.5885 5.28646 14.7435 5.41406 14.8711ZM6.34375 16.7852C6.21615 16.6576 6.0612 16.5938 5.87891 16.5938C5.69661 16.5938 5.54167 16.6576 5.41406 16.7852C5.28646 16.9128 5.22266 17.0677 5.22266 17.25C5.22266 17.4323 5.28646 17.5872 5.41406 17.7148C5.54167 17.8424 5.69661 17.9062 5.87891 17.9062C6.0612 17.9062 6.21615 17.8424 6.34375 17.7148C6.47135 17.5872 6.53516 17.4323 6.53516 17.25C6.53516 17.0677 6.47135 16.9128 6.34375 16.7852ZM6.34375 19.6289C6.21615 19.5013 6.0612 19.4375 5.87891 19.4375C5.69661 19.4375 5.54167 19.5013 5.41406 19.6289C5.28646 19.7565 5.22266 19.9115 5.22266 20.0938C5.22266 20.276 5.28646 20.431 5.41406 20.5586C5.54167 20.6862 5.69661 20.75 5.87891 20.75C6.0612 20.75 6.21615 20.6862 6.34375 20.5586C6.47135 20.431 6.53516 20.276 6.53516 20.0938C6.53516 19.9115 6.47135 19.7565 6.34375 19.6289ZM8.09375 15.6914C7.96615 15.5638 7.8112 15.5 7.62891 15.5C7.44661 15.5 7.29167 15.5638 7.16406 15.6914C7.03646 15.819 6.97266 15.974 6.97266 16.1562C6.97266 16.3385 7.03646 16.4935 7.16406 16.6211C7.29167 16.7487 7.44661 16.8125 7.62891 16.8125C7.8112 16.8125 7.96615 16.7487 8.09375 16.6211C8.22135 16.4935 8.28516 16.3385 8.28516 16.1562C8.28516 15.974 8.22135 15.819 8.09375 15.6914ZM8.09375 18.3164C7.96615 18.1888 7.8112 18.125 7.62891 18.125C7.44661 18.125 7.29167 18.1888 7.16406 18.3164C7.03646 18.444 6.97266 18.599 6.97266 18.7812C6.97266 18.9635 7.03646 19.1185 7.16406 19.2461C7.29167 19.3737 7.44661 19.4375 7.62891 19.4375C7.8112 19.4375 7.96615 19.3737 8.09375 19.2461C8.22135 19.1185 8.28516 18.9635 8.28516 18.7812C8.28516 18.599 8.22135 18.444 8.09375 18.3164Z" fill="white"/>
</svg>
