<svg width="29" height="28" viewBox="0 0 29 28" fill="none" xmlns="http://www.w3.org/2000/svg">
<rect x="0.5" width="28" height="28" rx="14" fill="#FF9326"/>
<path d="M16.6602 10.0859C17.3529 10.5234 17.9727 11.0065 18.5195 11.5352C19.0664 12.0456 19.5039 12.5195 19.832 12.957C20.1602 13.3763 20.4427 13.8594 20.6797 14.4062C20.9167 14.9531 21.0807 15.3815 21.1719 15.6914C21.2812 15.9831 21.3633 16.3568 21.418 16.8125C21.4727 17.25 21.5 17.5052 21.5 17.5781C21.5 17.6328 21.5 17.7786 21.5 18.0156C21.5 18.763 21.2083 19.401 20.625 19.9297C20.0417 20.4766 19.3307 20.75 18.4922 20.75H10.5078C9.66927 20.75 8.95833 20.4766 8.375 19.9297C7.79167 19.401 7.5 18.763 7.5 18.0156C7.5 14.7891 9.11328 12.1458 12.3398 10.0859L11.1641 8.11719C10.9635 7.82552 10.9453 7.52474 11.1094 7.21484C11.2734 6.90495 11.5286 6.75 11.875 6.75H17.125C17.4714 6.75 17.7266 6.90495 17.8906 7.21484C18.0547 7.52474 18.0456 7.82552 17.8633 8.11719L16.6602 10.0859ZM11.875 7.625L13.2148 9.8125H15.7852L17.125 7.625H11.875ZM20.625 18.0156V17.9336C20.625 17.4414 20.5703 16.9401 20.4609 16.4297C20.3516 15.9193 20.151 15.3359 19.8594 14.6797C19.5677 14.0052 19.0938 13.3216 18.4375 12.6289C17.7812 11.918 16.9701 11.2708 16.0039 10.6875H12.9961C12.0299 11.2708 11.2188 11.918 10.5625 12.6289C9.90625 13.3216 9.43229 14.0052 9.14062 14.6797C8.84896 15.3359 8.64844 15.9193 8.53906 16.4297C8.42969 16.9401 8.375 17.4414 8.375 17.9336V18.0156C8.375 18.526 8.58464 18.9635 9.00391 19.3281C9.42318 19.6927 9.92448 19.875 10.5078 19.875H18.4922C19.0755 19.875 19.5768 19.6927 19.9961 19.3281C20.4154 18.9635 20.625 18.526 20.625 18.0156Z" fill="white"/>
</svg>
