<svg width="28" height="28" viewBox="0 0 28 28" fill="none" xmlns="http://www.w3.org/2000/svg">
<rect width="28" height="28" rx="14" fill="#FF9326"/>
<path d="M18.5938 6.75C18.776 6.75 18.931 6.8138 19.0586 6.94141C19.1862 7.06901 19.25 7.22396 19.25 7.40625V9.59375C19.25 9.77604 19.1862 9.93099 19.0586 10.0586C18.931 10.1862 18.776 10.25 18.5938 10.25H18.375V19.875C18.375 20.112 18.2839 20.3125 18.1016 20.4766C17.9375 20.6589 17.737 20.75 17.5 20.75H10.5C10.263 20.75 10.0534 20.6589 9.87109 20.4766C9.70703 20.3125 9.625 20.112 9.625 19.875V10.25H9.40625C9.22396 10.25 9.06901 10.1862 8.94141 10.0586C8.8138 9.93099 8.75 9.77604 8.75 9.59375V7.40625C8.75 7.22396 8.8138 7.06901 8.94141 6.94141C9.06901 6.8138 9.22396 6.75 9.40625 6.75H18.5938ZM17.5 19.875V10.25H10.5V12H12.9062C13.0521 12 13.125 12.0729 13.125 12.2188V12.6562C13.125 12.8021 13.0521 12.875 12.9062 12.875H10.5V14.625H12.9062C13.0521 14.625 13.125 14.6979 13.125 14.8438V15.2812C13.125 15.4271 13.0521 15.5 12.9062 15.5H10.5V17.25H12.9062C13.0521 17.25 13.125 17.3229 13.125 17.4688V17.9062C13.125 18.0521 13.0521 18.125 12.9062 18.125H10.5V19.875H17.5ZM18.375 9.375V7.625H9.625V9.375H18.375Z" fill="white"/>
</svg>
