<svg width="28" height="28" viewBox="0 0 28 28" fill="none" xmlns="http://www.w3.org/2000/svg">
<rect width="28" height="28" rx="14" transform="matrix(-1 0 0 1 28 0)" fill="#5AC8FA"/>
<path d="M14.875 10.25C14.1458 10.25 13.526 10.5052 13.0156 11.0156C12.5052 11.526 12.25 12.1458 12.25 12.875V19.875C12.25 20.112 12.3411 20.3125 12.5234 20.4766C12.6875 20.6589 12.888 20.75 13.125 20.75H20.125C20.362 20.75 20.5716 20.6589 20.7539 20.4766C20.918 20.3125 21 20.112 21 19.875V12.875C21 12.1458 20.7448 11.526 20.2344 11.0156C19.724 10.5052 19.1042 10.25 18.375 10.25V7.625C18.375 7.38802 18.293 7.1875 18.1289 7.02344C17.9466 6.84115 17.737 6.75 17.5 6.75H15.75C15.513 6.75 15.3125 6.84115 15.1484 7.02344C14.9661 7.1875 14.875 7.38802 14.875 7.625V10.25ZM17.5 7.625V10.25H15.75V7.625H17.5ZM13.125 19.875V12.875C13.125 12.401 13.2982 11.9909 13.6445 11.6445C13.9909 11.2982 14.401 11.125 14.875 11.125H18.375C18.849 11.125 19.2591 11.2982 19.6055 11.6445C19.9518 11.9909 20.125 12.401 20.125 12.875V19.875H13.125ZM18.1836 13.9688C17.7461 13.5312 17.2266 13.3125 16.625 13.3125C16.0234 13.3125 15.513 13.5312 15.0938 13.9688C14.6562 14.388 14.4375 14.8984 14.4375 15.5C14.4375 16.1016 14.6562 16.6211 15.0938 17.0586C15.513 17.4779 16.0234 17.6875 16.625 17.6875C17.2266 17.6875 17.7461 17.4779 18.1836 17.0586C18.6029 16.6211 18.8125 16.1016 18.8125 15.5C18.8125 14.8984 18.6029 14.388 18.1836 13.9688ZM17.5547 16.4297C17.2995 16.6849 16.9896 16.8125 16.625 16.8125C16.2604 16.8125 15.9505 16.6849 15.6953 16.4297C15.4401 16.1745 15.3125 15.8646 15.3125 15.5C15.3125 15.1354 15.4401 14.8255 15.6953 14.5703C15.9505 14.3151 16.2604 14.1875 16.625 14.1875C16.9896 14.1875 17.2995 14.3151 17.5547 14.5703C17.8099 14.8255 17.9375 15.1354 17.9375 15.5C17.9375 15.8646 17.8099 16.1745 17.5547 16.4297ZM7.19141 8.74609C7.31901 8.8737 7.47396 8.9375 7.65625 8.9375C7.83854 8.9375 7.99349 8.8737 8.12109 8.74609C8.2487 8.61849 8.3125 8.46354 8.3125 8.28125C8.3125 8.09896 8.2487 7.94401 8.12109 7.81641C7.99349 7.6888 7.83854 7.625 7.65625 7.625C7.47396 7.625 7.31901 7.6888 7.19141 7.81641C7.0638 7.94401 7 8.09896 7 8.28125C7 8.46354 7.0638 8.61849 7.19141 8.74609ZM8.12109 10.4414C7.99349 10.3138 7.83854 10.25 7.65625 10.25C7.47396 10.25 7.31901 10.3138 7.19141 10.4414C7.0638 10.569 7 10.724 7 10.9062C7 11.0885 7.0638 11.2435 7.19141 11.3711C7.31901 11.4987 7.47396 11.5625 7.65625 11.5625C7.83854 11.5625 7.99349 11.4987 8.12109 11.3711C8.2487 11.2435 8.3125 11.0885 8.3125 10.9062C8.3125 10.724 8.2487 10.569 8.12109 10.4414ZM10.7461 7.81641C10.6185 7.6888 10.4635 7.625 10.2812 7.625C10.099 7.625 9.94401 7.6888 9.81641 7.81641C9.6888 7.94401 9.625 8.09896 9.625 8.28125C9.625 8.46354 9.6888 8.61849 9.81641 8.74609C9.94401 8.8737 10.099 8.9375 10.2812 8.9375C10.4635 8.9375 10.6185 8.8737 10.7461 8.74609C10.8737 8.61849 10.9375 8.46354 10.9375 8.28125C10.9375 8.09896 10.8737 7.94401 10.7461 7.81641ZM10.7461 10.4414C10.6185 10.3138 10.4635 10.25 10.2812 10.25C10.099 10.25 9.94401 10.3138 9.81641 10.4414C9.6888 10.569 9.625 10.724 9.625 10.9062C9.625 11.0885 9.6888 11.2435 9.81641 11.3711C9.94401 11.4987 10.099 11.5625 10.2812 11.5625C10.4635 11.5625 10.6185 11.4987 10.7461 11.3711C10.8737 11.2435 10.9375 11.0885 10.9375 10.9062C10.9375 10.724 10.8737 10.569 10.7461 10.4414ZM13.3711 7.81641C13.2435 7.6888 13.0885 7.625 12.9062 7.625C12.724 7.625 12.569 7.6888 12.4414 7.81641C12.3138 7.94401 12.25 8.09896 12.25 8.28125C12.25 8.46354 12.3138 8.61849 12.4414 8.74609C12.569 8.8737 12.724 8.9375 12.9062 8.9375C13.0885 8.9375 13.2435 8.8737 13.3711 8.74609C13.4987 8.61849 13.5625 8.46354 13.5625 8.28125C13.5625 8.09896 13.4987 7.94401 13.3711 7.81641ZM8.12109 13.0664C7.99349 12.9388 7.83854 12.875 7.65625 12.875C7.47396 12.875 7.31901 12.9388 7.19141 13.0664C7.0638 13.194 7 13.349 7 13.5312C7 13.7135 7.0638 13.8685 7.19141 13.9961C7.31901 14.1237 7.47396 14.1875 7.65625 14.1875C7.83854 14.1875 7.99349 14.1237 8.12109 13.9961C8.2487 13.8685 8.3125 13.7135 8.3125 13.5312C8.3125 13.349 8.2487 13.194 8.12109 13.0664Z" fill="white"/>
</svg>
