<svg width="29" height="28" viewBox="0 0 29 28" fill="none" xmlns="http://www.w3.org/2000/svg">
<rect x="0.5" width="28" height="28" rx="14" fill="#FFCC00"/>
<path d="M14.5 10.6875C14.9193 10.6875 15.3112 10.7695 15.6758 10.9336C16.0586 11.0794 16.3867 11.2982 16.6602 11.5898C16.9336 11.8633 17.1523 12.1914 17.3164 12.5742C17.4805 12.9388 17.5625 13.3307 17.5625 13.75C17.5625 14.5885 17.2617 15.3086 16.6602 15.9102C16.0586 16.5117 15.3385 16.8125 14.5 16.8125C13.6615 16.8125 12.9414 16.5117 12.3398 15.9102C11.7383 15.3086 11.4375 14.5885 11.4375 13.75C11.4375 13.1849 11.5742 12.6745 11.8477 12.2188C12.1211 11.7448 12.4948 11.3711 12.9688 11.0977C13.4427 10.8242 13.9531 10.6875 14.5 10.6875ZM12.9414 15.3086C13.3789 15.7279 13.8984 15.9375 14.5 15.9375C15.1016 15.9375 15.612 15.7279 16.0312 15.3086C16.4688 14.8711 16.6875 14.3516 16.6875 13.75C16.6875 13.1484 16.4688 12.638 16.0312 12.2188C15.612 11.7812 15.1016 11.5625 14.5 11.5625C13.8984 11.5625 13.3789 11.7812 12.9414 12.2188C12.5221 12.638 12.3125 13.1484 12.3125 13.75C12.3125 14.3516 12.5221 14.8711 12.9414 15.3086ZM21.3086 13.3672C21.4362 13.4583 21.5 13.5859 21.5 13.75C21.5 13.8958 21.4362 14.0143 21.3086 14.1055L19.0391 15.6367L19.5586 18.2891C19.5951 18.4531 19.5586 18.5898 19.4492 18.6992C19.3398 18.8086 19.2122 18.8451 19.0664 18.8086L16.3867 18.2891L14.8555 20.5586C14.7643 20.6862 14.6367 20.75 14.4727 20.75C14.3268 20.75 14.2174 20.6862 14.1445 20.5586L12.6133 18.2891L9.93359 18.8086C9.78776 18.8451 9.66016 18.8086 9.55078 18.6992C9.44141 18.5898 9.40495 18.4531 9.44141 18.2891L9.96094 15.6367L7.69141 14.1055C7.5638 14.0143 7.5 13.8958 7.5 13.75C7.5 13.5859 7.5638 13.4583 7.69141 13.3672L9.96094 11.8633L9.44141 9.18359C9.40495 9.03776 9.44141 8.91016 9.55078 8.80078C9.66016 8.67318 9.78776 8.6276 9.93359 8.66406L12.6133 9.21094L14.1445 6.94141C14.2174 6.8138 14.3359 6.75 14.5 6.75C14.6641 6.75 14.7826 6.8138 14.8555 6.94141L16.3867 9.21094L19.0664 8.66406C19.2122 8.64583 19.3398 8.69141 19.4492 8.80078C19.5586 8.91016 19.5951 9.03776 19.5586 9.18359L19.0391 11.8633L21.3086 13.3672ZM18.3008 15.0625L20.2695 13.75L18.3008 12.4375C18.1367 12.3281 18.0729 12.1732 18.1094 11.9727L18.5742 9.64844L16.25 10.1133C16.0677 10.1497 15.9219 10.0859 15.8125 9.92188L14.5 7.95312L13.1875 9.92188C13.0781 10.0859 12.9323 10.1497 12.75 10.1133L10.4258 9.64844L10.8906 11.9727C10.9271 12.1732 10.8633 12.3281 10.6992 12.4375L8.73047 13.75L10.6992 15.0625C10.8633 15.1719 10.9271 15.3177 10.8906 15.5L10.4258 17.8242L12.75 17.3594C12.7682 17.3594 12.7956 17.3594 12.832 17.3594C12.9779 17.3594 13.0964 17.4232 13.1875 17.5508L14.5 19.5195L15.8125 17.5508C15.9219 17.3867 16.0677 17.3229 16.25 17.3594L18.5742 17.8242L18.1094 15.5C18.0729 15.3177 18.1367 15.1719 18.3008 15.0625Z" fill="white"/>
</svg>
