<svg width="28" height="28" viewBox="0 0 28 28" fill="none" xmlns="http://www.w3.org/2000/svg">
<rect width="28" height="28" rx="14" fill="#FF9E48"/>
<path d="M18.8125 8.5C19.1771 8.5 19.487 8.6276 19.7422 8.88281C19.9974 9.13802 20.125 9.44792 20.125 9.8125V19.4375C20.125 19.8021 19.9974 20.112 19.7422 20.3672C19.487 20.6224 19.1771 20.75 18.8125 20.75H9.1875C8.82292 20.75 8.51302 20.6224 8.25781 20.3672C8.0026 20.112 7.875 19.8021 7.875 19.4375V9.8125C7.875 9.44792 8.0026 9.13802 8.25781 8.88281C8.51302 8.6276 8.82292 8.5 9.1875 8.5H10.5V7.07812C10.5 6.85938 10.6094 6.75 10.8281 6.75H11.0469C11.2656 6.75 11.375 6.85938 11.375 7.07812V8.5H16.625V7.07812C16.625 6.85938 16.7344 6.75 16.9531 6.75H17.1719C17.3906 6.75 17.5 6.85938 17.5 7.07812V8.5H18.8125ZM9.1875 9.375C9.0599 9.375 8.95052 9.42057 8.85938 9.51172C8.78646 9.58464 8.75 9.6849 8.75 9.8125V11.125H19.25V9.8125C19.25 9.6849 19.2044 9.58464 19.1133 9.51172C19.0404 9.42057 18.9401 9.375 18.8125 9.375H9.1875ZM18.8125 19.875C18.9401 19.875 19.0404 19.8294 19.1133 19.7383C19.2044 19.6654 19.25 19.5651 19.25 19.4375V12H8.75V19.4375C8.75 19.5651 8.78646 19.6654 8.85938 19.7383C8.95052 19.8294 9.0599 19.875 9.1875 19.875H18.8125ZM17.0078 14.543L13.3164 18.207C13.1523 18.3529 12.9974 18.3529 12.8516 18.207L10.9922 16.3477C10.8464 16.2018 10.8464 16.0469 10.9922 15.8828L11.2383 15.6641C11.3841 15.5 11.5391 15.5 11.7031 15.6641L13.0703 17.0312L16.2969 13.832C16.4609 13.6862 16.6159 13.6953 16.7617 13.8594L17.0078 14.0781C17.1536 14.2422 17.1536 14.3971 17.0078 14.543Z" fill="white"/>
</svg>
