<svg width="28" height="28" viewBox="0 0 28 28" fill="none" xmlns="http://www.w3.org/2000/svg">
<rect width="28" height="28" rx="14" fill="#32C770"/>
<path d="M19.1133 7.625H21V8.0625C21 9.86719 20.4531 11.4167 19.3594 12.7109C18.2839 13.987 16.9805 14.625 15.4492 14.625H14.4375V19.6562C14.4375 19.8021 14.3646 19.875 14.2188 19.875H13.7812C13.6354 19.875 13.5625 19.8021 13.5625 19.6562V16.375H12.5508C11.0195 16.375 9.70703 15.737 8.61328 14.4609C7.53776 13.1667 7 11.6172 7 9.8125V9.375H8.88672C9.5612 9.375 10.2083 9.52083 10.8281 9.8125C11.4661 10.0859 12.0221 10.4688 12.4961 10.9609C12.9883 11.4531 13.3984 12.0365 13.7266 12.7109C14 11.2344 14.638 10.0221 15.6406 9.07422C16.6432 8.10807 17.8008 7.625 19.1133 7.625ZM12.5508 15.5H13.5625C13.4531 14.0234 12.9518 12.7839 12.0586 11.7812C11.1654 10.7604 10.1081 10.25 8.88672 10.25H7.875C7.98438 11.7266 8.48568 12.9753 9.37891 13.9961C10.2721 14.9987 11.3294 15.5 12.5508 15.5ZM15.4492 13.75C16.6706 13.75 17.7279 13.2487 18.6211 12.2461C19.5143 11.2253 20.0156 9.97656 20.125 8.5H19.1133C17.8919 8.5 16.8346 9.01042 15.9414 10.0312C15.0482 11.0339 14.5469 12.2734 14.4375 13.75H15.4492Z" fill="white"/>
</svg>
