<svg width="29" height="28" viewBox="0 0 29 28" fill="none" xmlns="http://www.w3.org/2000/svg">
<rect x="0.5" width="28" height="28" rx="14" fill="#2692FF"/>
<path d="M13.4062 14.1875C13.5521 14.3333 13.625 14.5156 13.625 14.7344C13.625 14.9531 13.5521 15.1354 13.4062 15.2812C13.2604 15.4271 13.0781 15.5 12.8594 15.5C12.6406 15.5 12.4583 15.4271 12.3125 15.2812C12.1667 15.1354 12.0938 14.9531 12.0938 14.7344C12.0938 14.5156 12.1667 14.3333 12.3125 14.1875C12.4583 14.0417 12.6406 13.9688 12.8594 13.9688C13.0781 13.9688 13.2604 14.0417 13.4062 14.1875ZM15.5938 16.5938C15.7396 16.4479 15.9219 16.375 16.1406 16.375C16.3594 16.375 16.5417 16.4479 16.6875 16.5938C16.8333 16.7396 16.9062 16.9219 16.9062 17.1406C16.9062 17.3594 16.8333 17.5417 16.6875 17.6875C16.5417 17.8333 16.3594 17.9062 16.1406 17.9062C15.9219 17.9062 15.7396 17.8333 15.5938 17.6875C15.4479 17.5417 15.375 17.3594 15.375 17.1406C15.375 16.9219 15.4479 16.7396 15.5938 16.5938ZM15.375 7.35156C15.6302 8.13542 15.9583 8.88281 16.3594 9.59375C16.7604 10.3047 17.1432 10.8971 17.5078 11.3711C17.8906 11.8451 18.2552 12.319 18.6016 12.793C18.9479 13.2487 19.2214 13.7409 19.4219 14.2695C19.6406 14.7799 19.75 15.3177 19.75 15.8828C19.75 17.2318 19.2396 18.3802 18.2188 19.3281C17.1979 20.276 15.9583 20.75 14.5 20.75C13.0417 20.75 11.8021 20.276 10.7812 19.3281C9.76042 18.3802 9.25 17.2318 9.25 15.8828C9.25 15.4635 9.30469 15.0625 9.41406 14.6797C9.52344 14.2969 9.67839 13.9414 9.87891 13.6133C10.0794 13.2669 10.2982 12.9297 10.5352 12.6016C10.7721 12.2734 11.0273 11.9271 11.3008 11.5625C11.5924 11.1797 11.875 10.7969 12.1484 10.4141C12.4219 10.013 12.6862 9.54818 12.9414 9.01953C13.2148 8.49089 13.4427 7.9349 13.625 7.35156C13.7526 6.95052 14.0443 6.75 14.5 6.75C14.9557 6.75 15.2474 6.95052 15.375 7.35156ZM11.4102 18.6992C12.2669 19.4831 13.2969 19.875 14.5 19.875C15.7031 19.875 16.7331 19.4831 17.5898 18.6992C18.4466 17.9154 18.875 16.9766 18.875 15.8828C18.875 15.2995 18.7474 14.7708 18.4922 14.2969C18.2552 13.8229 17.8451 13.2031 17.2617 12.4375C16.8424 11.9089 16.5143 11.4805 16.2773 11.1523C16.0404 10.806 15.7487 10.3047 15.4023 9.64844C15.056 8.97396 14.7734 8.29948 14.5547 7.625H14.5273C14.5091 7.625 14.5 7.625 14.5 7.625C14.4635 7.625 14.4453 7.625 14.4453 7.625C14.2266 8.29948 13.944 8.96484 13.5977 9.62109C13.2513 10.2773 12.9596 10.7786 12.7227 11.125C12.4857 11.4531 12.1667 11.8906 11.7656 12.4375C11.3646 12.9661 11.0729 13.3672 10.8906 13.6406C10.7083 13.8958 10.5352 14.2331 10.3711 14.6523C10.207 15.0534 10.125 15.4635 10.125 15.8828C10.125 16.9766 10.5534 17.9154 11.4102 18.6992ZM16.168 14.0781C16.2773 14.1693 16.2865 14.2695 16.1953 14.3789L13.4883 18.043C13.3971 18.1523 13.2969 18.1615 13.1875 18.0703L12.832 17.7969C12.7227 17.7057 12.7135 17.6055 12.8047 17.4961L15.5117 13.832C15.6029 13.7227 15.7031 13.7135 15.8125 13.8047L16.168 14.0781Z" fill="white"/>
</svg>
