<svg width="28" height="28" viewBox="0 0 28 28" fill="none" xmlns="http://www.w3.org/2000/svg">
<rect width="28" height="28" rx="14" fill="#3A3A3C"/>
<path d="M15.5859 10.9336C15.4583 11.0612 15.3034 11.125 15.1211 11.125C14.9388 11.125 14.7839 11.0612 14.6562 10.9336C14.5286 10.806 14.4648 10.651 14.4648 10.4688C14.4648 10.2865 14.5286 10.1315 14.6562 10.0039C14.7839 9.8763 14.9388 9.8125 15.1211 9.8125C15.3034 9.8125 15.4583 9.8763 15.5859 10.0039C15.7135 10.1315 15.7773 10.2865 15.7773 10.4688C15.7773 10.651 15.7135 10.806 15.5859 10.9336ZM13.3984 10.9336C13.2708 11.0612 13.1159 11.125 12.9336 11.125C12.7513 11.125 12.5964 11.0612 12.4688 10.9336C12.3411 10.806 12.2773 10.651 12.2773 10.4688C12.2773 10.2865 12.3411 10.1315 12.4688 10.0039C12.5964 9.8763 12.7513 9.8125 12.9336 9.8125C13.1159 9.8125 13.2708 9.8763 13.3984 10.0039C13.526 10.1315 13.5898 10.2865 13.5898 10.4688C13.5898 10.651 13.526 10.806 13.3984 10.9336ZM11.5938 12.9844C10.5911 12.2734 10.0898 11.362 10.0898 10.25C10.0898 9.28385 10.4727 8.46354 11.2383 7.78906C12.0039 7.09635 12.9336 6.75 14.0273 6.75C15.1211 6.75 16.0508 7.09635 16.8164 7.78906C17.582 8.46354 17.9648 9.28385 17.9648 10.25C17.9648 11.362 17.4635 12.2734 16.4609 12.9844L16.625 13.8047C16.6797 14.0234 16.6523 14.2148 16.543 14.3789C16.4336 14.543 16.2878 14.625 16.1055 14.625H11.9492C11.8398 14.625 11.7396 14.5885 11.6484 14.5156C11.5573 14.4245 11.4844 14.3242 11.4297 14.2148C11.3932 14.0872 11.3932 13.9505 11.4297 13.8047L11.5938 12.9844ZM16.1875 8.39062C15.5859 7.88021 14.8659 7.625 14.0273 7.625C13.1888 7.625 12.4688 7.88021 11.8672 8.39062C11.2656 8.90104 10.9648 9.52083 10.9648 10.25C10.9648 11.0703 11.3385 11.7448 12.0859 12.2734L12.5781 12.6016L12.4414 13.1758L12.332 13.75H15.7227L15.6133 13.1758L15.4766 12.6016L15.9688 12.2734C16.7161 11.7448 17.0898 11.0703 17.0898 10.25C17.0898 9.52083 16.7891 8.90104 16.1875 8.39062ZM15.2578 18.125L20.0156 19.9297C20.1432 19.9844 20.1797 20.0755 20.125 20.2031L19.9609 20.6133C19.9245 20.7044 19.8607 20.75 19.7695 20.75C19.7331 20.75 19.7057 20.7409 19.6875 20.7227L14.0273 18.5898L8.36719 20.7227C8.34896 20.7409 8.32161 20.75 8.28516 20.75C8.19401 20.75 8.13021 20.7044 8.09375 20.6133L7.92969 20.2031C7.85677 20.0755 7.89323 19.9844 8.03906 19.9297L12.7969 18.125L8.03906 16.3203C7.91146 16.2656 7.875 16.1745 7.92969 16.0469L8.09375 15.6367C8.13021 15.5456 8.19401 15.5 8.28516 15.5C8.32161 15.5 8.34896 15.5091 8.36719 15.5273L14.0273 17.6602L19.6875 15.5273C19.7057 15.5091 19.7331 15.5 19.7695 15.5C19.8607 15.5 19.9245 15.5456 19.9609 15.6367L20.125 16.0469C20.1979 16.1745 20.1615 16.2656 20.0156 16.3203L15.2578 18.125Z" fill="white"/>
</svg>
