<svg width="28" height="28" viewBox="0 0 28 28" fill="none" xmlns="http://www.w3.org/2000/svg">
<rect width="28" height="28" rx="14" fill="#FF4A26"/>
<path d="M22.6953 7.1875C22.7318 7.22396 22.75 7.26953 22.75 7.32422C22.75 7.37891 22.7227 7.43359 22.668 7.48828L15.9961 12.7656L17.2266 14.2969C17.2995 14.388 17.3177 14.4883 17.2812 14.5977C17.263 14.707 17.1992 14.7799 17.0898 14.8164L14.9844 15.6641C14.5469 17.487 13.8177 18.7995 12.7969 19.6016C12.4141 19.9115 11.8034 20.1576 10.9648 20.3398C10.1445 20.5221 9.34245 20.6315 8.55859 20.668C7.77474 20.7044 7.04557 20.7318 6.37109 20.75C5.69661 20.7682 5.32292 20.7591 5.25 20.7227C5.26823 20.6497 5.28646 20.5404 5.30469 20.3945C5.34115 20.2669 5.40495 19.9935 5.49609 19.5742C5.58724 19.1549 5.6875 18.7539 5.79688 18.3711C5.90625 17.9701 6.04297 17.5143 6.20703 17.0039C6.37109 16.4935 6.54427 16.0378 6.72656 15.6367C6.90885 15.2357 7.10938 14.8529 7.32812 14.4883C7.5651 14.1055 7.80208 13.8229 8.03906 13.6406C9.04167 12.8385 10.4818 12.4284 12.3594 12.4102L13.6719 10.5234C13.7448 10.4323 13.8359 10.3867 13.9453 10.3867C14.0547 10.3867 14.1367 10.4323 14.1914 10.5234L15.4492 12.082L22.1211 6.80469C22.2305 6.71354 22.3307 6.72266 22.4219 6.83203L22.6953 7.1875ZM12.25 18.9453C13.0703 18.2891 13.681 17.1771 14.082 15.6094L12.2227 13.2852C10.6185 13.3216 9.40625 13.668 8.58594 14.3242C8.14844 14.6706 7.68359 15.5091 7.19141 16.8398L8.44922 16.5664C8.54036 16.5482 8.60417 16.5755 8.64062 16.6484C8.67708 16.7214 8.65885 16.7852 8.58594 16.8398L6.72656 18.3438C6.5625 18.8724 6.42578 19.3828 6.31641 19.875H6.34375C7.80208 19.875 9.0599 19.793 10.1172 19.6289C11.1745 19.4648 11.8854 19.237 12.25 18.9453ZM14.6289 14.8711L15.8867 14.3789C16.0326 14.3242 16.0599 14.2331 15.9688 14.1055L14.1094 11.7812C14.0182 11.6719 13.9271 11.681 13.8359 11.8086L13.0703 12.9023L14.6289 14.8711Z" fill="white"/>
</svg>
