<svg width="28" height="28" viewBox="0 0 28 28" fill="none" xmlns="http://www.w3.org/2000/svg">
<rect width="28" height="28" rx="14" fill="#32C770"/>
<path d="M11.375 6.75C11.138 6.75 10.9375 6.84115 10.7734 7.02344C10.5911 7.1875 10.5 7.38802 10.5 7.625V19.875C10.5 20.112 10.5911 20.3125 10.7734 20.4766C10.9375 20.6589 11.138 20.75 11.375 20.75H16.625C16.862 20.75 17.0716 20.6589 17.2539 20.4766C17.418 20.3125 17.5 20.112 17.5 19.875V7.625C17.5 7.38802 17.418 7.1875 17.2539 7.02344C17.0716 6.84115 16.862 6.75 16.625 6.75H11.375ZM16.625 19.875H11.375V18.125H12.9062C13.0521 18.125 13.125 18.0521 13.125 17.9062V17.4688C13.125 17.3229 13.0521 17.25 12.9062 17.25H11.375V15.5H12.9062C13.0521 15.5 13.125 15.4271 13.125 15.2812V14.8438C13.125 14.6979 13.0521 14.625 12.9062 14.625H11.375V12.875H12.9062C13.0521 12.875 13.125 12.8021 13.125 12.6562V12.2188C13.125 12.0729 13.0521 12 12.9062 12H11.375V10.25H12.9062C13.0521 10.25 13.125 10.1771 13.125 10.0312V9.59375C13.125 9.44792 13.0521 9.375 12.9062 9.375H11.375V7.625H16.625V19.875Z" fill="white"/>
</svg>
